<svg width="262" height="265" viewBox="0 0 262 265" fill="none" xmlns="http://www.w3.org/2000/svg">
<path d="M86.9185 210.414C68.7775 201.537 49.5064 195.185 29.6421 191.535C39.8834 184.745 40.462 167.358 42.1773 155.188C47.6989 116.131 86.4415 91.182 116.567 70.6283C119.104 68.8412 121.733 67.1879 124.443 65.6751C127.64 63.9597 136.542 58.6513 138.876 63.5537C141.12 68.2735 135.557 76.8604 132.786 80.3215C134.625 77.5825 136.661 74.9807 138.876 72.5365C139.558 71.6233 140.504 70.9427 141.586 70.5877C143.616 70.1208 145.555 72.0493 145.86 74.0996C146.164 76.1499 145.311 78.1596 144.378 80.0373C142.128 84.4713 139.325 88.6016 136.034 92.329C138.247 89.8219 146.428 80.4332 146.255 89.9437C146.113 95.9343 143.615 101.627 139.303 105.788C141.195 104.127 143.234 102.639 145.393 101.342C145.696 101.103 146.046 100.93 146.42 100.834C146.794 100.738 147.184 100.721 147.565 100.784C147.968 100.98 148.314 101.276 148.57 101.644C148.826 102.012 148.983 102.439 149.026 102.885C150.386 108.975 146.996 113.339 144.682 118.546C142.875 122.606 141.82 126.423 139.516 130.331C131.193 144.48 122.362 158.385 112.842 171.753C110.385 175.153 87.0403 210.475 86.9185 210.414Z" fill="white"/>
<path d="M86.8881 210.932C86.8195 210.929 86.753 210.908 86.6952 210.871V210.871C68.5967 202.011 49.3698 195.673 29.5507 192.032C29.4531 192.013 29.3634 191.966 29.2926 191.896C29.2218 191.826 29.1731 191.737 29.1525 191.639C29.132 191.542 29.1405 191.441 29.177 191.348C29.2135 191.256 29.2764 191.176 29.3579 191.119C37.9752 185.404 39.65 171.59 40.9999 160.486C41.2232 158.619 41.4364 156.822 41.68 155.117C47.0189 117.339 83.4675 92.5421 112.73 72.6075L116.252 70.2121C118.802 68.413 121.444 66.7495 124.169 65.2285L124.88 64.8428C127.925 63.1985 133.497 60.1433 136.968 61.27C137.479 61.4237 137.951 61.6842 138.354 62.0342C138.756 62.3841 139.079 62.8156 139.303 63.3C140.511 65.8476 139.658 69.258 138.237 72.3842C138.298 72.303 138.369 72.232 138.44 72.1508C139.202 71.1626 140.251 70.4355 141.444 70.07C141.925 69.9705 142.421 69.9715 142.901 70.0728C143.382 70.1741 143.836 70.3736 144.236 70.6587C144.792 71.048 145.265 71.5451 145.626 72.1204C145.987 72.6958 146.228 73.3377 146.337 74.0082C146.661 76.1803 145.789 78.2814 144.804 80.2403C143.67 82.472 142.399 84.6313 140.998 86.7059C142.52 85.5691 143.941 84.9601 145.058 85.3864C146.174 85.8127 146.804 87.3352 146.753 89.9336C146.659 94.3746 145.288 98.6946 142.804 102.377C143.566 101.85 144.327 101.362 145.108 100.885C145.472 100.606 145.891 100.407 146.337 100.302C146.783 100.197 147.247 100.188 147.697 100.276C148.192 100.488 148.621 100.83 148.938 101.266C149.254 101.702 149.446 102.216 149.493 102.753C150.61 107.757 148.691 111.553 146.661 115.572C146.144 116.587 145.646 117.653 145.119 118.739C144.489 120.15 143.941 121.561 143.413 122.931C142.466 125.567 141.302 128.121 139.932 130.564C130.898 145.931 122.169 159.492 113.237 172.027C112.05 173.702 105.757 183.192 99.6669 192.327L91.1815 205.065C87.7813 210.14 87.2433 210.932 86.8881 210.932ZM30.9007 191.261C50.2499 194.921 69.0241 201.147 86.7257 209.775C87.9031 208.08 93.4145 199.797 98.7636 191.768C104.854 182.633 111.147 173.143 112.354 171.469C121.266 158.954 129.975 145.413 138.998 130.087C140.34 127.685 141.48 125.176 142.409 122.586C142.936 121.216 143.495 119.785 144.134 118.354C144.621 117.247 145.149 116.181 145.687 115.146C147.646 111.289 149.483 107.655 148.448 102.966C148.296 102.286 147.971 101.434 147.331 101.231C147.019 101.197 146.703 101.225 146.402 101.314C146.1 101.403 145.82 101.55 145.575 101.748C143.448 103.031 141.437 104.498 139.567 106.133C139.466 106.214 139.338 106.253 139.209 106.243C139.08 106.233 138.959 106.174 138.873 106.078C138.786 105.982 138.739 105.856 138.741 105.727C138.744 105.598 138.796 105.474 138.887 105.382C140.98 103.375 142.657 100.974 143.823 98.3184C144.988 95.6625 145.618 92.8028 145.677 89.9031C145.677 87.8731 145.352 86.6044 144.662 86.3202C143.332 85.8127 140.602 87.8833 136.471 92.5218L136.379 92.6335C136.332 92.681 136.276 92.7188 136.214 92.7446C136.152 92.7703 136.086 92.7836 136.019 92.7836C135.952 92.7836 135.886 92.7703 135.824 92.7446C135.762 92.7188 135.706 92.681 135.659 92.6335C135.61 92.5879 135.572 92.5329 135.545 92.4718C135.519 92.4107 135.505 92.3448 135.505 92.2782C135.505 92.2116 135.519 92.1458 135.545 92.0847C135.572 92.0236 135.61 91.9685 135.659 91.923V91.923C138.917 88.2307 141.69 84.1376 143.911 79.743C144.824 77.9363 145.626 76.0078 145.342 74.1199C145.254 73.5875 145.06 73.0782 144.772 72.6216C144.485 72.165 144.109 71.7703 143.667 71.4606C143.379 71.2476 143.049 71.0985 142.699 71.0233C142.349 70.948 141.987 70.9483 141.637 71.0241C140.662 71.3629 139.811 71.9849 139.191 72.8105C137.912 74.2417 136.674 75.7236 135.517 77.2562C134.289 79.134 133.263 80.423 133.142 80.5753C133.058 80.6763 132.939 80.742 132.809 80.7589C132.679 80.7759 132.548 80.7429 132.441 80.6666C132.334 80.5909 132.261 80.4759 132.238 80.3466C132.215 80.2173 132.245 80.0842 132.319 79.9764C133.111 78.7889 133.943 77.6318 134.806 76.5051C137.425 72.4451 139.942 66.9844 138.389 63.7161C138.227 63.3498 137.988 63.0225 137.689 62.7564C137.389 62.4903 137.036 62.2914 136.654 62.1733C133.609 61.1583 128.036 64.2033 125.367 65.6751L124.656 66.0608C121.966 67.5942 119.361 69.2714 116.851 71.085L113.329 73.4804C84.2085 93.2932 47.9628 117.958 42.6848 155.289C42.4412 156.984 42.2281 158.781 42.0048 160.638C40.665 171.489 39.0613 184.938 30.9007 191.261Z" fill="#231F20"/>
<path d="M115.174 1.77552L46.479 18.6867C43.7085 19.3687 42.0154 22.1676 42.6974 24.9382L78.8611 171.838C79.5431 174.609 82.3421 176.302 85.1126 175.62L153.807 158.709C156.578 158.026 158.271 155.228 157.589 152.457L121.425 5.55712C120.743 2.78654 117.944 1.09346 115.174 1.77552Z" fill="white"/>
<path d="M83.8532 176.29C82.8191 176.286 81.8052 176.002 80.9199 175.468C80.28 175.085 79.7232 174.578 79.2822 173.976C78.8411 173.375 78.5249 172.691 78.3519 171.966L42.1976 25.0649C41.8391 23.6046 42.075 22.0617 42.8534 20.7751C43.6318 19.4886 44.889 18.5636 46.349 18.2035L115.044 1.29361C116.506 0.934878 118.05 1.17046 119.338 1.94869C120.626 2.72692 121.553 3.98426 121.916 5.44496L158.07 152.346C158.426 153.809 158.187 155.353 157.408 156.641C156.628 157.928 155.37 158.855 153.909 159.217L85.2133 176.117C84.7687 176.23 84.3119 176.288 83.8532 176.29V176.29ZM116.414 2.14621C116.035 2.14493 115.657 2.18923 115.288 2.27816L46.5926 19.1881C45.3936 19.4834 44.361 20.2426 43.7215 21.2989C43.0821 22.3552 42.8881 23.6221 43.1822 24.8213L79.3365 171.722C79.6318 172.921 80.391 173.954 81.4473 174.593C82.5036 175.233 83.7705 175.427 84.9697 175.133L153.665 158.233C154.865 157.935 155.898 157.174 156.539 156.117C157.18 155.059 157.377 153.791 157.085 152.59L120.931 5.68856C120.683 4.67772 120.104 3.77924 119.285 3.13698C118.466 2.49472 117.455 2.14584 116.414 2.14621V2.14621Z" fill="#231F20"/>
<path d="M119.538 15.7432L49.0793 33.0887L78.8134 153.871L149.272 136.525L119.538 15.7432Z" fill="#5183F2"/>
<path d="M122.196 149.426L108.792 152.725C107.088 153.145 106.047 154.866 106.467 156.57L107.728 161.695C108.148 163.398 109.869 164.44 111.573 164.02L124.976 160.72C126.68 160.301 127.721 158.58 127.302 156.876L126.04 151.751C125.621 150.047 123.9 149.006 122.196 149.426Z" fill="white"/>
<path d="M110.801 164.638C109.977 164.636 109.177 164.358 108.53 163.849C107.882 163.339 107.424 162.627 107.229 161.826L105.96 156.7C105.742 155.756 105.905 154.764 106.411 153.938C106.918 153.112 107.729 152.518 108.67 152.285L122.078 148.986C123.027 148.756 124.028 148.911 124.863 149.417C125.698 149.923 126.299 150.739 126.534 151.686L127.793 156.761C128.025 157.71 127.872 158.713 127.365 159.548C126.859 160.384 126.042 160.984 125.093 161.217L111.715 164.526C111.416 164.6 111.109 164.638 110.801 164.638V164.638ZM122.981 149.849C122.763 149.851 122.545 149.878 122.332 149.93L108.934 153.229C108.594 153.312 108.273 153.461 107.991 153.668C107.709 153.876 107.47 154.137 107.29 154.437C107.108 154.739 106.987 155.073 106.935 155.421C106.883 155.77 106.9 156.125 106.985 156.467L108.244 161.542C108.327 161.882 108.477 162.203 108.684 162.486C108.891 162.769 109.152 163.008 109.452 163.19C109.751 163.372 110.084 163.493 110.431 163.546C110.777 163.6 111.131 163.584 111.471 163.501L124.869 160.202C125.21 160.119 125.531 159.969 125.814 159.762C126.096 159.555 126.336 159.294 126.517 158.994C126.699 158.694 126.82 158.362 126.874 158.015C126.927 157.668 126.912 157.315 126.828 156.974L125.57 151.899C125.487 151.559 125.338 151.238 125.13 150.956C124.923 150.674 124.662 150.436 124.362 150.255C123.94 149.988 123.45 149.847 122.951 149.849H122.981Z" fill="#E6E7E8"/>
<path d="M69.5519 20.7309C69.4421 20.7231 69.3376 20.6805 69.2536 20.6094C69.1697 20.5382 69.1106 20.4421 69.085 20.335C69.0683 20.2697 69.0649 20.2017 69.0748 20.135C69.0848 20.0683 69.1079 20.0043 69.1429 19.9467C69.1778 19.889 69.2239 19.8389 69.2785 19.7993C69.333 19.7597 69.3949 19.7313 69.4605 19.7159L89.5169 14.783C89.5816 14.7662 89.6489 14.7623 89.715 14.7716C89.7812 14.7809 89.8448 14.8032 89.9023 14.8371C89.9599 14.8711 90.0101 14.916 90.0502 14.9695C90.0903 15.0229 90.1195 15.0837 90.1361 15.1484C90.1668 15.2802 90.1448 15.4188 90.0746 15.5345C90.0044 15.6503 89.8916 15.7339 89.7605 15.7675L69.7041 20.7004L69.5519 20.7309Z" fill="#E6E7E8"/>
<path d="M92.43 15.0976C92.317 15.0982 92.2072 15.0603 92.1187 14.9902C92.0301 14.9201 91.9681 14.8219 91.9428 14.7119C91.9116 14.5815 91.9323 14.444 92.0004 14.3285C92.0686 14.213 92.1789 14.1285 92.3082 14.0927L95.008 13.433C95.1426 13.4007 95.2846 13.4232 95.4026 13.4955C95.5206 13.5678 95.6051 13.6841 95.6374 13.8187C95.6697 13.9533 95.6472 14.0952 95.5748 14.2132C95.5025 14.3312 95.3862 14.4157 95.2516 14.448L92.5517 15.1179L92.43 15.0976Z" fill="#E6E7E8"/>
<path d="M127.896 110.641L86.1475 120.919C82.4516 121.828 80.193 125.562 81.1029 129.258L81.8405 132.254C82.7503 135.95 86.484 138.209 90.18 137.299L131.929 127.021C135.625 126.111 137.883 122.378 136.974 118.682L136.236 115.686C135.326 111.99 131.592 109.731 127.896 110.641Z" fill="white"/>
<path d="M88.5121 138.075C86.8602 138.071 85.2573 137.514 83.9587 136.493C82.6601 135.472 81.7404 134.046 81.3462 132.442L80.6154 129.397C80.1493 127.492 80.4569 125.481 81.4709 123.803C82.4849 122.125 84.1226 120.917 86.0253 120.444L127.782 110.173C128.725 109.941 129.704 109.896 130.663 110.043C131.623 110.189 132.544 110.523 133.374 111.025C134.205 111.528 134.928 112.189 135.503 112.971C136.078 113.753 136.493 114.64 136.725 115.583L137.466 118.628C137.931 120.531 137.623 122.541 136.609 124.217C135.595 125.894 133.957 127.099 132.056 127.57V127.57L90.2984 137.811C89.7156 137.97 89.1159 138.058 88.5121 138.075V138.075ZM129.559 111.015C129.042 111.019 128.528 111.084 128.026 111.208L86.2689 121.429C85.4546 121.629 84.6877 121.987 84.0122 122.484C83.3366 122.98 82.7656 123.605 82.3319 124.322C81.8982 125.04 81.6103 125.836 81.4847 126.665C81.3591 127.494 81.3982 128.339 81.5999 129.153L82.3307 132.198C82.7388 133.84 83.7808 135.253 85.2285 136.128C86.6762 137.003 88.4116 137.269 90.0549 136.867L131.812 126.585C133.453 126.179 134.866 125.139 135.741 123.693C136.616 122.247 136.882 120.513 136.481 118.871L135.74 115.826C135.395 114.445 134.601 113.217 133.482 112.337C132.363 111.457 130.982 110.974 129.559 110.964V111.015Z" fill="#231F20"/>
<path d="M126.234 75.3407L71.1008 88.9133L73.5392 98.8183L128.672 85.2457L126.234 75.3407Z" fill="white"/>
<path d="M78.6767 94.3894C79.6241 94.3894 80.3921 93.6214 80.3921 92.6741C80.3921 91.7267 79.6241 90.9587 78.6767 90.9587C77.7294 90.9587 76.9614 91.7267 76.9614 92.6741C76.9614 93.6214 77.7294 94.3894 78.6767 94.3894Z" fill="#FAD205"/>
<path d="M84.9697 92.8466C85.9171 92.8466 86.6851 92.0786 86.6851 91.1312C86.6851 90.1839 85.9171 89.4159 84.9697 89.4159C84.0224 89.4159 83.2544 90.1839 83.2544 91.1312C83.2544 92.0786 84.0224 92.8466 84.9697 92.8466Z" fill="#FAD205"/>
<path d="M91.2526 91.2937C92.1999 91.2937 92.9679 90.5257 92.9679 89.5783C92.9679 88.6309 92.1999 87.8629 91.2526 87.8629C90.3052 87.8629 89.5372 88.6309 89.5372 89.5783C89.5372 90.5257 90.3052 91.2937 91.2526 91.2937Z" fill="#FAD205"/>
<path d="M97.5456 89.7509C98.493 89.7509 99.261 88.9829 99.261 88.0355C99.261 87.0881 98.493 86.3202 97.5456 86.3202C96.5982 86.3202 95.8303 87.0881 95.8303 88.0355C95.8303 88.9829 96.5982 89.7509 97.5456 89.7509Z" fill="#FAD205"/>
<path d="M130.202 91.4935L75.0692 105.066L77.5076 114.971L132.641 101.399L130.202 91.4935Z" fill="white"/>
<path d="M82.6453 110.538C83.5927 110.538 84.3607 109.77 84.3607 108.823C84.3607 107.875 83.5927 107.107 82.6453 107.107C81.698 107.107 80.93 107.875 80.93 108.823C80.93 109.77 81.698 110.538 82.6453 110.538Z" fill="#FAD205"/>
<path d="M88.9384 108.985C89.8857 108.985 90.6537 108.217 90.6537 107.27C90.6537 106.322 89.8857 105.554 88.9384 105.554C87.991 105.554 87.223 106.322 87.223 107.27C87.223 108.217 87.991 108.985 88.9384 108.985Z" fill="#FAD205"/>
<path d="M95.2314 107.442C96.1788 107.442 96.9467 106.674 96.9467 105.727C96.9467 104.78 96.1788 104.012 95.2314 104.012C94.284 104.012 93.5161 104.78 93.5161 105.727C93.5161 106.674 94.284 107.442 95.2314 107.442Z" fill="#FAD205"/>
<path d="M101.514 105.9C102.462 105.9 103.23 105.132 103.23 104.184C103.23 103.237 102.462 102.469 101.514 102.469C100.567 102.469 99.7989 103.237 99.7989 104.184C99.7989 105.132 100.567 105.9 101.514 105.9Z" fill="#FAD205"/>
<path d="M102.394 45.0143L77.8732 51.0508L81.7237 66.6919L106.245 60.6553L102.394 45.0143Z" fill="white"/>
<path d="M84.31 51.2722C84.2239 51.2704 84.1399 51.2459 84.0664 51.2011C83.9628 51.1359 83.8869 51.0347 83.8532 50.9169L82.6555 46.0449C82.4419 45.1812 82.4009 44.2837 82.5349 43.404C82.6689 42.5244 82.9753 41.6798 83.4364 40.9188C83.8975 40.1578 84.5043 39.4953 85.2221 38.9694C85.9398 38.4434 86.7543 38.0643 87.6189 37.8539V37.8539C89.3619 37.4249 91.2039 37.7057 92.7399 38.6346C94.276 39.5634 95.3802 41.0643 95.8099 42.8071L97.0076 47.6791C97.0355 47.7974 97.0161 47.922 96.9535 48.0262C96.891 48.1305 96.7902 48.2062 96.6727 48.2373L84.4216 51.2823L84.31 51.2722ZM89.2429 38.605C88.7712 38.6039 88.3011 38.6584 87.8422 38.7674V38.7674C87.0938 38.9515 86.389 39.2815 85.7684 39.7386C85.1478 40.1956 84.6235 40.7706 84.2256 41.4307C83.8276 42.0908 83.5639 42.8229 83.4495 43.5851C83.3351 44.3473 83.3723 45.1246 83.5589 45.8724L84.6449 50.2978L96.0028 47.4964L94.9167 43.0811C94.6112 41.8062 93.8853 40.6712 92.856 39.8592C91.8267 39.0472 90.5539 38.6054 89.2429 38.605Z" fill="white"/>
<path d="M91.4555 55.8397C92.7897 55.8397 93.8713 54.7582 93.8713 53.424C93.8713 52.0898 92.7897 51.0083 91.4555 51.0083C90.1214 51.0083 89.0399 52.0898 89.0399 53.424C89.0399 54.7582 90.1214 55.8397 91.4555 55.8397Z" fill="#FAD205"/>
<path d="M92.2206 53.7046L90.9098 54.0273L92.2564 59.4972L93.5672 59.1745L92.2206 53.7046Z" fill="#FAD205"/>
<path d="M96.6016 75.9266H96.4798H96.2971L95.9622 75.8454C88.0736 74.5385 80.8124 70.7354 75.246 64.995C72.6112 62.2007 70.4665 58.982 68.9023 55.4743C68.0056 53.5244 67.3249 51.4822 66.8723 49.3843C66.8046 49.1341 66.8353 48.8674 66.9579 48.639C67.0806 48.4107 67.286 48.2379 67.532 48.1562C67.9482 47.9735 68.3948 47.7502 68.9327 47.4558C71.081 46.388 72.7403 44.5399 73.5713 42.2895C74.1608 40.6292 74.1893 38.8214 73.6525 37.1434C73.6052 37.0219 73.5838 36.8918 73.5898 36.7615C73.5958 36.6312 73.6291 36.5036 73.6874 36.3869C73.7457 36.2703 73.8279 36.1671 73.9285 36.0841C74.0291 36.0012 74.146 35.9402 74.2716 35.9051L77.205 34.545C78.4534 33.9969 79.712 33.4387 80.9808 32.9109C83.6097 31.7575 86.3932 30.995 89.2429 30.6474C91.2729 30.4343 93.3029 30.2719 95.3329 30.1196L98.52 29.876C98.6335 29.8542 98.7502 29.8553 98.8632 29.8794C98.9762 29.9036 99.0832 29.9501 99.1779 30.0164C99.2726 30.0827 99.3529 30.1673 99.4143 30.2652C99.4756 30.3631 99.5167 30.4724 99.535 30.5865L99.6466 31.0128C99.7561 31.5124 99.9089 32.0014 100.103 32.4744C100.544 33.4861 101.182 34.3996 101.98 35.1613C102.778 35.923 103.721 36.5176 104.752 36.91C106.394 37.5245 108.153 37.7604 109.898 37.6002C110.058 37.5697 110.222 37.5722 110.381 37.6073C110.54 37.6424 110.69 37.7095 110.822 37.8045C110.954 37.8994 111.065 38.0203 111.149 38.1597C111.233 38.299 111.287 38.454 111.309 38.6152C112.203 41.892 112.546 45.2946 112.324 48.684C111.796 57.9002 107.919 65.939 100.804 72.7395C100.042 73.45 99.2406 74.13 98.4591 74.7695L97.373 75.683C97.3137 75.7337 97.2446 75.7717 97.17 75.7946L96.6828 75.9063L96.6016 75.9266ZM74.6675 36.778C75.2537 38.6614 75.2145 40.6839 74.5558 42.5432C73.6478 45.0213 71.8343 47.0632 69.4808 48.2577C69.0004 48.5339 68.5058 48.7846 67.9989 49.0088C67.9559 49.0237 67.9149 49.0442 67.8771 49.0697C68.3404 51.1124 69.0033 53.1046 69.8564 55.0176C71.3717 58.4233 73.4551 61.5467 76.0174 64.2541C81.4348 69.8344 88.501 73.5276 96.1753 74.7898C96.3174 74.7898 96.4494 74.8507 96.5813 74.8811H96.6321H96.8757L97.8907 74.0285C98.6621 73.3891 99.4639 72.7192 100.195 71.9985C107.117 65.4416 110.893 57.5754 111.36 48.6535C111.561 45.3751 111.218 42.086 110.345 38.9197C110.331 38.8363 110.3 38.7567 110.253 38.6862V38.6862C110.16 38.6665 110.063 38.6665 109.969 38.6862C108.072 38.8532 106.161 38.5931 104.377 37.925C102.058 37.0229 100.193 35.2378 99.1899 32.9616C98.9747 32.4348 98.8016 31.8918 98.6722 31.3376L98.5707 30.9621L95.3836 31.2158C93.4145 31.3681 91.3236 31.5305 89.3748 31.7436C86.62 32.0834 83.9291 32.8219 81.3868 33.936C80.1282 34.4638 78.8797 35.0018 77.6313 35.5499C76.6501 35.9829 75.6656 36.4092 74.6776 36.8288L74.6675 36.778Z" fill="white"/>
<path d="M39.721 172.118C39.721 172.118 47.6482 105.808 55.4129 98.5509C64.6494 89.9336 73.0638 84.0872 74.6066 89.0099C76.1494 93.9327 77.5805 102.144 64.9539 111.34L66.8012 127.752C66.8012 127.752 79.235 136.37 72.7593 163.45" fill="white"/>
<path d="M39.721 172.585H39.65C39.5277 172.57 39.4164 172.507 39.3403 172.41C39.2643 172.313 39.2296 172.19 39.244 172.067C39.5688 169.357 47.2828 105.514 55.0881 98.2261C64.0201 89.8929 70.0797 86.0461 73.0841 86.8683C73.5616 86.9998 73.9947 87.2579 74.3377 87.6152C74.6807 87.9725 74.9209 88.4158 75.0329 88.8983C78.5346 100.063 71.8052 106.914 65.4411 111.614L67.2377 127.56C68.8008 128.757 79.3162 137.933 73.1957 163.582C73.1826 163.642 73.1576 163.698 73.1222 163.748C73.0868 163.798 73.0418 163.841 72.9897 163.873C72.9376 163.905 72.8796 163.926 72.8191 163.936C72.7586 163.945 72.6968 163.942 72.6375 163.927C72.5194 163.896 72.4179 163.821 72.3537 163.717C72.2895 163.613 72.2675 163.488 72.2924 163.369C78.6158 136.898 66.649 128.28 66.5272 128.199C66.4743 128.159 66.43 128.109 66.3969 128.051C66.3638 127.994 66.3425 127.93 66.3343 127.864L64.487 111.452C64.4777 111.371 64.4896 111.289 64.5217 111.214C64.5537 111.139 64.6047 111.074 64.6697 111.025C76.4336 102.418 75.9159 94.7853 74.1498 89.1723C74.0774 88.8444 73.9188 88.5417 73.6905 88.2955C73.4621 88.0493 73.1722 87.8684 72.8506 87.7716C70.2421 87.0814 64.1622 91.0399 55.7276 98.9366C48.1658 105.991 40.2488 171.55 40.1676 172.209C40.1487 172.314 40.0937 172.409 40.0121 172.478C39.9305 172.546 39.8276 172.584 39.721 172.585V172.585Z" fill="#231F20"/>
<path d="M0.318726 216.433L30.718 179.548L93.516 207.247L75.0126 248.04L0.318726 216.433Z" fill="#32509C"/>
<path d="M233.88 203.4C233.88 203.4 210.251 156.903 192.448 135.954C190.012 133.091 186.916 132.614 184.724 134.096C182.146 135.842 182.044 141.699 182.044 141.699C182.044 141.699 175.284 137.781 172.047 138.593C168.809 139.405 168.433 144.53 168.433 144.53C168.433 144.53 161.217 142.145 158.283 144.713C155.35 147.281 155.238 151.96 155.238 151.96C155.238 151.96 117.186 121.378 112.994 118.79C108.802 116.202 101.281 120.82 104.996 126.22C107.3 129.59 126.504 148.712 132.715 154.792C138.927 160.872 153.381 177.366 155.045 182.197C156.71 187.028 158.04 192.581 148.174 193.261C138.308 193.941 129.528 195.697 125.204 199.351C120.88 203.005 118.038 208.536 120.2 209.622C122.362 210.708 157.238 206.719 170.483 212.119C183.729 217.519 200.933 237.271 200.933 237.271L233.88 203.4Z" fill="white"/>
<path d="M200.923 237.819C200.852 237.817 200.783 237.801 200.718 237.771C200.653 237.741 200.596 237.699 200.548 237.646C200.375 237.443 183.232 217.925 170.26 212.637C161.186 208.932 141.586 209.693 129.873 210.15C123.53 210.394 120.738 210.485 119.947 210.15C119.661 210.007 119.418 209.793 119.24 209.528C119.062 209.263 118.956 208.956 118.932 208.638C118.658 206.324 121.307 202.02 124.829 199.046C128.777 195.717 136.603 193.636 148.103 192.844C151.604 192.601 153.909 191.708 154.934 190.175C156.263 188.145 155.461 185.272 154.528 182.451C152.965 177.782 138.836 161.552 132.36 155.218C125.884 148.885 106.904 129.955 104.61 126.524C103.839 125.55 103.453 124.327 103.524 123.086C103.595 121.846 104.119 120.675 104.996 119.795C106.884 117.826 110.578 116.75 113.288 118.374C117.186 120.759 149.3 146.54 154.802 150.965C155.023 148.453 156.136 146.102 157.938 144.338C160.608 142.023 166.2 143.323 168.088 143.871C168.301 142.399 169.103 138.796 172.006 138.095C174.909 137.395 179.801 139.861 181.659 140.856C181.801 139.12 182.349 135.152 184.521 133.68C187.079 131.944 190.449 132.726 192.915 135.629C210.556 156.375 234.175 202.7 234.418 203.167C234.464 203.263 234.48 203.37 234.464 203.475C234.447 203.58 234.4 203.678 234.327 203.756L201.37 237.667C201.311 237.723 201.241 237.766 201.164 237.792C201.086 237.819 201.004 237.828 200.923 237.819V237.819ZM145.575 208.739C155.025 208.739 164.86 209.338 170.626 211.693C182.927 216.707 198.315 233.617 200.944 236.56L233.261 203.309C231.12 199.137 208.85 156.03 192.052 136.319C189.951 133.842 187.119 133.132 185.008 134.553C183.08 135.872 182.582 140.186 182.552 141.749C182.551 141.836 182.526 141.922 182.482 141.996C182.437 142.071 182.374 142.133 182.298 142.176C182.221 142.22 182.133 142.244 182.044 142.244C181.955 142.244 181.868 142.22 181.791 142.176C181.72 142.176 175.173 138.369 172.168 139.131C169.326 139.841 168.951 144.571 168.941 144.612C168.935 144.688 168.912 144.762 168.874 144.829C168.835 144.895 168.783 144.952 168.719 144.995C168.656 145.038 168.583 145.066 168.507 145.077C168.431 145.088 168.354 145.081 168.281 145.058C168.21 145.058 161.298 142.805 158.578 145.15C155.857 147.494 155.705 151.97 155.705 152.021C155.701 152.115 155.672 152.207 155.62 152.285C155.568 152.364 155.496 152.427 155.411 152.468C155.326 152.508 155.231 152.524 155.138 152.514C155.045 152.503 154.956 152.466 154.883 152.407C154.497 152.102 116.841 121.815 112.73 119.287C110.456 117.897 107.31 118.861 105.706 120.546C104.989 121.255 104.561 122.207 104.506 123.214C104.452 124.222 104.775 125.214 105.412 125.996C107.665 129.295 126.727 148.326 133.071 154.498C138.887 160.192 153.756 176.96 155.492 182.136C156.507 185.181 157.37 188.378 155.776 190.743C154.548 192.58 152.061 193.606 148.164 193.87C136.887 194.641 129.264 196.651 125.489 199.828C121.966 202.802 119.733 206.801 119.936 208.526C119.938 208.677 119.98 208.825 120.059 208.953C120.137 209.082 120.249 209.187 120.383 209.257C120.962 209.531 125.265 209.358 129.823 209.186C134.38 209.013 139.851 208.739 145.575 208.739V208.739Z" fill="#231F20"/>
<path d="M230.45 189.962L182.44 229.12L206.252 264.361L261.681 218.331L230.45 189.962Z" fill="#32509C"/>
<path d="M222.543 25.5318H160.983V70.9531H222.543V25.5318Z" fill="white"/>
<path d="M222.543 71.4605H160.983C160.848 71.4605 160.719 71.4071 160.624 71.3119C160.529 71.2167 160.476 71.0876 160.476 70.953V25.5318C160.476 25.3972 160.529 25.2681 160.624 25.1729C160.719 25.0778 160.848 25.0243 160.983 25.0243H222.543C222.677 25.0243 222.806 25.0778 222.902 25.1729C222.997 25.2681 223.05 25.3972 223.05 25.5318V70.953C223.05 71.0876 222.997 71.2167 222.902 71.3119C222.806 71.4071 222.677 71.4605 222.543 71.4605ZM161.491 70.4455H222.035V26.0393H161.45L161.491 70.4455Z" fill="#E6E7E8"/>
<path d="M212.86 39.955C212.68 40.2397 212.48 40.5111 212.261 40.767L190.997 62.0008C190.889 62.1727 190.739 62.3145 190.562 62.4128C190.384 62.5111 190.185 62.5627 189.982 62.5627C189.779 62.5627 189.579 62.5111 189.402 62.4128C189.224 62.3145 189.074 62.1727 188.967 62.0008L177.03 49.6381C176.879 49.525 176.758 49.377 176.676 49.2067C176.595 49.0364 176.556 48.8489 176.563 48.6603C176.57 48.4717 176.623 48.2876 176.716 48.1238C176.81 47.9599 176.942 47.8213 177.101 47.7197L180.146 45.0198C180.253 44.8828 180.389 44.7719 180.544 44.6957C180.7 44.6194 180.871 44.5797 181.045 44.5797C181.218 44.5797 181.389 44.6194 181.545 44.6957C181.7 44.7719 181.837 44.8828 181.943 45.0198L189.048 52.2263C189.156 52.3983 189.305 52.5401 189.483 52.6384C189.66 52.7366 189.86 52.7882 190.063 52.7882C190.266 52.7882 190.465 52.7366 190.643 52.6384C190.82 52.5401 190.97 52.3983 191.078 52.2263L207.602 35.7833C207.711 35.6221 207.857 35.4901 208.029 35.3988C208.201 35.3075 208.392 35.2598 208.587 35.2598C208.781 35.2598 208.972 35.3075 209.144 35.3988C209.316 35.4901 209.462 35.6221 209.571 35.7833C210.505 36.7273 211.439 37.6611 212.362 38.605C212.572 38.8561 212.765 39.1205 212.941 39.3967L212.86 39.955Z" fill="#FAD205"/>
<path d="M160.435 95.8814C160.308 95.8774 160.188 95.828 160.094 95.7423C160.001 95.6566 159.942 95.5403 159.927 95.4145C159.919 95.282 159.961 95.1513 160.046 95.0492C160.131 94.9472 160.252 94.8818 160.384 94.8664C165.611 94.3792 169.712 92.268 172.564 88.6039C179.192 80.0982 177.091 65.8679 177.071 65.7258C177.061 65.6598 177.064 65.5925 177.08 65.5277C177.096 65.4628 177.124 65.4018 177.164 65.3481C177.204 65.2943 177.253 65.2489 177.311 65.2145C177.368 65.18 177.431 65.1572 177.497 65.1472C177.63 65.1296 177.765 65.1641 177.872 65.2436C177.98 65.3232 178.053 65.4414 178.076 65.5735C178.167 66.1724 180.268 80.3722 173.366 89.2231C170.321 93.1206 165.987 95.313 160.476 95.8814H160.435Z" fill="#E6E7E8"/>
<path d="M78.6057 220.676C78.5353 220.69 78.4629 220.69 78.3925 220.676L26.1911 196.316C26.123 196.293 26.0606 196.257 26.0078 196.208C25.9549 196.16 25.913 196.101 25.8846 196.035C25.8562 195.969 25.8421 195.898 25.8431 195.826C25.8442 195.755 25.8604 195.684 25.8907 195.619C25.921 195.554 25.9647 195.497 26.0189 195.45C26.0731 195.403 26.1367 195.368 26.2053 195.348C26.2739 195.327 26.3461 195.321 26.4172 195.331C26.4882 195.34 26.5564 195.365 26.6174 195.402L78.8188 219.762C78.8797 219.791 78.9345 219.831 78.9798 219.88C79.0251 219.93 79.0601 219.988 79.0827 220.051C79.1054 220.115 79.1153 220.182 79.1118 220.249C79.1083 220.316 79.0915 220.382 79.0624 220.442C79.0147 220.519 78.9469 220.581 78.8664 220.622C78.786 220.664 78.6958 220.682 78.6057 220.676Z" fill="white"/>
<path d="M192.539 235.515C192.461 235.514 192.383 235.496 192.313 235.46C192.243 235.425 192.181 235.374 192.133 235.312C192.053 235.204 192.018 235.069 192.037 234.936C192.056 234.802 192.127 234.682 192.235 234.602L233.576 203.035C233.682 202.953 233.817 202.917 233.95 202.934C234.083 202.951 234.204 203.02 234.286 203.126C234.368 203.233 234.405 203.367 234.387 203.5C234.37 203.634 234.301 203.755 234.195 203.837L192.844 235.464C192.751 235.514 192.644 235.532 192.539 235.515V235.515Z" fill="white"/>
</svg>
