<svg width="448" height="512" viewBox="0 0 448 512" fill="none" xmlns="http://www.w3.org/2000/svg">
<path fill-rule="evenodd" clip-rule="evenodd" d="M121.753 242.503V269.485C121.753 273.953 125.374 277.574 129.812 277.574H139.127C141.2 285.692 144.412 293.372 148.588 300.381L141.989 306.981C138.865 310.135 138.865 315.274 141.989 318.399L161.086 337.497C164.21 340.622 169.35 340.622 172.504 337.497L179.103 330.897C186.111 335.073 193.791 338.285 201.909 340.358V349.673C201.909 354.112 205.559 357.762 209.998 357.762H236.98C241.419 357.762 245.069 354.112 245.069 349.673V340.358C253.187 338.285 260.837 335.073 267.875 330.897L274.474 337.497C277.599 340.622 282.738 340.622 285.892 337.497L304.989 318.399C308.113 315.274 308.113 310.135 304.989 306.981L298.39 300.381C302.566 293.373 305.778 285.693 307.851 277.574H317.166C321.605 277.574 325.225 273.953 325.225 269.485V242.503C325.225 238.064 321.604 234.414 317.166 234.414H307.851C305.778 226.296 302.566 218.645 298.39 211.607L304.989 205.007C308.113 201.882 308.113 196.743 304.989 193.589L285.892 174.52C282.738 171.366 277.599 171.366 274.474 174.52L267.875 181.09C260.838 176.914 253.187 173.702 245.069 171.629V162.314C245.069 157.875 241.419 154.254 236.98 154.254H209.998C205.559 154.254 201.909 157.875 201.909 162.314V171.629C193.791 173.702 186.111 176.915 179.103 181.09L172.504 174.52C169.38 171.366 164.211 171.366 161.086 174.52L141.989 193.589C138.865 196.743 138.865 201.882 141.989 205.007L148.588 211.607C144.412 218.645 141.2 226.295 139.127 234.414H129.812C125.374 234.414 121.753 238.064 121.753 242.503Z" fill="#093F68"/>
<path fill-rule="evenodd" clip-rule="evenodd" d="M236.98 154.256H214.641C229.446 183.604 238.177 218.909 238.352 256.9V258.156C238.352 294.804 230.439 328.941 216.743 357.763H236.979C241.418 357.763 245.068 354.113 245.068 349.674V340.359C253.186 338.286 260.836 335.074 267.874 330.898L274.473 337.498C277.598 340.623 282.737 340.623 285.891 337.498L304.988 318.4C308.112 315.275 308.112 310.136 304.988 306.982L298.389 300.382C302.565 293.374 305.777 285.694 307.85 277.575H317.165C321.604 277.575 325.224 273.954 325.224 269.486V242.504C325.224 238.065 321.603 234.415 317.165 234.415H307.85C305.777 226.297 302.565 218.646 298.389 211.608L304.988 205.008C308.112 201.883 308.112 196.744 304.988 193.59L285.891 174.521C282.737 171.367 277.598 171.367 274.473 174.521L267.874 181.091C260.837 176.915 253.186 173.703 245.068 171.63V162.315C245.068 157.876 241.418 154.256 236.98 154.256V154.256Z" fill="#052B48"/>
<path fill-rule="evenodd" clip-rule="evenodd" d="M42.414 255.994C42.414 163.425 111.708 87.0621 201.238 75.8781V93.3701V103.737C201.442 114.775 211.488 119.389 219.372 114.22L258.7 85.3611L241.957 46.2171L201.238 20.1901V22.9641V33.6811V33.9731C91.1511 45.1001 4.68704 136.238 0.920044 248.314V263.674C3.28504 333.7 37.918 395.549 90.392 434.796C121.462 458.041 144.822 419.903 114.95 401.156C70.914 368.041 42.414 315.361 42.414 255.994V255.994Z" fill="#FFBC0E"/>
<path fill-rule="evenodd" clip-rule="evenodd" d="M228.482 397.768L181.206 432.46L165.671 443.878C156.94 449.134 156.94 458.537 165.671 463.794L180.972 475.037L192.594 483.564L228.482 509.904C236.366 515.044 246.411 510.43 246.616 499.421V489.054V483.564V478.016C260.691 476.596 274.379 473.868 287.558 469.955L305.348 444.566L301.423 420.19C284.434 428.223 265.999 433.696 246.616 436.111V418.619V408.252C246.412 397.243 236.367 392.629 228.482 397.768V397.768Z" fill="#FFBC0E"/>
<path fill-rule="evenodd" clip-rule="evenodd" d="M201.238 20.191C222.788 34.938 242.265 57.277 258.705 85.369L266.648 79.529L282.183 68.111C290.914 62.855 290.914 53.452 282.183 48.195L266.882 36.982L262.414 33.682L219.372 2.11504C211.488 -3.05396 201.443 1.56004 201.238 12.598V20.191Z" fill="#C89613"/>
<path fill-rule="evenodd" clip-rule="evenodd" d="M332.584 110.599C376.823 143.684 405.44 196.51 405.44 255.994C405.44 328.531 362.923 391.11 301.426 420.195C297.805 437.512 293.367 454.069 288.169 469.779C380.093 442.183 447.08 356.914 447.08 255.993C447.08 184.39 413.353 120.643 360.879 79.819C332.788 56.284 306.945 91.267 332.584 110.599V110.599Z" fill="#C89613"/>
<path d="M214.181 234.382C218.05 239.829 218.285 249.508 212.839 253.377C207.392 257.247 198.326 253.834 194.457 248.381C190.588 242.927 186.826 229.499 191.344 225.744C195.863 221.989 210.311 228.935 214.181 234.382Z" fill="#5183F2"/>
<path d="M207.256 255.754C205.761 255.739 204.276 255.498 202.852 255.041C199.271 253.965 196.127 251.774 193.879 248.787C191.816 245.875 189.917 241.078 189.053 236.559C188.453 233.382 187.882 227.686 190.888 225.187C192.187 224.109 194.171 223.76 196.791 224.074C202.995 224.888 211.732 229.685 214.759 233.953C216.841 237.058 217.877 240.748 217.714 244.483C217.557 248.659 215.965 252.014 213.253 253.948C211.492 255.164 209.395 255.796 207.256 255.754V255.754ZM195.057 225.394C193.906 225.314 192.764 225.635 191.823 226.301C190.038 227.779 189.553 231.426 190.481 236.295C191.295 240.578 193.136 245.254 195.064 247.966C197.128 250.696 200.008 252.697 203.287 253.677C206.857 254.769 210.097 254.448 212.446 252.785C214.795 251.122 216.165 248.145 216.308 244.433C216.458 241.016 215.515 237.64 213.617 234.796C210.826 230.862 202.409 226.23 196.627 225.516C196.107 225.439 195.582 225.398 195.057 225.394V225.394Z" fill="#093F68"/>
<path d="M237.088 234.382C233.219 239.829 232.983 249.508 238.43 253.377C243.877 257.247 252.936 253.834 256.805 248.381C260.674 242.927 264.443 229.499 259.924 225.744C255.405 221.989 240.95 228.935 237.088 234.382Z" fill="#5183F2"/>
<path d="M244.005 255.755C241.87 255.8 239.775 255.173 238.016 253.963C235.296 252.028 233.733 248.673 233.547 244.497C233.391 240.763 234.426 237.075 236.503 233.968C239.537 229.685 248.267 224.902 254.478 224.088C257.097 223.745 259.082 224.088 260.381 225.202C263.379 227.7 262.815 233.397 262.209 236.573C261.345 241.092 259.453 245.853 257.39 248.802C255.138 251.786 251.996 253.976 248.417 255.055C246.99 255.507 245.503 255.743 244.005 255.755V255.755ZM237.666 234.796C235.768 237.646 234.826 241.026 234.975 244.447C235.118 248.159 236.496 251.129 238.844 252.799C241.193 254.47 244.441 254.784 248.003 253.692C251.281 252.709 254.161 250.709 256.226 247.981C258.147 245.268 259.996 240.578 260.809 236.309C261.737 231.434 261.252 227.786 259.467 226.315C258.504 225.509 256.84 225.237 254.656 225.523C248.881 226.237 240.465 230.877 237.666 234.803V234.796Z" fill="#093F68"/>
<path d="M257.304 297.75C257.804 299.835 255.734 301.755 253.021 301.755H247.525C246.717 301.794 245.913 301.616 245.198 301.24C244.482 300.863 243.881 300.302 243.456 299.614L240.743 294.51C236.003 296.715 230.838 297.858 225.609 297.858C220.381 297.858 215.216 296.715 210.476 294.51L207.806 299.635C207.381 300.323 206.779 300.884 206.064 301.261C205.348 301.638 204.545 301.816 203.737 301.777H198.24C195.506 301.777 193.436 299.856 193.957 297.772L197.262 283.923C193.255 278.719 190.756 272.513 190.04 265.984C189.324 259.456 190.417 252.855 193.201 246.907C195.985 240.958 200.352 235.889 205.824 232.256C211.296 228.623 217.661 226.565 224.225 226.308C224.689 226.308 225.16 226.308 225.652 226.308C226.145 226.308 226.594 226.308 227.08 226.308C233.643 226.565 240.009 228.623 245.48 232.256C250.952 235.889 255.319 240.958 258.103 246.907C260.887 252.855 261.981 259.456 261.264 265.984C260.548 272.513 258.05 278.719 254.042 283.923L257.304 297.75Z" fill="#5183F2"/>
<path d="M253 302.469H247.503C246.568 302.512 245.639 302.303 244.812 301.863C243.986 301.424 243.293 300.77 242.806 299.971L240.443 295.445C235.777 297.507 230.732 298.571 225.631 298.571C220.529 298.571 215.484 297.507 210.818 295.445L208.463 299.963C207.976 300.765 207.282 301.421 206.454 301.862C205.627 302.303 204.695 302.513 203.758 302.469H198.262C197.451 302.492 196.646 302.334 195.905 302.005C195.164 301.677 194.506 301.186 193.979 300.57C193.637 300.162 193.394 299.68 193.271 299.162C193.147 298.644 193.145 298.105 193.265 297.586L196.484 284.066C192.461 278.744 189.973 272.421 189.291 265.784C188.609 259.148 189.759 252.451 192.615 246.422C195.472 240.393 199.925 235.262 205.493 231.586C211.061 227.91 217.529 225.831 224.196 225.573C225.147 225.517 226.1 225.517 227.051 225.573C233.714 225.838 240.178 227.923 245.74 231.6C251.303 235.278 255.752 240.408 258.606 246.435C261.46 252.462 262.609 259.155 261.929 265.789C261.249 272.423 258.766 278.743 254.749 284.066L257.975 297.586C258.094 298.105 258.091 298.644 257.967 299.162C257.843 299.679 257.602 300.161 257.261 300.57C256.736 301.183 256.081 301.671 255.344 301.999C254.607 302.327 253.806 302.488 253 302.469V302.469ZM240.743 293.796C240.874 293.795 241.003 293.831 241.115 293.899C241.227 293.967 241.318 294.065 241.378 294.181L244.048 299.307C244.419 299.871 244.931 300.328 245.534 300.632C246.136 300.936 246.808 301.077 247.482 301.041H252.978C253.576 301.062 254.171 300.952 254.721 300.717C255.271 300.483 255.763 300.13 256.162 299.685C256.366 299.445 256.51 299.16 256.585 298.854C256.659 298.548 256.661 298.229 256.59 297.922V297.922L253.285 284.073C253.261 283.97 253.26 283.862 253.282 283.759C253.304 283.655 253.349 283.558 253.414 283.473C257.341 278.374 259.789 272.293 260.492 265.895C261.194 259.498 260.123 253.03 257.396 247.2C254.669 241.371 250.391 236.403 245.03 232.842C239.67 229.28 233.432 227.262 227.001 227.008C226.088 226.951 225.173 226.951 224.26 227.008C217.829 227.262 211.592 229.28 206.231 232.842C200.87 236.403 196.592 241.371 193.865 247.2C191.138 253.03 190.067 259.498 190.77 265.895C191.472 272.293 193.921 278.374 197.848 283.473C197.913 283.557 197.96 283.654 197.983 283.758C198.007 283.862 198.007 283.969 197.983 284.073L194.678 297.922C194.605 298.23 194.606 298.551 194.681 298.858C194.755 299.166 194.901 299.452 195.106 299.692C195.504 300.137 195.995 300.489 196.544 300.723C197.093 300.958 197.687 301.069 198.283 301.048H203.78C204.455 301.085 205.128 300.944 205.731 300.64C206.335 300.336 206.848 299.878 207.22 299.314L209.89 294.188C209.976 294.026 210.121 293.902 210.295 293.844C210.469 293.785 210.659 293.796 210.825 293.874C215.471 296.033 220.533 297.151 225.656 297.151C230.779 297.151 235.84 296.033 240.486 293.874C240.565 293.831 240.653 293.804 240.743 293.796Z" fill="#093F68"/>
<path d="M225.631 269.91C233.871 269.91 240.55 266.273 240.55 261.787C240.55 257.3 233.871 253.663 225.631 253.663C217.391 253.663 210.711 257.3 210.711 261.787C210.711 266.273 217.391 269.91 225.631 269.91Z" fill="#5183F2"/>
<path d="M225.631 270.617C216.865 270.617 209.997 266.741 209.997 261.787C209.997 256.832 216.865 252.949 225.631 252.949C234.397 252.949 241.264 256.825 241.264 261.787C241.264 266.748 234.397 270.617 225.631 270.617ZM225.631 254.377C217.935 254.377 211.425 257.768 211.425 261.787C211.425 265.806 217.935 269.189 225.631 269.189C233.326 269.189 239.836 265.798 239.836 261.787C239.836 257.775 233.333 254.377 225.631 254.377Z" fill="#093F68"/>
<path d="M210.461 295.223C210.339 295.223 210.218 295.191 210.112 295.131C209.819 294.966 207.256 293.474 206.485 291.997C206.401 291.827 206.388 291.631 206.448 291.452C206.508 291.273 206.637 291.124 206.807 291.04C206.975 290.956 207.17 290.941 207.35 291C207.529 291.059 207.677 291.186 207.763 291.354C208.177 292.175 209.855 293.346 210.811 293.888C210.976 293.981 211.097 294.136 211.147 294.318C211.198 294.5 211.175 294.694 211.082 294.859C211.02 294.97 210.93 295.061 210.821 295.125C210.712 295.189 210.588 295.223 210.461 295.223Z" fill="#093F68"/>
<path d="M240.807 295.223C240.649 295.224 240.495 295.173 240.369 295.077C240.244 294.981 240.153 294.847 240.113 294.694C240.072 294.541 240.083 294.379 240.144 294.233C240.205 294.088 240.313 293.966 240.45 293.888C241.414 293.346 243.092 292.175 243.506 291.354C243.591 291.186 243.74 291.059 243.919 291C244.098 290.941 244.294 290.956 244.462 291.04C244.632 291.124 244.761 291.273 244.821 291.452C244.881 291.631 244.868 291.827 244.783 291.997C244.07 293.474 241.45 294.966 241.157 295.131C241.05 295.191 240.93 295.223 240.807 295.223Z" fill="#093F68"/>
<path d="M220.477 265.063C222.286 265.063 223.753 263.596 223.753 261.787C223.753 259.977 222.286 258.51 220.477 258.51C218.667 258.51 217.2 259.977 217.2 261.787C217.2 263.596 218.667 265.063 220.477 265.063Z" fill="#093F68"/>
<path d="M230.792 265.063C232.602 265.063 234.069 263.596 234.069 261.787C234.069 259.977 232.602 258.51 230.792 258.51C228.982 258.51 227.515 259.977 227.515 261.787C227.515 263.596 228.982 265.063 230.792 265.063Z" fill="#093F68"/>
<path d="M217.571 249.587C217.382 249.587 217.2 249.512 217.067 249.378C216.933 249.244 216.858 249.062 216.858 248.873C216.858 247.536 216.327 246.254 215.381 245.309C214.436 244.364 213.154 243.833 211.818 243.833C210.481 243.833 209.199 244.364 208.254 245.309C207.309 246.254 206.778 247.536 206.778 248.873C206.778 249.062 206.703 249.244 206.569 249.378C206.435 249.512 206.253 249.587 206.064 249.587C205.875 249.587 205.693 249.512 205.559 249.378C205.425 249.244 205.35 249.062 205.35 248.873C205.35 247.158 206.032 245.513 207.245 244.3C208.457 243.087 210.102 242.406 211.818 242.406C213.533 242.406 215.178 243.087 216.391 244.3C217.604 245.513 218.285 247.158 218.285 248.873C218.285 249.062 218.21 249.244 218.076 249.378C217.942 249.512 217.761 249.587 217.571 249.587Z" fill="#093F68"/>
<path d="M245.205 249.587C245.015 249.587 244.834 249.512 244.7 249.378C244.566 249.244 244.491 249.062 244.491 248.873C244.491 247.536 243.96 246.254 243.015 245.309C242.069 244.364 240.788 243.833 239.451 243.833C238.114 243.833 236.832 244.364 235.887 245.309C234.942 246.254 234.411 247.536 234.411 248.873C234.411 249.062 234.336 249.244 234.202 249.378C234.068 249.512 233.887 249.587 233.697 249.587C233.508 249.587 233.326 249.512 233.192 249.378C233.059 249.244 232.983 249.062 232.983 248.873C232.983 247.158 233.665 245.513 234.878 244.3C236.091 243.087 237.736 242.406 239.451 242.406C241.166 242.406 242.811 243.087 244.024 244.3C245.237 245.513 245.918 247.158 245.918 248.873C245.918 249.062 245.843 249.244 245.709 249.378C245.575 249.512 245.394 249.587 245.205 249.587Z" fill="#093F68"/>
<path d="M227.037 226.287V234.489H224.224V226.287C224.688 226.287 225.16 226.287 225.652 226.287C226.145 226.287 226.573 226.258 227.037 226.287Z" fill="#093F68"/>
<path d="M227.037 235.203H224.224C224.035 235.203 223.854 235.128 223.72 234.994C223.586 234.86 223.511 234.678 223.511 234.489V226.287C223.51 226.105 223.58 225.929 223.704 225.797C223.829 225.664 224 225.584 224.182 225.573C225.147 225.516 226.115 225.516 227.08 225.573C227.262 225.584 227.432 225.664 227.557 225.797C227.682 225.929 227.751 226.105 227.751 226.287V234.489C227.751 234.678 227.676 234.86 227.542 234.994C227.408 235.128 227.226 235.203 227.037 235.203ZM224.938 233.775H226.323V226.972H224.938V233.775Z" fill="#093F68"/>
<path d="M226.587 206.948H225.217V221.939H226.587C228.495 221.822 230.286 220.981 231.596 219.588C232.905 218.195 233.634 216.356 233.634 214.444C233.634 212.532 232.905 210.693 231.596 209.3C230.286 207.907 228.495 207.066 226.587 206.948V206.948Z" fill="#FFBC0E"/>
<path d="M226.587 222.675H225.217C225.027 222.675 224.846 222.599 224.712 222.465C224.578 222.332 224.503 222.15 224.503 221.961V206.97C224.503 206.781 224.578 206.599 224.712 206.465C224.846 206.331 225.027 206.256 225.217 206.256H226.587C228.681 206.38 230.648 207.298 232.087 208.824C233.525 210.35 234.326 212.368 234.326 214.465C234.326 216.562 233.525 218.58 232.087 220.106C230.648 221.632 228.681 222.551 226.587 222.675V222.675ZM225.931 221.247H226.587C228.31 221.135 229.925 220.372 231.106 219.112C232.286 217.853 232.943 216.191 232.943 214.465C232.943 212.739 232.286 211.078 231.106 209.818C229.925 208.559 228.31 207.796 226.587 207.684H225.931V221.247Z" fill="#093F68"/>
<path d="M224.674 221.954C228.818 221.954 232.177 218.595 232.177 214.451C232.177 210.308 228.818 206.948 224.674 206.948C220.531 206.948 217.172 210.308 217.172 214.451C217.172 218.595 220.531 221.954 224.674 221.954Z" fill="#FFBC0E"/>
<path d="M224.674 222.675C223.047 222.676 221.457 222.195 220.103 221.292C218.75 220.389 217.695 219.106 217.072 217.603C216.448 216.101 216.284 214.447 216.601 212.851C216.917 211.255 217.7 209.789 218.85 208.639C219.999 207.488 221.465 206.704 223.06 206.386C224.656 206.068 226.309 206.231 227.812 206.853C229.316 207.475 230.6 208.529 231.504 209.882C232.408 211.234 232.891 212.824 232.891 214.451C232.889 216.63 232.023 218.72 230.482 220.261C228.942 221.803 226.853 222.671 224.674 222.675V222.675ZM224.674 207.684C223.33 207.684 222.016 208.083 220.898 208.83C219.78 209.577 218.909 210.638 218.395 211.881C217.881 213.123 217.747 214.49 218.009 215.808C218.272 217.127 218.92 218.337 219.871 219.288C220.822 220.238 222.034 220.884 223.353 221.146C224.672 221.407 226.038 221.272 227.28 220.756C228.521 220.241 229.582 219.369 230.328 218.25C231.074 217.132 231.471 215.817 231.47 214.473C231.471 213.579 231.296 212.694 230.955 211.869C230.614 211.043 230.114 210.292 229.483 209.66C228.851 209.028 228.102 208.526 227.277 208.183C226.452 207.84 225.568 207.663 224.674 207.662V207.684Z" fill="#093F68"/>
<path d="M236.931 181.714H235.553V196.705H236.931C238.862 196.62 240.687 195.794 242.023 194.397C243.36 193.001 244.106 191.142 244.106 189.209C244.106 187.276 243.36 185.418 242.023 184.021C240.687 182.625 238.862 181.798 236.931 181.714V181.714Z" fill="#FFBC0E"/>
<path d="M236.931 197.433H235.553C235.364 197.433 235.182 197.358 235.049 197.224C234.915 197.09 234.839 196.908 234.839 196.719V181.728C234.839 181.539 234.915 181.357 235.049 181.223C235.182 181.089 235.364 181.014 235.553 181.014H236.931C239.049 181.103 241.051 182.006 242.518 183.536C243.986 185.066 244.805 187.104 244.805 189.224C244.805 191.343 243.986 193.381 242.518 194.911C241.051 196.441 239.049 197.345 236.931 197.433V197.433ZM236.267 196.005H236.931C238.676 195.925 240.323 195.176 241.529 193.913C242.735 192.65 243.409 190.97 243.409 189.224C243.409 187.477 242.735 185.798 241.529 184.535C240.323 183.272 238.676 182.522 236.931 182.442H236.267V196.005Z" fill="#093F68"/>
<path d="M235.018 196.719C239.162 196.719 242.521 193.36 242.521 189.216C242.521 185.073 239.162 181.714 235.018 181.714C230.874 181.714 227.515 185.073 227.515 189.216C227.515 193.36 230.874 196.719 235.018 196.719Z" fill="#FFBC0E"/>
<path d="M235.032 197.433C233.407 197.433 231.819 196.951 230.467 196.048C229.116 195.145 228.063 193.862 227.441 192.361C226.819 190.859 226.657 189.207 226.974 187.613C227.291 186.02 228.073 184.556 229.222 183.407C230.371 182.257 231.835 181.475 233.429 181.158C235.023 180.841 236.675 181.004 238.177 181.625C239.678 182.247 240.961 183.3 241.864 184.652C242.767 186.003 243.249 187.591 243.249 189.216C243.247 191.395 242.381 193.484 240.84 195.024C239.3 196.565 237.211 197.431 235.032 197.433V197.433ZM235.032 182.442C233.69 182.442 232.377 182.84 231.261 183.586C230.144 184.332 229.274 185.392 228.76 186.633C228.246 187.873 228.112 189.238 228.374 190.555C228.636 191.872 229.282 193.082 230.232 194.031C231.181 194.98 232.391 195.627 233.708 195.889C235.025 196.151 236.39 196.016 237.63 195.503C238.871 194.989 239.931 194.119 240.677 193.002C241.423 191.886 241.821 190.573 241.821 189.231C241.822 188.338 241.647 187.454 241.306 186.63C240.966 185.805 240.466 185.055 239.836 184.423C239.205 183.792 238.456 183.29 237.632 182.948C236.808 182.605 235.925 182.429 235.032 182.428V182.442Z" fill="#093F68"/>
<path d="M211.668 189.566L210.568 190.387L219.556 202.408L220.655 201.587C221.445 200.997 222.11 200.257 222.613 199.41C223.117 198.563 223.448 197.625 223.589 196.649C223.73 195.674 223.677 194.68 223.434 193.725C223.191 192.77 222.762 191.872 222.172 191.083C221.582 190.294 220.842 189.628 219.995 189.125C219.148 188.622 218.21 188.29 217.234 188.149C216.259 188.008 215.265 188.061 214.31 188.304C213.355 188.547 212.457 188.976 211.668 189.566V189.566Z" fill="#FFBC0E"/>
<path d="M219.556 203.122C219.445 203.122 219.336 203.096 219.237 203.047C219.137 202.997 219.051 202.925 218.985 202.837L209.997 190.815C209.941 190.74 209.9 190.655 209.877 190.564C209.854 190.474 209.849 190.379 209.862 190.286C209.875 190.193 209.906 190.104 209.954 190.023C210.002 189.943 210.065 189.872 210.14 189.816L211.239 188.995C212.104 188.349 213.087 187.879 214.133 187.613C215.179 187.346 216.267 187.288 217.335 187.443C218.403 187.597 219.431 187.96 220.359 188.511C221.287 189.062 222.097 189.791 222.743 190.655C223.39 191.519 223.859 192.502 224.126 193.548C224.392 194.594 224.45 195.682 224.296 196.75C224.142 197.819 223.779 198.846 223.228 199.774C222.676 200.702 221.948 201.512 221.083 202.159L219.984 202.979C219.861 203.072 219.71 203.122 219.556 203.122ZM211.568 190.53L219.699 201.409L220.227 201.016C221.67 199.938 222.625 198.331 222.882 196.549C223.14 194.766 222.679 192.954 221.601 191.511C220.523 190.069 218.916 189.114 217.133 188.856C215.351 188.598 213.539 189.059 212.096 190.137L211.568 190.53Z" fill="#093F68"/>
<path d="M214.63 204.222C218.774 204.222 222.133 200.863 222.133 196.719C222.133 192.575 218.774 189.216 214.63 189.216C210.487 189.216 207.128 192.575 207.128 196.719C207.128 200.863 210.487 204.222 214.63 204.222Z" fill="#FFBC0E"/>
<path d="M214.645 204.943C214.246 204.942 213.847 204.914 213.453 204.857C212.116 204.662 210.848 204.141 209.761 203.34C208.674 202.539 207.801 201.482 207.22 200.263C206.638 199.044 206.366 197.701 206.428 196.352C206.489 195.002 206.883 193.689 207.573 192.528C208.263 191.367 209.228 190.394 210.384 189.695C211.539 188.997 212.849 188.593 214.198 188.521C215.547 188.449 216.892 188.711 218.116 189.283C219.339 189.855 220.403 190.72 221.212 191.801V191.801C222.515 193.547 223.071 195.739 222.759 197.895C222.447 200.051 221.293 201.995 219.549 203.301C218.137 204.368 216.415 204.944 214.645 204.943V204.943ZM214.645 189.952C213.114 189.946 211.626 190.457 210.422 191.403C209.219 192.35 208.37 193.675 208.015 195.164C207.659 196.653 207.818 198.219 208.464 199.607C209.11 200.994 210.207 202.123 211.575 202.809C212.944 203.495 214.504 203.699 216.003 203.386C217.502 203.074 218.851 202.264 219.832 201.088C220.812 199.912 221.366 198.44 221.405 196.909C221.443 195.379 220.962 193.88 220.041 192.657V192.657C219.51 191.94 218.841 191.337 218.074 190.881C217.307 190.425 216.456 190.126 215.573 190.002C215.256 189.954 214.936 189.931 214.616 189.93L214.645 189.952Z" fill="#093F68"/>
<path d="M203.152 231.084C203.051 231.085 202.951 231.064 202.859 231.023C202.766 230.983 202.684 230.923 202.616 230.848C199.761 227.672 194.507 228.421 194.457 228.428C194.363 228.442 194.268 228.438 194.176 228.415C194.084 228.392 193.997 228.351 193.921 228.295C193.844 228.239 193.78 228.168 193.731 228.087C193.682 228.005 193.65 227.915 193.636 227.822C193.622 227.728 193.626 227.632 193.649 227.54C193.672 227.448 193.713 227.362 193.769 227.285C193.826 227.209 193.896 227.145 193.978 227.096C194.059 227.047 194.149 227.015 194.243 227.001C194.493 227.001 200.332 226.123 203.68 229.856C203.77 229.959 203.829 230.085 203.849 230.22C203.87 230.355 203.851 230.493 203.796 230.618C203.74 230.743 203.65 230.849 203.536 230.924C203.421 230.999 203.288 231.039 203.152 231.041V231.084Z" fill="#093F68"/>
<path d="M248.117 231.084C248.009 231.084 247.901 231.06 247.804 231.013C247.706 230.966 247.62 230.898 247.553 230.813C247.437 230.664 247.385 230.475 247.408 230.288C247.43 230.101 247.526 229.93 247.674 229.813C253.05 225.53 256.883 226.901 257.04 226.958C257.213 227.026 257.353 227.159 257.429 227.328C257.506 227.498 257.513 227.69 257.45 227.865C257.387 228.04 257.258 228.183 257.091 228.264C256.923 228.345 256.731 228.358 256.555 228.3C256.405 228.25 253.25 227.229 248.56 230.934C248.433 231.032 248.277 231.085 248.117 231.084V231.084Z" fill="#093F68"/>
<path d="M210.461 270.667C210.461 270.667 211.575 276.164 217.2 275.428Z" fill="#5183F2"/>
<path d="M216.201 276.206C212.003 276.206 210.162 272.773 209.776 270.81C209.738 270.62 209.777 270.424 209.884 270.263C209.991 270.102 210.158 269.991 210.347 269.953C210.537 269.915 210.733 269.954 210.894 270.061C211.054 270.168 211.166 270.335 211.204 270.524V270.524C211.247 270.724 212.253 275.357 217.15 274.714C217.34 274.69 217.531 274.741 217.682 274.858C217.833 274.974 217.932 275.146 217.957 275.336C217.981 275.525 217.93 275.716 217.813 275.867C217.697 276.019 217.525 276.118 217.336 276.142C216.959 276.189 216.58 276.21 216.201 276.206V276.206Z" fill="#093F68"/>
<path d="M210.711 267.754C210.711 267.754 211.746 269.46 208.791 271.267Z" fill="#68E1FD"/>
<path d="M208.791 271.98C208.67 271.981 208.55 271.95 208.444 271.891C208.338 271.833 208.248 271.748 208.184 271.645C208.135 271.565 208.101 271.476 208.086 271.383C208.072 271.29 208.075 271.195 208.097 271.103C208.119 271.012 208.159 270.925 208.214 270.849C208.269 270.773 208.339 270.709 208.42 270.66C210.676 269.275 210.119 268.154 210.09 268.104C210 267.939 209.979 267.746 210.032 267.565C210.084 267.385 210.205 267.232 210.369 267.14C210.529 267.05 210.717 267.025 210.896 267.07C211.074 267.115 211.228 267.227 211.325 267.383C211.325 267.383 212.681 269.725 209.184 271.88C209.065 271.951 208.929 271.986 208.791 271.98Z" fill="#093F68"/>
<path d="M279.741 295.923H264.007C263.29 295.923 262.708 296.505 262.708 297.222V300.456C262.708 301.173 263.29 301.755 264.007 301.755H279.741C280.458 301.755 281.04 301.173 281.04 300.456V297.222C281.04 296.505 280.458 295.923 279.741 295.923Z" fill="#FFBC0E"/>
<path d="M279.748 302.469H264.043C263.779 302.47 263.517 302.419 263.273 302.318C263.029 302.218 262.807 302.07 262.62 301.884C262.433 301.698 262.285 301.476 262.183 301.232C262.082 300.989 262.03 300.727 262.03 300.463V297.222C262.03 296.688 262.242 296.176 262.62 295.799C262.997 295.421 263.509 295.209 264.043 295.209H279.748C280.012 295.209 280.273 295.261 280.517 295.362C280.761 295.464 280.982 295.612 281.169 295.799C281.355 295.986 281.503 296.208 281.603 296.452C281.703 296.697 281.755 296.958 281.754 297.222V300.463C281.754 300.995 281.542 301.505 281.166 301.881C280.79 302.258 280.28 302.469 279.748 302.469ZM264.043 296.637C263.888 296.637 263.739 296.698 263.629 296.808C263.519 296.918 263.458 297.067 263.458 297.222V300.463C263.46 300.617 263.522 300.764 263.632 300.872C263.741 300.981 263.889 301.041 264.043 301.041H279.748C279.901 301.041 280.048 300.98 280.157 300.872C280.265 300.763 280.326 300.616 280.326 300.463V297.222C280.326 297.068 280.265 296.92 280.157 296.811C280.049 296.701 279.902 296.639 279.748 296.637H264.043Z" fill="#093F68"/>
<path d="M281.754 289.862H266.02C265.303 289.862 264.721 290.444 264.721 291.162V294.395C264.721 295.113 265.303 295.694 266.02 295.694H281.754C282.471 295.694 283.053 295.113 283.053 294.395V291.162C283.053 290.444 282.471 289.862 281.754 289.862Z" fill="#FFBC0E"/>
<path d="M281.761 296.408H266.056C265.522 296.408 265.01 296.196 264.633 295.819C264.255 295.441 264.043 294.929 264.043 294.395V291.154C264.045 290.622 264.258 290.112 264.635 289.736C265.013 289.36 265.523 289.148 266.056 289.148H281.761C282.293 289.148 282.803 289.36 283.179 289.736C283.555 290.112 283.767 290.622 283.767 291.154V294.395C283.768 294.659 283.717 294.921 283.616 295.165C283.516 295.409 283.368 295.631 283.182 295.818C282.995 296.005 282.774 296.154 282.53 296.255C282.286 296.356 282.025 296.408 281.761 296.408V296.408ZM266.056 290.576C265.902 290.576 265.754 290.637 265.645 290.745C265.535 290.853 265.473 291 265.471 291.154V294.395C265.471 294.55 265.532 294.699 265.642 294.809C265.752 294.919 265.901 294.981 266.056 294.981H281.761C281.915 294.979 282.062 294.916 282.17 294.807C282.278 294.697 282.339 294.549 282.339 294.395V291.154C282.339 291.001 282.278 290.854 282.17 290.745C282.061 290.637 281.914 290.576 281.761 290.576H266.056Z" fill="#093F68"/>
<path d="M277.521 284.03H261.787C261.07 284.03 260.488 284.612 260.488 285.329V288.563C260.488 289.281 261.07 289.862 261.787 289.862H277.521C278.238 289.862 278.82 289.281 278.82 288.563V285.329C278.82 284.612 278.238 284.03 277.521 284.03Z" fill="#FFBC0E"/>
<path d="M277.528 290.576H261.823C261.289 290.576 260.777 290.364 260.4 289.987C260.022 289.609 259.81 289.097 259.81 288.563V285.322C259.81 285.058 259.862 284.797 259.963 284.553C260.065 284.309 260.213 284.088 260.4 283.901C260.587 283.715 260.809 283.567 261.053 283.467C261.297 283.367 261.559 283.315 261.823 283.316H277.528C278.06 283.316 278.57 283.528 278.946 283.904C279.322 284.28 279.534 284.79 279.534 285.322V288.563C279.534 289.096 279.323 289.607 278.947 289.984C278.571 290.361 278.06 290.574 277.528 290.576V290.576ZM261.823 284.744C261.669 284.744 261.521 284.805 261.412 284.913C261.302 285.021 261.24 285.168 261.238 285.322V288.563C261.238 288.718 261.299 288.867 261.409 288.977C261.519 289.087 261.668 289.149 261.823 289.149H277.528C277.682 289.147 277.829 289.084 277.937 288.975C278.045 288.865 278.106 288.717 278.106 288.563V285.322C278.106 285.169 278.045 285.022 277.937 284.913C277.828 284.805 277.681 284.744 277.528 284.744H261.823Z" fill="#093F68"/>
<path d="M279.741 278.198H264.007C263.29 278.198 262.708 278.78 262.708 279.497V282.731C262.708 283.448 263.29 284.03 264.007 284.03H279.741C280.458 284.03 281.04 283.448 281.04 282.731V279.497C281.04 278.78 280.458 278.198 279.741 278.198Z" fill="#FFBC0E"/>
<path d="M279.748 284.744H264.043C263.509 284.744 262.997 284.532 262.62 284.154C262.242 283.777 262.03 283.265 262.03 282.731V279.49C262.03 279.226 262.082 278.965 262.183 278.721C262.285 278.477 262.433 278.255 262.62 278.069C262.807 277.883 263.029 277.735 263.273 277.635C263.517 277.534 263.779 277.483 264.043 277.484H279.748C280.28 277.484 280.79 277.695 281.166 278.072C281.542 278.448 281.754 278.958 281.754 279.49V282.731C281.754 283.264 281.543 283.775 281.167 284.152C280.791 284.529 280.28 284.742 279.748 284.744V284.744ZM264.043 278.912C263.889 278.912 263.741 278.973 263.632 279.081C263.522 279.189 263.46 279.336 263.458 279.49V282.731C263.458 282.886 263.519 283.035 263.629 283.145C263.739 283.255 263.888 283.316 264.043 283.316H279.748C279.902 283.314 280.049 283.252 280.157 283.142C280.265 283.033 280.326 282.885 280.326 282.731V279.49C280.326 279.337 280.265 279.19 280.157 279.081C280.048 278.973 279.901 278.912 279.748 278.912H264.043Z" fill="#093F68"/>
<path d="M281.754 272.509H266.02C265.303 272.509 264.721 273.09 264.721 273.808V277.042C264.721 277.759 265.303 278.341 266.02 278.341H281.754C282.471 278.341 283.053 277.759 283.053 277.042V273.808C283.053 273.09 282.471 272.509 281.754 272.509Z" fill="#FFBC0E"/>
<path d="M281.761 279.055H266.056C265.523 279.055 265.013 278.844 264.635 278.468C264.258 278.092 264.045 277.581 264.043 277.049V273.808C264.043 273.274 264.255 272.762 264.633 272.384C265.01 272.007 265.522 271.795 266.056 271.795H281.761C282.025 271.795 282.286 271.847 282.53 271.948C282.774 272.049 282.995 272.198 283.182 272.385C283.368 272.572 283.516 272.794 283.616 273.038C283.717 273.282 283.768 273.544 283.767 273.808V277.049C283.767 277.581 283.555 278.091 283.179 278.467C282.803 278.843 282.293 279.055 281.761 279.055V279.055ZM266.056 273.223C265.901 273.223 265.752 273.284 265.642 273.394C265.532 273.504 265.471 273.653 265.471 273.808V277.049C265.473 277.203 265.535 277.35 265.645 277.458C265.754 277.566 265.902 277.627 266.056 277.627H281.761C281.914 277.627 282.061 277.566 282.17 277.458C282.278 277.349 282.339 277.202 282.339 277.049V273.808C282.339 273.654 282.278 273.506 282.17 273.396C282.062 273.287 281.915 273.224 281.761 273.223H266.056Z" fill="#093F68"/>
<path d="M187.111 295.923H171.378C170.661 295.923 170.079 296.505 170.079 297.222V300.456C170.079 301.173 170.661 301.755 171.378 301.755H187.111C187.829 301.755 188.411 301.173 188.411 300.456V297.222C188.411 296.505 187.829 295.923 187.111 295.923Z" fill="#FFBC0E"/>
<path d="M187.119 302.469H171.414C170.881 302.469 170.37 302.258 169.993 301.882C169.616 301.506 169.403 300.996 169.401 300.463V297.222C169.401 296.688 169.613 296.176 169.99 295.799C170.368 295.421 170.88 295.209 171.414 295.209H187.119C187.652 295.209 188.164 295.421 188.542 295.799C188.92 296.176 189.132 296.688 189.132 297.222V300.463C189.13 300.996 188.917 301.506 188.539 301.882C188.162 302.258 187.651 302.469 187.119 302.469V302.469ZM171.414 296.637C171.259 296.637 171.11 296.698 171 296.808C170.89 296.918 170.828 297.067 170.828 297.222V300.463C170.83 300.617 170.893 300.764 171.002 300.872C171.112 300.981 171.26 301.041 171.414 301.041H187.119C187.273 301.041 187.42 300.981 187.53 300.872C187.64 300.764 187.702 300.617 187.704 300.463V297.222C187.704 297.067 187.642 296.918 187.532 296.808C187.423 296.698 187.274 296.637 187.119 296.637H171.414Z" fill="#093F68"/>
<path d="M184.056 289.862H168.323C167.605 289.862 167.024 290.444 167.024 291.162V294.395C167.024 295.113 167.605 295.694 168.323 295.694H184.056C184.774 295.694 185.355 295.113 185.355 294.395V291.162C185.355 290.444 184.774 289.862 184.056 289.862Z" fill="#FFBC0E"/>
<path d="M184.056 296.408H168.351C168.087 296.408 167.826 296.356 167.582 296.255C167.338 296.154 167.117 296.005 166.93 295.818C166.744 295.631 166.596 295.409 166.496 295.165C166.396 294.921 166.345 294.659 166.345 294.395V291.154C166.345 290.622 166.557 290.112 166.933 289.736C167.309 289.36 167.819 289.148 168.351 289.148H184.056C184.589 289.148 185.1 289.36 185.477 289.736C185.854 290.112 186.067 290.622 186.069 291.154V294.395C186.069 294.929 185.857 295.441 185.48 295.819C185.102 296.196 184.59 296.408 184.056 296.408V296.408ZM168.351 290.576C168.198 290.576 168.051 290.637 167.943 290.745C167.834 290.854 167.773 291.001 167.773 291.154V294.395C167.773 294.549 167.834 294.697 167.942 294.807C168.05 294.916 168.197 294.979 168.351 294.981H184.056C184.211 294.981 184.36 294.919 184.47 294.809C184.58 294.699 184.641 294.55 184.641 294.395V291.154C184.64 291 184.577 290.853 184.468 290.745C184.358 290.637 184.21 290.576 184.056 290.576H168.351Z" fill="#093F68"/>
<path d="M188.596 284.03H172.863C172.145 284.03 171.564 284.612 171.564 285.329V288.563C171.564 289.281 172.145 289.862 172.863 289.862H188.596C189.314 289.862 189.895 289.281 189.895 288.563V285.329C189.895 284.612 189.314 284.03 188.596 284.03Z" fill="#FFBC0E"/>
<path d="M188.632 290.576H172.927C172.394 290.574 171.884 290.361 171.508 289.984C171.132 289.607 170.921 289.096 170.921 288.563V285.322C170.921 284.79 171.132 284.28 171.509 283.904C171.885 283.528 172.395 283.316 172.927 283.316H188.632C188.896 283.315 189.157 283.367 189.402 283.467C189.646 283.567 189.868 283.715 190.055 283.901C190.242 284.088 190.39 284.309 190.491 284.553C190.593 284.797 190.645 285.058 190.645 285.322V288.563C190.645 289.097 190.433 289.609 190.055 289.987C189.678 290.364 189.166 290.576 188.632 290.576V290.576ZM172.927 284.744C172.774 284.744 172.627 284.805 172.518 284.913C172.41 285.022 172.349 285.169 172.349 285.322V288.563C172.349 288.717 172.41 288.865 172.518 288.975C172.626 289.084 172.773 289.147 172.927 289.149H188.632C188.787 289.149 188.936 289.087 189.046 288.977C189.155 288.867 189.217 288.718 189.217 288.563V285.322C189.215 285.168 189.153 285.021 189.043 284.913C188.934 284.805 188.786 284.744 188.632 284.744H172.927Z" fill="#093F68"/>
<path d="M175.511 238.479C175.356 238.488 175.203 238.446 175.074 238.36C174.946 238.273 174.848 238.147 174.797 238.001L173.548 234.325C173.511 234.234 173.492 234.137 173.493 234.04C173.495 233.942 173.517 233.845 173.557 233.756C173.597 233.667 173.655 233.587 173.728 233.522C173.8 233.456 173.886 233.406 173.978 233.374C174.071 233.343 174.169 233.331 174.267 233.339C174.364 233.347 174.459 233.375 174.545 233.422C174.631 233.468 174.707 233.531 174.767 233.608C174.828 233.685 174.872 233.773 174.897 233.868L176.147 237.537C176.208 237.716 176.196 237.912 176.113 238.082C176.03 238.252 175.883 238.382 175.704 238.444C175.642 238.465 175.577 238.477 175.511 238.479V238.479Z" fill="#DFEAEF"/>
<path d="M178.117 246.139C177.961 246.147 177.807 246.104 177.678 246.016C177.549 245.929 177.453 245.801 177.403 245.653L176.154 241.984C176.1 241.807 176.117 241.617 176.201 241.452C176.285 241.288 176.43 241.162 176.605 241.102C176.779 241.042 176.971 241.052 177.138 241.13C177.306 241.208 177.436 241.348 177.503 241.52L178.752 245.189C178.814 245.368 178.801 245.564 178.718 245.734C178.636 245.904 178.488 246.034 178.31 246.096C178.248 246.119 178.183 246.134 178.117 246.139Z" fill="#DFEAEF"/>
<path d="M178.181 239.793C178.014 239.789 177.854 239.728 177.728 239.619C177.602 239.509 177.519 239.36 177.491 239.195C177.464 239.031 177.496 238.862 177.58 238.718C177.664 238.574 177.796 238.465 177.953 238.408L181.622 237.159C181.801 237.097 181.997 237.109 182.167 237.192C182.337 237.275 182.467 237.422 182.528 237.601C182.559 237.69 182.571 237.784 182.565 237.878C182.559 237.972 182.534 238.064 182.492 238.148C182.45 238.232 182.392 238.307 182.321 238.369C182.25 238.431 182.168 238.478 182.079 238.508L178.41 239.757C178.336 239.782 178.259 239.794 178.181 239.793V239.793Z" fill="#DFEAEF"/>
<path d="M170.521 242.398C170.355 242.395 170.195 242.333 170.069 242.224C169.943 242.115 169.859 241.965 169.832 241.801C169.805 241.636 169.836 241.468 169.92 241.324C170.004 241.18 170.136 241.07 170.293 241.013L173.962 239.764C174.139 239.711 174.33 239.728 174.494 239.812C174.659 239.896 174.784 240.04 174.844 240.215C174.905 240.39 174.895 240.581 174.817 240.749C174.739 240.916 174.599 241.047 174.426 241.113L170.786 242.363C170.701 242.391 170.611 242.403 170.521 242.398Z" fill="#DFEAEF"/>
<path d="M170.993 263.864C170.886 263.865 170.781 263.84 170.686 263.792C170.516 263.711 170.385 263.565 170.322 263.387C170.259 263.209 170.269 263.013 170.35 262.843L172.028 259.345C172.117 259.188 172.262 259.071 172.434 259.017C172.607 258.963 172.793 258.976 172.956 259.054C173.119 259.132 173.246 259.268 173.312 259.436C173.378 259.604 173.379 259.791 173.313 259.959L171.635 263.457C171.577 263.578 171.486 263.681 171.372 263.753C171.259 263.825 171.127 263.863 170.993 263.864Z" fill="#DFEAEF"/>
<path d="M167.495 271.167C167.388 271.167 167.283 271.143 167.188 271.095C167.018 271.013 166.887 270.868 166.824 270.69C166.761 270.512 166.771 270.316 166.852 270.146L168.53 266.648C168.611 266.478 168.757 266.347 168.935 266.284C169.113 266.221 169.309 266.231 169.479 266.312C169.564 266.353 169.64 266.41 169.703 266.48C169.766 266.55 169.815 266.632 169.846 266.721C169.877 266.81 169.891 266.904 169.885 266.998C169.88 267.092 169.856 267.184 169.815 267.269L168.137 270.76C168.079 270.881 167.988 270.984 167.875 271.056C167.761 271.128 167.629 271.166 167.495 271.167Z" fill="#DFEAEF"/>
<path d="M175.476 268.361C175.369 268.362 175.264 268.338 175.169 268.29L171.671 266.612C171.514 266.523 171.397 266.378 171.343 266.205C171.289 266.033 171.302 265.847 171.38 265.684C171.457 265.521 171.594 265.394 171.762 265.328C171.93 265.261 172.117 265.261 172.285 265.327L175.782 267.005C175.928 267.075 176.045 267.192 176.115 267.338C176.185 267.483 176.203 267.648 176.168 267.805C176.132 267.962 176.044 268.103 175.919 268.204C175.793 268.305 175.637 268.36 175.476 268.361V268.361Z" fill="#DFEAEF"/>
<path d="M168.187 264.863C168.078 264.864 167.971 264.839 167.873 264.792L164.361 263.15C164.204 263.061 164.087 262.915 164.033 262.743C163.979 262.571 163.992 262.385 164.07 262.222C164.148 262.059 164.284 261.932 164.452 261.865C164.62 261.799 164.807 261.799 164.975 261.865L168.473 263.543C168.618 263.613 168.735 263.73 168.805 263.875C168.875 264.021 168.893 264.185 168.858 264.343C168.822 264.5 168.734 264.641 168.609 264.742C168.483 264.843 168.327 264.898 168.166 264.899L168.187 264.863Z" fill="#DFEAEF"/>
<path d="M279.691 247.645C279.59 247.645 279.49 247.623 279.398 247.581C279.313 247.542 279.236 247.486 279.172 247.417C279.108 247.348 279.058 247.267 279.026 247.179C278.993 247.091 278.979 246.997 278.983 246.903C278.986 246.809 279.009 246.717 279.048 246.632L280.654 243.105C280.693 243.02 280.749 242.943 280.817 242.879C280.886 242.815 280.966 242.765 281.054 242.733C281.142 242.7 281.235 242.685 281.329 242.688C281.423 242.691 281.515 242.713 281.6 242.752C281.686 242.791 281.762 242.846 281.826 242.915C281.89 242.983 281.94 243.064 281.973 243.151C282.006 243.239 282.021 243.333 282.018 243.426C282.014 243.52 281.993 243.612 281.954 243.698L280.348 247.224C280.291 247.35 280.198 247.457 280.082 247.532C279.965 247.607 279.829 247.646 279.691 247.645Z" fill="#DFEAEF"/>
<path d="M276.343 254.998C276.239 255.001 276.136 254.979 276.043 254.934C275.872 254.854 275.74 254.711 275.674 254.534C275.609 254.358 275.615 254.163 275.693 253.991L277.299 250.465C277.338 250.38 277.393 250.303 277.462 250.239C277.531 250.175 277.611 250.125 277.699 250.092C277.787 250.059 277.88 250.044 277.974 250.048C278.068 250.051 278.16 250.073 278.245 250.111C278.33 250.15 278.407 250.206 278.471 250.274C278.535 250.343 278.585 250.423 278.618 250.511C278.65 250.599 278.666 250.692 278.662 250.786C278.659 250.88 278.637 250.972 278.598 251.057L276.992 254.584C276.935 254.708 276.843 254.813 276.728 254.886C276.613 254.959 276.479 254.998 276.343 254.998Z" fill="#DFEAEF"/>
<path d="M284.288 252.042C284.184 252.043 284.081 252.018 283.988 251.971L280.462 250.365C280.376 250.326 280.3 250.271 280.236 250.202C280.172 250.134 280.122 250.053 280.089 249.965C280.056 249.877 280.041 249.784 280.044 249.69C280.048 249.597 280.069 249.504 280.108 249.419C280.147 249.334 280.203 249.257 280.271 249.193C280.34 249.129 280.42 249.079 280.508 249.046C280.596 249.014 280.689 248.998 280.783 249.002C280.877 249.005 280.969 249.027 281.054 249.066L284.581 250.679C284.753 250.757 284.887 250.9 284.954 251.076C285.021 251.253 285.015 251.449 284.938 251.621C284.881 251.747 284.79 251.853 284.675 251.928C284.56 252.002 284.425 252.042 284.288 252.042V252.042Z" fill="#DFEAEF"/>
<path d="M276.907 248.687C276.806 248.687 276.706 248.665 276.614 248.623L273.08 247.01C272.908 246.931 272.774 246.787 272.708 246.61C272.642 246.433 272.649 246.236 272.727 246.064C272.806 245.892 272.949 245.758 273.127 245.691C273.304 245.625 273.501 245.632 273.673 245.711L277.206 247.324C277.355 247.392 277.476 247.508 277.549 247.654C277.622 247.801 277.643 247.967 277.608 248.127C277.573 248.286 277.484 248.429 277.356 248.531C277.229 248.633 277.07 248.688 276.907 248.687V248.687Z" fill="#DFEAEF"/>
</svg>
