<svg width="479" height="479" viewBox="0 0 479 479" fill="none" xmlns="http://www.w3.org/2000/svg">
<path d="M333.817 397.953L403.906 364.849C419.362 357.045 438.215 362.766 446.729 377.836L304.265 469.993C285.163 478.807 263.728 481.233 243.139 476.911L144.883 449.334C135.842 446.799 126.166 447.855 117.886 452.29L97.3403 463.284L100.106 363.071L100.925 363.09C130.285 342.228 168.845 339.529 200.826 356.101L206.708 359.147C215.904 363.909 226.056 366.534 236.411 366.815L294.172 368.41C312.296 368.905 328.162 380.726 333.817 397.953V397.953Z" fill="#F7CAA5"/>
<path d="M353.048 222.151C353.048 281.71 304.765 329.994 245.206 329.994C185.647 329.994 137.367 281.71 137.367 222.151C137.367 162.592 185.647 114.309 245.206 114.309C304.765 114.309 353.048 162.592 353.048 222.151V222.151Z" fill="#4370D2"/>
<path d="M335.934 420.519H335.716L240.775 417.902C236.364 417.782 232.889 414.108 233.01 409.701C233.131 405.289 236.805 401.814 241.212 401.935L327.257 404.307C326.991 403.004 326.648 401.721 326.231 400.457C321.613 386.44 308.708 376.819 293.954 376.397L236.189 374.798C224.637 374.471 213.303 371.542 203.034 366.238L197.156 363.195C167.847 347.919 132.445 350.395 105.55 369.603C101.954 372.158 96.9659 371.312 94.4113 367.716C91.8567 364.12 92.7031 359.131 96.299 356.577C128.066 333.894 169.883 330.969 204.5 349.011L210.382 352.053C218.509 356.253 227.48 358.566 236.626 358.831L294.39 360.426C307.9 360.789 320.712 366.507 330.002 376.323C339.292 386.136 344.3 399.244 343.918 412.75C343.801 417.08 340.26 420.523 335.931 420.519H335.934Z" fill="#EDB288"/>
<path d="M245.206 91.8558C240.795 91.8558 237.218 88.2794 237.218 83.8683V7.98746C237.218 3.57642 240.795 0 245.206 0C249.617 0 253.193 3.57642 253.193 7.98746V83.8683C253.193 88.2794 249.617 91.8558 245.206 91.8558Z" fill="#FFBC0E"/>
<path d="M305.112 91.8558C300.701 91.8558 297.124 88.2794 297.124 83.8683V47.9247C297.124 43.5137 300.701 39.9373 305.112 39.9373C309.523 39.9373 313.099 43.5137 313.099 47.9247V83.8683C313.099 88.2794 309.523 91.8558 305.112 91.8558Z" fill="#FFBC0E"/>
<path d="M185.3 91.8558C180.889 91.8558 177.312 88.2794 177.312 83.8683V47.9247C177.312 43.5137 180.889 39.9373 185.3 39.9373C189.711 39.9373 193.287 43.5137 193.287 47.9247V83.8683C193.287 88.2794 189.711 91.8558 185.3 91.8558Z" fill="#FFBC0E"/>
<path d="M97.3404 463.284L97.0284 474.564L33.6981 472.828L37.5241 333.835L100.862 335.575L100.106 363.071L97.3404 463.284Z" fill="#093F68"/>
<path d="M282.438 205.168H294.449V214.543H282.438V224.035H294.449V233.41H282.438V263H264.801L246.754 233.41H230.641V263H213.004V233.41H201.168V224.035H213.004V214.543H201.168V205.168H213.004V177.688H230.641L247.34 205.168H264.859V177.688H282.438V205.168ZM258.824 224.035H264.859V214.543H253.082L258.824 224.035ZM230.641 224.035H241.07L235.27 214.543H230.641V224.035ZM264.859 233.938V233.41H264.508L264.859 233.938Z" fill="#FFBC0E"/>
</svg>
