<svg width="404" height="512" viewBox="0 0 404 512" fill="none" xmlns="http://www.w3.org/2000/svg">
<path d="M394 274.23H348.297C289.094 274.23 240.929 322.395 240.929 381.598V423.159L212 452.088V213.529C266.328 208.469 309 162.628 309 107C309 95.481 307.178 84.144 303.583 73.302C301.845 68.058 296.181 65.221 290.944 66.956C285.701 68.694 282.861 74.352 284.598 79.595C287.52 88.403 289 97.624 289 107C289 154.972 249.972 194 202 194C154.028 194 115 154.972 115 107C115 59.028 154.028 20 202 20C210.83 20 219.535 21.315 227.874 23.91C233.145 25.55 238.752 22.605 240.394 17.332C242.035 12.059 239.089 6.453 233.816 4.812C223.551 1.619 212.847 0 202 0C143 0 95 48 95 107C95 162.628 137.672 208.469 192 213.529V365.86L163.071 336.932V295.372C163.071 236.169 114.906 188.004 55.703 188.004H10C4.478 188.004 0 192.482 0 198.004V243.707C0 302.91 48.165 351.075 107.368 351.075H148.929L192 394.145V492H91.839C86.317 492 81.839 496.478 81.839 502C81.839 507.522 86.317 512 91.839 512H312.161C317.683 512 322.161 507.522 322.161 502C322.161 496.478 317.683 492 312.161 492H212V480.373L255.072 437.302H296.632C355.835 437.302 404 389.137 404 329.934V284.23C404 278.708 399.522 274.23 394 274.23V274.23ZM107.368 331.074C59.193 331.074 20 291.881 20 243.706V208.003H55.703C103.878 208.003 143.071 247.196 143.071 295.371V316.931L98.91 272.77C95.004 268.866 88.674 268.866 84.767 272.77C80.862 276.675 80.862 283.007 84.767 286.913L128.929 331.074H107.368ZM384 329.934C384 378.109 344.807 417.302 296.632 417.302H275.072L319.233 373.142C323.138 369.237 323.138 362.905 319.233 358.999C315.328 355.096 308.998 355.095 305.09 358.999L260.929 403.16V381.599C260.929 333.424 300.122 294.231 348.297 294.231H384V329.934Z" fill="black"/>
<path d="M270.38 48.2C273.01 48.2 275.59 47.13 277.45 45.269C279.309 43.41 280.38 40.83 280.38 38.2C280.38 35.569 279.31 32.9899 277.45 31.1299C275.59 29.2699 273.01 28.2 270.38 28.2C267.75 28.2 265.17 29.2689 263.31 31.1299C261.451 32.9899 260.38 35.569 260.38 38.2C260.38 40.83 261.45 43.41 263.31 45.269C265.17 47.13 267.75 48.2 270.38 48.2Z" fill="black"/>
<path d="M235.438 94.168H247.449V103.543H235.438V113.035H247.449V122.41H235.438V152H217.801L199.754 122.41H183.641V152H166.004V122.41H154.168V113.035H166.004V103.543H154.168V94.168H166.004V66.6875H183.641L200.34 94.168H217.859V66.6875H235.438V94.168ZM211.824 113.035H217.859V103.543H206.082L211.824 113.035ZM183.641 113.035H194.07L188.27 103.543H183.641V113.035ZM217.859 122.938V122.41H217.508L217.859 122.938Z" fill="black"/>
</svg>
