<svg width="512" height="512" viewBox="0 0 512 512" fill="none" xmlns="http://www.w3.org/2000/svg">
<path d="M271 0V122.516C333.331 129.529 382.552 178.751 389.581 241H512C504.484 112.202 399.818 7.515 271 0Z" fill="#5183F2"/>
<path d="M150.993 339.795C132.519 316.696 121 287.811 121 256C121 186.693 173.685 130.089 241 122.516V0C107.192 7.806 0 120.233 0 256C0 321.015 25.534 380.158 65.589 425.199L150.993 339.795Z" fill="#093F68"/>
<path d="M511.973 271H389.484C381.911 338.315 325.307 391 256 391C224.189 391 195.304 379.481 172.205 361.007L86.801 446.411C131.842 486.466 190.985 512 256 512C391.767 512 504.167 404.808 511.973 271Z" fill="#052B48"/>
<path d="M309.441 229.846H326.492V243.908H309.441V258.85H326.492V272.912H309.441V318H278.68L253.016 272.912H233.416V318H202.566V272.912H185.604V258.85H202.566V243.908H185.604V229.846H202.566V190.031H233.416L256.004 229.846H278.68V190.031H309.441V229.846ZM272.527 258.85H278.68V243.908H264.002L272.527 258.85ZM233.416 258.85H245.018L236.58 243.908H233.416V258.85Z" fill="#FFBC0E"/>
</svg>
