<svg width="407" height="512" viewBox="0 0 407 512" fill="none" xmlns="http://www.w3.org/2000/svg">
<path d="M203.279 460.796C194.995 460.796 188.279 454.08 188.279 445.796L188.278 315.005C188.278 306.721 194.994 300.005 203.278 300.005C211.562 300.005 218.278 306.721 218.278 315.005L218.279 445.796C218.279 454.08 211.563 460.796 203.279 460.796V460.796Z" fill="url(#paint0_linear)"/>
<path d="M203.278 330.005C294.26 330.005 368.281 255.985 368.281 165.003C368.281 74.0202 294.26 0 203.278 0C112.296 0 38.2755 74.0202 38.2755 165.003C38.2755 255.985 112.296 330.005 203.278 330.005ZM402.942 318.243C399.634 314.383 394.603 312.46 389.555 313.139C384.91 313.763 275.212 328.944 222.74 373.919C214.52 380.965 208.167 388.31 203.277 395.684C198.387 388.309 192.034 380.965 183.814 373.919C131.342 328.943 21.6442 313.763 16.9991 313.139C11.954 312.46 6.92097 314.384 3.61191 318.243C0.302863 322.103 -0.826156 327.377 0.614866 332.253C1.94189 336.747 33.7214 442.834 86.1932 487.809C108.063 506.554 130.011 511.999 148.134 511.999C155.123 511.999 161.546 511.188 167.172 510.019C186.518 505.996 199.926 497.188 203.276 494.82C206.626 497.188 220.034 505.996 239.38 510.019C245.007 511.189 251.427 511.999 258.418 511.999C276.54 511.999 298.492 506.551 320.359 487.809C372.831 442.834 404.61 336.747 405.937 332.253C407.38 327.377 406.251 322.104 402.942 318.243Z" fill="url(#paint1_linear)"/>
<path d="M250.56 138.641H265.716V151.141H250.56V164.422H265.716V176.922H250.56V217H223.216L200.404 176.922H182.982V217H155.56V176.922H140.482V164.422H155.56V151.141H140.482V138.641H155.56V103.25H182.982L203.06 138.641H223.216V103.25H250.56V138.641ZM217.748 164.422H223.216V151.141H210.169L217.748 164.422ZM182.982 164.422H193.294L185.794 151.141H182.982V164.422Z" fill="url(#paint2_linear)"/>
<defs>
<linearGradient id="paint0_linear" x1="203.279" y1="460.796" x2="203.279" y2="300.005" gradientUnits="userSpaceOnUse">
<stop stop-color="#093F68"/>
<stop offset="0.9973" stop-color="#CDDFEC"/>
</linearGradient>
<linearGradient id="paint1_linear" x1="203.278" y1="512" x2="203.278" y2="0" gradientUnits="userSpaceOnUse">
<stop stop-color="#052B48"/>
<stop offset="0.442708" stop-color="#093F68"/>
<stop offset="1" stop-color="#5183F2"/>
</linearGradient>
<linearGradient id="paint2_linear" x1="203.278" y1="256" x2="203.278" y2="68" gradientUnits="userSpaceOnUse">
<stop offset="0.078125" stop-color="#C89613"/>
<stop offset="0.84375" stop-color="#FFBC0E"/>
<stop offset="0.9971" stop-color="#FFF6DE"/>
</linearGradient>
</defs>
</svg>
