<svg width="16" height="19" viewBox="0 0 16 19" fill="none" xmlns="http://www.w3.org/2000/svg">
<path d="M9.25 11.75C8.91848 11.75 8.60054 11.6183 8.36612 11.3839C8.1317 11.1495 8 10.8315 8 10.5C8 10.1685 8.1317 9.85054 8.36612 9.61612C8.60054 9.3817 8.91848 9.25 9.25 9.25C9.58152 9.25 9.89946 9.3817 10.1339 9.61612C10.3683 9.85054 10.5 10.1685 10.5 10.5C10.5 10.8315 10.3683 11.1495 10.1339 11.3839C9.89946 11.6183 9.58152 11.75 9.25 11.75Z" fill="black"/>
<path d="M12.75 3.5C12.75 2.57174 12.3813 1.6815 11.7249 1.02513C11.0685 0.368749 10.1783 0 9.25 0C8.32174 0 7.4315 0.368749 6.77513 1.02513C6.11875 1.6815 5.75 2.57174 5.75 3.5V4.5H4.75C4.15326 4.5 3.58097 4.73705 3.15901 5.15901C2.73705 5.58097 2.5 6.15326 2.5 6.75V14.25C2.5 14.8467 2.73705 15.419 3.15901 15.841C3.58097 16.2629 4.15326 16.5 4.75 16.5H13.75C14.3467 16.5 14.919 16.2629 15.341 15.841C15.7629 15.419 16 14.8467 16 14.25V6.75C16 6.15326 15.7629 5.58097 15.341 5.15901C14.919 4.73705 14.3467 4.5 13.75 4.5H12.75V3.5ZM7.25 3.5C7.25 2.96957 7.46071 2.46086 7.83579 2.08579C8.21086 1.71071 8.71957 1.5 9.25 1.5C9.78043 1.5 10.2891 1.71071 10.6642 2.08579C11.0393 2.46086 11.25 2.96957 11.25 3.5V4.5H7.25V3.5ZM14.5 6.75V14.25C14.5 14.664 14.164 15 13.75 15H4.75C4.55109 15 4.36032 14.921 4.21967 14.7803C4.07902 14.6397 4 14.4489 4 14.25V6.75C4 6.55109 4.07902 6.36032 4.21967 6.21967C4.36032 6.07902 4.55109 6 4.75 6H13.75C13.9489 6 14.1397 6.07902 14.2803 6.21967C14.421 6.36032 14.5 6.55109 14.5 6.75Z" fill="black"/>
<path d="M10.2499 19C10.7154 19.0001 11.1693 18.8559 11.5494 18.5873C11.9294 18.3187 12.2168 17.9388 12.3719 17.5H4.24995C3.5206 17.5 2.82113 17.2103 2.3054 16.6945C1.78968 16.1788 1.49995 15.4793 1.49995 14.75V8.12799C1.06116 8.28313 0.681279 8.57051 0.412636 8.95055C0.143992 9.33059 -0.000191689 9.78459 -5.14984e-05 10.25V14.75C-5.14984e-05 15.3081 0.109878 15.8608 0.32346 16.3764C0.537042 16.892 0.850097 17.3605 1.24475 17.7552C1.63939 18.1498 2.10791 18.4629 2.62354 18.6765C3.13918 18.8901 3.69183 19 4.24995 19H10.2499Z" fill="black"/>
</svg>
