<svg xmlns="http://www.w3.org/2000/svg" width="20.538" height="20" viewBox="0 0 20.538 20">
  <path id="Logout" d="M11.331,2.021a4.435,4.435,0,0,1,4.43,4.226l0,.209v.933a.75.75,0,0,1-1.493.1l-.007-.1V6.456A2.935,2.935,0,0,0,11.5,3.526l-.172,0H6.456A2.935,2.935,0,0,0,3.527,6.284l0,.172v11.13a2.935,2.935,0,0,0,2.762,2.93l.172,0h4.885a2.925,2.925,0,0,0,2.92-2.752l.005-.172v-.943a.75.75,0,0,1,1.493-.1l.007.1V17.6a4.425,4.425,0,0,1-4.211,4.419l-.214.005H6.456A4.435,4.435,0,0,1,2.027,17.8l0-.209V6.456a4.435,4.435,0,0,1,4.225-4.43l.209,0Zm11,9.458a.75.75,0,0,1,0,1.087l-2.913,2.9a.75.75,0,0,1-1.131-.979l.073-.084,1.64-1.634H9.768a.75.75,0,0,1-.1-1.493l.1-.007H19.994L18.352,9.638a.75.75,0,0,1-.075-.976l.073-.084a.75.75,0,0,1,.976-.075l.084.072Z" transform="translate(-2.022 -2.021)" fill="#e41613" fill-rule="evenodd"/>
</svg>
