<svg width="16" height="14" viewBox="0 0 16 14" fill="none" xmlns="http://www.w3.org/2000/svg">
<path d="M2 2.5C2 1.83696 2.26339 1.20107 2.73223 0.732233C3.20107 0.263392 3.83696 0 4.5 0H13.5C14.163 0 14.7989 0.263392 15.2678 0.732233C15.7366 1.20107 16 1.83696 16 2.5V9.5C16 10.163 15.7366 10.7989 15.2678 11.2678C14.7989 11.7366 14.163 12 13.5 12H4.5C3.83696 12 3.20107 11.7366 2.73223 11.2678C2.26339 10.7989 2 10.163 2 9.5V2.5ZM8.746 6.931L3 3.961V9.5C3 9.89782 3.15804 10.2794 3.43934 10.5607C3.72064 10.842 4.10218 11 4.5 11H13.5C13.8978 11 14.2794 10.842 14.5607 10.5607C14.842 10.2794 15 9.89782 15 9.5V3.963L9.254 6.931L9.172 6.969C9.1026 6.99457 9.0284 7.00442 8.95473 6.99785C8.88107 6.99128 8.80978 6.96845 8.746 6.931ZM13.5 1H4.5C4.10218 1 3.72064 1.15804 3.43934 1.43934C3.15804 1.72064 3 2.10218 3 2.5V2.801L9 5.92L15 2.802V2.5C15 2.10218 14.842 1.72064 14.5607 1.43934C14.2794 1.15804 13.8978 1 13.5 1Z" fill="black"/>
<path d="M11.5 14C12.318 14 13.044 13.607 13.5 13H4.5C3.57174 13 2.6815 12.6313 2.02513 11.9749C1.36875 11.3185 1 10.4283 1 9.5V2.5C0.393 2.956 0 3.682 0 4.5V9.5C0 10.6935 0.474106 11.8381 1.31802 12.682C2.16193 13.5259 3.30653 14 4.5 14H11.5Z" fill="black"/>
</svg>
