<svg width="23" height="16" viewBox="0 0 23 16" fill="none" xmlns="http://www.w3.org/2000/svg">
<path d="M3.2 0C2.35131 0 1.53737 0.337142 0.937258 0.937258C0.337142 1.53737 0 2.35131 0 3.2V4.8H22.4V3.2C22.4 2.35131 22.0629 1.53737 21.4627 0.937258C20.8626 0.337142 20.0487 0 19.2 0H3.2Z" fill="#007236"/>
<path d="M0 12.7999V6.3999H22.4V12.7999C22.4 13.6486 22.0629 14.4625 21.4627 15.0626C20.8626 15.6628 20.0487 15.9999 19.2 15.9999H3.2C2.35131 15.9999 1.53737 15.6628 0.937258 15.0626C0.337142 14.4625 0 13.6486 0 12.7999ZM15.2 11.1999C14.9878 11.1999 14.7843 11.2842 14.6343 11.4342C14.4843 11.5842 14.4 11.7877 14.4 11.9999C14.4 12.2121 14.4843 12.4156 14.6343 12.5656C14.7843 12.7156 14.9878 12.7999 15.2 12.7999H18.4C18.6122 12.7999 18.8157 12.7156 18.9657 12.5656C19.1157 12.4156 19.2 12.2121 19.2 11.9999C19.2 11.7877 19.1157 11.5842 18.9657 11.4342C18.8157 11.2842 18.6122 11.1999 18.4 11.1999H15.2Z" fill="#007236"/>
</svg>
