<svg width="173" height="174" viewBox="0 0 173 174" fill="none" xmlns="http://www.w3.org/2000/svg">
<path d="M71.5618 76.5004C77.0631 84.2449 77.3981 98.0083 69.6537 103.51C61.9092 109.011 49.0187 104.159 43.5174 96.4046C38.0161 88.65 32.667 69.5578 39.092 64.2189C45.5169 58.88 66.0605 68.756 71.5618 76.5004Z" fill="#5183F2"/>
<path d="M61.7163 106.89C59.5898 106.867 57.4787 106.525 55.4538 105.875C50.3626 104.345 45.8927 101.23 42.6952 96.9831C39.7619 92.8419 37.062 86.0211 35.8338 79.5962C34.9812 75.0794 34.1692 66.9797 38.4424 63.4272C40.2897 61.8946 43.1114 61.3972 46.8364 61.8438C55.6568 63.0009 68.0804 69.8217 72.384 75.8914C75.3451 80.3061 76.8175 85.5519 76.5861 90.8627C76.3628 96.8004 74.0993 101.571 70.2423 104.322C67.7396 106.05 64.7572 106.948 61.7163 106.89V106.89ZM44.37 63.7216C42.7345 63.6079 41.1101 64.0633 39.772 65.0106C37.2345 67.1117 36.5443 72.2983 37.8638 79.2206C39.0209 85.3106 41.6396 91.9588 44.3801 95.8158C47.315 99.6971 51.411 102.542 56.0729 103.936C61.1479 105.489 65.756 105.032 69.0954 102.667C72.4347 100.302 74.3835 96.0696 74.5865 90.7916C74.7997 85.9335 73.4593 81.1339 70.76 77.0891C66.7913 71.4965 54.8245 64.9091 46.603 63.8941C45.8636 63.7844 45.1174 63.7267 44.37 63.7216V63.7216Z" fill="#093F68"/>
<path d="M104.133 76.5004C98.6319 84.2449 98.2969 98.0083 106.041 103.51C113.786 109.011 126.666 104.159 132.168 96.4046C137.669 88.65 143.028 69.5578 136.603 64.2189C130.178 58.88 109.624 68.756 104.133 76.5004Z" fill="#5183F2"/>
<path d="M113.969 106.89C110.933 106.954 107.954 106.063 105.453 104.342C101.586 101.591 99.3627 96.8208 99.0988 90.883C98.8766 85.5733 100.348 80.3304 103.301 75.9118C107.615 69.8218 120.028 63.0213 128.859 61.8642C132.584 61.377 135.405 61.8642 137.253 63.4476C141.516 67.0001 140.714 75.0998 139.851 79.6165C138.623 86.0415 135.933 92.8115 133 97.0035C129.798 101.246 125.33 104.36 120.241 105.895C118.212 106.538 116.097 106.873 113.969 106.89V106.89ZM104.955 77.0892C102.256 81.1417 100.916 85.9476 101.129 90.812C101.332 96.09 103.291 100.312 106.63 102.687C109.969 105.063 114.588 105.509 119.653 103.956C124.313 102.559 128.408 99.7155 131.345 95.8362C134.076 91.9792 136.705 85.3107 137.862 79.241C139.181 72.3085 138.491 67.1219 135.953 65.031C134.583 63.884 132.218 63.4983 129.112 63.9043C120.901 64.9193 108.934 71.5168 104.955 77.0993V77.0892Z" fill="#093F68"/>
<path d="M132.878 166.602C133.588 169.566 130.645 172.296 126.788 172.296H118.972C117.824 172.352 116.682 172.099 115.664 171.563C114.647 171.028 113.791 170.229 113.187 169.251L109.33 161.994C102.59 165.129 95.2458 166.754 87.812 166.754C80.3782 166.754 73.0342 165.129 66.294 161.994L62.4979 169.282C61.8935 170.26 61.0381 171.058 60.0207 171.594C59.0032 172.129 57.8608 172.382 56.7124 172.327H48.8969C45.0095 172.327 42.066 169.596 42.8069 166.632L47.5063 146.941C41.8083 139.542 38.2557 130.718 37.2373 121.435C36.2188 112.152 37.7739 102.767 41.7322 94.3088C45.6906 85.8502 51.8996 78.6437 59.6798 73.478C67.4599 68.3122 76.5112 65.3864 85.8429 65.0208C86.5026 65.0208 87.1725 65.0208 87.8729 65.0208C88.5732 65.0208 89.2127 65.0208 89.9029 65.0208C99.2346 65.3864 108.286 68.3122 116.066 73.478C123.846 78.6437 130.055 85.8502 134.014 94.3088C137.972 102.767 139.527 112.152 138.509 121.435C137.49 130.718 133.937 139.542 128.239 146.941L132.878 166.602Z" fill="#5183F2"/>
<path d="M126.758 173.311H118.942C117.613 173.373 116.291 173.075 115.116 172.45C113.941 171.825 112.956 170.895 112.263 169.759L108.904 163.324C102.269 166.255 95.0958 167.769 87.8425 167.769C80.5891 167.769 73.4157 166.255 66.7812 163.324L63.4317 169.749C62.7399 170.889 61.7535 171.821 60.5764 172.448C59.3994 173.075 58.0751 173.373 56.7429 173.311H48.9274C47.7751 173.344 46.6301 173.119 45.5763 172.652C44.5226 172.184 43.5867 171.487 42.8374 170.611C42.3515 170.031 42.0069 169.346 41.8308 168.609C41.6547 167.873 41.6518 167.106 41.8224 166.369L46.4 147.145C40.6798 139.577 37.1426 130.587 36.1728 121.151C35.2029 111.714 36.8374 102.193 40.8988 93.6201C44.9602 85.0474 51.2931 77.7517 59.2096 72.5253C67.1261 67.299 76.3234 64.3419 85.8023 63.9754C87.1545 63.8954 88.5102 63.8954 89.8623 63.9754C99.3364 64.3524 108.526 67.3162 116.436 72.5454C124.345 77.7745 130.671 85.0693 134.729 93.6387C138.787 102.208 140.421 111.725 139.454 121.157C138.487 130.589 134.956 139.577 129.244 147.145L133.832 166.369C134 167.106 133.996 167.873 133.82 168.609C133.644 169.344 133.301 170.03 132.817 170.611C132.07 171.482 131.139 172.176 130.091 172.643C129.043 173.11 127.905 173.338 126.758 173.311V173.311ZM109.33 160.979C109.516 160.979 109.699 161.03 109.859 161.126C110.018 161.223 110.148 161.362 110.233 161.527L114.029 168.815C114.557 169.617 115.285 170.266 116.142 170.699C116.998 171.132 117.953 171.333 118.912 171.281H126.727C127.577 171.311 128.423 171.153 129.205 170.82C129.987 170.487 130.687 169.986 131.254 169.353C131.543 169.011 131.749 168.606 131.855 168.171C131.96 167.736 131.963 167.282 131.863 166.846V166.846L127.164 147.155C127.129 147.008 127.127 146.855 127.159 146.708C127.19 146.56 127.254 146.422 127.346 146.302C132.93 139.052 136.411 130.405 137.41 121.308C138.409 112.212 136.886 103.016 133.009 94.7266C129.132 86.4374 123.049 79.3745 115.426 74.3106C107.804 69.2467 98.9353 66.377 89.7913 66.0156C88.4933 65.9344 87.1916 65.9344 85.8937 66.0156C76.7496 66.377 67.8811 69.2467 60.2586 74.3106C52.6361 79.3745 46.5534 86.4374 42.676 94.7266C38.7987 103.016 37.276 112.212 38.2748 121.308C39.2735 130.405 42.7551 139.052 48.3387 146.302C48.4323 146.421 48.4982 146.559 48.5316 146.707C48.5649 146.854 48.5649 147.007 48.5315 147.155L43.8321 166.846C43.7286 167.284 43.7298 167.74 43.8356 168.177C43.9414 168.614 44.1488 169.021 44.4411 169.363C45.0068 169.995 45.7046 170.496 46.4851 170.829C47.2655 171.162 48.1097 171.32 48.9578 171.291H56.7733C57.7332 171.344 58.69 171.143 59.5483 170.71C60.4067 170.278 61.1367 169.628 61.6656 168.825L65.4617 161.537C65.5833 161.306 65.7893 161.13 66.037 161.047C66.2846 160.964 66.5548 160.98 66.7914 161.091C73.3975 164.16 80.5938 165.749 87.878 165.749C95.1621 165.749 102.359 164.16 108.965 161.091C109.077 161.029 109.202 160.991 109.33 160.979Z" fill="#093F68"/>
<path d="M87.8424 127.017C99.5583 127.017 109.056 121.846 109.056 115.466C109.056 109.087 99.5583 103.916 87.8424 103.916C76.1266 103.916 66.6289 109.087 66.6289 115.466C66.6289 121.846 76.1266 127.017 87.8424 127.017Z" fill="#5183F2"/>
<path d="M87.8424 128.022C75.3782 128.022 65.6139 122.51 65.6139 115.466C65.6139 108.422 75.3782 102.901 87.8424 102.901C100.307 102.901 110.071 108.412 110.071 115.466C110.071 122.521 100.307 128.022 87.8424 128.022ZM87.8424 104.931C76.9007 104.931 67.6439 109.752 67.6439 115.466C67.6439 121.181 76.9007 125.992 87.8424 125.992C98.7841 125.992 108.041 121.171 108.041 115.466C108.041 109.762 98.7943 104.931 87.8424 104.931Z" fill="#093F68"/>
<path d="M66.2737 163.009C66.0993 163.008 65.928 162.963 65.7763 162.877C65.3602 162.643 61.7163 160.522 60.6201 158.421C60.5005 158.18 60.4814 157.902 60.567 157.646C60.6527 157.391 60.8361 157.181 61.0769 157.061C61.3166 156.941 61.5942 156.92 61.8491 157.004C62.1039 157.087 62.3153 157.269 62.437 157.508C63.0257 158.675 65.4109 160.339 66.771 161.111C67.0049 161.243 67.1769 161.463 67.2492 161.721C67.3215 161.98 67.2882 162.257 67.1567 162.491C67.0686 162.648 66.9404 162.779 66.7853 162.87C66.6301 162.96 66.4535 163.009 66.2737 163.009Z" fill="#093F68"/>
<path d="M109.421 163.009C109.197 163.01 108.978 162.937 108.799 162.801C108.62 162.665 108.492 162.473 108.434 162.256C108.376 162.039 108.391 161.809 108.478 161.601C108.565 161.394 108.718 161.222 108.914 161.111C110.284 160.339 112.669 158.675 113.258 157.508C113.38 157.269 113.591 157.087 113.846 157.004C114.101 156.92 114.378 156.941 114.618 157.061C114.859 157.181 115.042 157.391 115.128 157.646C115.214 157.902 115.195 158.18 115.075 158.421C114.06 160.522 110.335 162.643 109.919 162.877C109.767 162.963 109.596 163.008 109.421 163.009Z" fill="#093F68"/>
<path d="M80.5141 120.125C83.0872 120.125 85.173 118.039 85.173 115.466C85.173 112.893 83.0872 110.807 80.5141 110.807C77.9411 110.807 75.8553 112.893 75.8553 115.466C75.8553 118.039 77.9411 120.125 80.5141 120.125Z" fill="#093F68"/>
<path d="M95.1809 120.125C97.7539 120.125 99.8397 118.039 99.8397 115.466C99.8397 112.893 97.7539 110.807 95.1809 110.807C92.6079 110.807 90.522 112.893 90.522 115.466C90.522 118.039 92.6079 120.125 95.1809 120.125Z" fill="#093F68"/>
<path d="M76.3831 98.12C76.1139 98.12 75.8557 98.013 75.6654 97.8227C75.475 97.6323 75.3681 97.3741 75.3681 97.105C75.3681 95.2044 74.6131 93.3818 73.2693 92.0379C71.9254 90.694 70.1027 89.9391 68.2022 89.9391C66.3017 89.9391 64.479 90.694 63.1351 92.0379C61.7913 93.3818 61.0363 95.2044 61.0363 97.105C61.0363 97.3741 60.9294 97.6323 60.739 97.8227C60.5487 98.013 60.2905 98.12 60.0213 98.12C59.7521 98.12 59.4939 98.013 59.3036 97.8227C59.1132 97.6323 59.0063 97.3741 59.0063 97.105C59.0063 94.6661 59.9752 92.327 61.6997 90.6025C63.4243 88.8779 65.7633 87.9091 68.2022 87.9091C70.6411 87.9091 72.9801 88.8779 74.7047 90.6025C76.4292 92.327 77.3981 94.6661 77.3981 97.105C77.3981 97.3741 77.2912 97.6323 77.1008 97.8227C76.9105 98.013 76.6523 98.12 76.3831 98.12Z" fill="#093F68"/>
<path d="M115.674 98.12C115.405 98.12 115.146 98.013 114.956 97.8227C114.766 97.6323 114.659 97.3741 114.659 97.105C114.659 95.2044 113.904 93.3818 112.56 92.0379C111.216 90.694 109.393 89.9391 107.493 89.9391C105.592 89.9391 103.77 90.694 102.426 92.0379C101.082 93.3818 100.327 95.2044 100.327 97.105C100.327 97.3741 100.22 97.6323 100.03 97.8227C99.8393 98.013 99.5811 98.12 99.312 98.12C99.0428 98.12 98.7846 98.013 98.5942 97.8227C98.4039 97.6323 98.297 97.3741 98.297 97.105C98.297 94.6661 99.2658 92.327 100.99 90.6025C102.715 88.8779 105.054 87.9091 107.493 87.9091C109.932 87.9091 112.271 88.8779 113.995 90.6025C115.72 92.327 116.689 94.6661 116.689 97.105C116.689 97.3741 116.582 97.6323 116.391 97.8227C116.201 98.013 115.943 98.12 115.674 98.12Z" fill="#093F68"/>
<path d="M89.842 64.9903V76.6527H85.8429V64.9903C86.5026 64.9903 87.1725 64.9903 87.8729 64.9903C88.5732 64.9903 89.1822 64.9497 89.842 64.9903Z" fill="#093F68"/>
<path d="M89.842 77.6677H85.8429C85.5737 77.6677 85.3155 77.5607 85.1252 77.3704C84.9348 77.1801 84.8279 76.9219 84.8279 76.6527V64.9903C84.8274 64.7314 84.926 64.482 85.1033 64.2933C85.2807 64.1046 85.5235 63.9909 85.782 63.9753C87.1544 63.8941 88.5305 63.8941 89.9029 63.9753C90.1614 63.9909 90.4042 64.1046 90.5816 64.2933C90.7589 64.482 90.8575 64.7314 90.857 64.9903V76.6527C90.857 76.9219 90.7501 77.1801 90.5597 77.3704C90.3694 77.5607 90.1112 77.6677 89.842 77.6677ZM86.8579 75.6377H88.827V65.9647H86.8579V75.6377Z" fill="#093F68"/>
<path d="M89.2026 37.494H87.2538V58.809H89.2026C91.9154 58.6415 94.4622 57.4458 96.324 55.4655C98.1857 53.4852 99.2222 50.8695 99.2222 48.1515C99.2222 45.4335 98.1857 42.8178 96.324 40.8376C94.4622 38.8573 91.9154 37.6615 89.2026 37.494V37.494Z" fill="#FFBC0E"/>
<path d="M89.2026 59.8545H87.2538C86.9846 59.8545 86.7264 59.7476 86.536 59.5572C86.3457 59.3669 86.2388 59.1087 86.2388 58.8395V37.5245C86.2388 37.2553 86.3457 36.9972 86.536 36.8068C86.7264 36.6165 86.9846 36.5095 87.2538 36.5095H89.2026C92.1793 36.6852 94.9764 37.9914 97.0219 40.1612C99.0674 42.3309 100.207 45.2001 100.207 48.182C100.207 51.1639 99.0674 54.0332 97.0219 56.2029C94.9764 58.3726 92.1793 59.6789 89.2026 59.8545V59.8545ZM88.2688 57.8245H89.2026C91.6518 57.6655 93.9487 56.5804 95.627 54.7896C97.3054 52.9988 98.2393 50.6364 98.2393 48.182C98.2393 45.7277 97.3054 43.3653 95.627 41.5744C93.9487 39.7836 91.6518 38.6985 89.2026 38.5395H88.2688V57.8245Z" fill="#093F68"/>
<path d="M86.4824 58.8293C92.3739 58.8293 97.15 54.0533 97.15 48.1617C97.15 42.2701 92.3739 37.494 86.4824 37.494C80.5908 37.494 75.8147 42.2701 75.8147 48.1617C75.8147 54.0533 80.5908 58.8293 86.4824 58.8293Z" fill="#FFBC0E"/>
<path d="M86.4824 59.8545C84.1693 59.8565 81.9076 59.1724 79.9834 57.8888C78.0592 56.6052 76.5589 54.7798 75.6724 52.6434C74.7858 50.5069 74.5528 48.1556 75.0028 45.8867C75.4529 43.6179 76.5657 41.5335 78.2006 39.8972C79.8354 38.2609 81.9189 37.1463 84.1873 36.6943C86.4558 36.2423 88.8073 36.4733 90.9445 37.358C93.0817 38.2427 94.9084 39.7414 96.1937 41.6644C97.479 43.5875 98.165 45.8486 98.165 48.1617C98.1623 51.2602 96.9309 54.2312 94.7409 56.4232C92.5508 58.6151 89.5809 59.8491 86.4824 59.8545V59.8545ZM86.4824 38.5395C84.5708 38.5395 82.7022 39.1064 81.1129 40.1687C79.5237 41.2309 78.2852 42.7406 77.5541 44.5068C76.8231 46.2731 76.6323 48.2164 77.006 50.0911C77.3796 51.9658 78.3009 53.6875 79.6533 55.0385C81.0057 56.3895 82.7284 57.3089 84.6035 57.6806C86.4785 58.0523 88.4217 57.8595 90.1872 57.1266C91.9526 56.3937 93.4611 55.1536 94.5216 53.5632C95.5822 51.9729 96.1471 50.1037 96.1451 48.1921C96.1465 46.9218 95.8976 45.6638 95.4127 44.4897C94.9278 43.3156 94.2165 42.2485 93.3192 41.3493C92.4219 40.4502 91.3563 39.7366 90.1833 39.2492C89.0102 38.7619 87.7526 38.5103 86.4824 38.509V38.5395Z" fill="#093F68"/>
<path d="M103.91 1.61377H101.951V22.9288H103.91C106.656 22.8089 109.25 21.6337 111.151 19.6481C113.051 17.6626 114.112 15.02 114.112 12.2713C114.112 9.52258 113.051 6.87997 111.151 4.89442C109.25 2.90887 106.656 1.73365 103.91 1.61377V1.61377Z" fill="#FFBC0E"/>
<path d="M103.91 23.964H101.951C101.682 23.964 101.424 23.8571 101.233 23.6667C101.043 23.4764 100.936 23.2182 100.936 22.949V1.63402C100.936 1.36482 101.043 1.10666 101.233 0.916308C101.424 0.725959 101.682 0.619019 101.951 0.619019H103.91C106.921 0.744635 109.768 2.02934 111.854 4.20461C113.941 6.37989 115.106 9.27739 115.106 12.2915C115.106 15.3057 113.941 18.2032 111.854 20.3784C109.768 22.5537 106.921 23.8384 103.91 23.964V23.964ZM102.966 21.934H103.91C106.391 21.8202 108.732 20.7545 110.448 18.9587C112.163 17.1628 113.12 14.7749 113.12 12.2915C113.12 9.8081 112.163 7.42022 110.448 5.62437C108.732 3.82852 106.391 2.76288 103.91 2.64902H102.966V21.934Z" fill="#093F68"/>
<path d="M101.19 22.9491C107.081 22.9491 111.857 18.173 111.857 12.2814C111.857 6.38984 107.081 1.61377 101.19 1.61377C95.2981 1.61377 90.522 6.38984 90.522 12.2814C90.522 18.173 95.2981 22.9491 101.19 22.9491Z" fill="#FFBC0E"/>
<path d="M101.21 23.9641C98.8994 23.9641 96.6407 23.2789 94.7195 21.9952C92.7983 20.7115 91.3009 18.8869 90.4167 16.7522C89.5324 14.6174 89.3011 12.2684 89.7518 10.0022C90.2026 7.73602 91.3153 5.65437 92.9491 4.02053C94.583 2.38668 96.6646 1.27402 98.9308 0.823239C101.197 0.372462 103.546 0.603816 105.681 1.48805C107.815 2.37228 109.64 3.86967 110.924 5.79087C112.207 7.71208 112.893 9.9708 112.893 12.2814C112.89 15.379 111.658 18.349 109.468 20.5393C107.278 22.7297 104.308 23.9614 101.21 23.9641V23.9641ZM101.21 2.64906C99.3009 2.64906 97.4346 3.21518 95.8473 4.27582C94.2599 5.33647 93.0227 6.84401 92.2921 8.6078C91.5615 10.3716 91.3704 12.3124 91.7428 14.1848C92.1153 16.0573 93.0346 17.7772 94.3846 19.1272C95.7345 20.4771 97.4544 21.3964 99.3269 21.7689C101.199 22.1413 103.14 21.9502 104.904 21.2196C106.668 20.489 108.175 19.2518 109.236 17.6644C110.297 16.0771 110.863 14.2108 110.863 12.3017C110.864 11.0328 110.615 9.776 110.131 8.60314C109.647 7.43029 108.936 6.36432 108.04 5.46611C107.143 4.56789 106.079 3.85501 104.907 3.36818C103.735 2.88135 102.479 2.63009 101.21 2.62876V2.64906Z" fill="#093F68"/>
<path d="M67.9891 12.7787L66.4259 13.946L79.2048 31.0386L80.7679 29.8713C81.8902 29.0322 82.8363 27.9803 83.5521 26.7756C84.2678 25.5709 84.7393 24.2371 84.9396 22.8502C85.1399 21.4632 85.0651 20.0505 84.7194 18.6925C84.3736 17.3345 83.7639 16.0579 82.9248 14.9356C82.0857 13.8133 81.0338 12.8672 79.8291 12.1514C78.6244 11.4356 77.2905 10.9641 75.9036 10.7639C74.5167 10.5636 73.1039 10.6384 71.7459 10.9841C70.388 11.3298 69.1114 11.9396 67.9891 12.7787V12.7787Z" fill="#FFBC0E"/>
<path d="M79.2048 32.0537C79.0472 32.0537 78.8918 32.017 78.7509 31.9465C78.6099 31.876 78.4873 31.7737 78.3928 31.6477L65.6139 14.5551C65.534 14.4484 65.4758 14.3271 65.4427 14.198C65.4096 14.0688 65.4023 13.9345 65.4211 13.8025C65.44 13.6706 65.4847 13.5436 65.5526 13.4289C65.6205 13.3142 65.7103 13.214 65.817 13.1341L67.38 11.9668C68.609 11.0478 70.0069 10.3798 71.494 10.001C72.9811 9.6222 74.5283 9.54003 76.0472 9.75916C77.566 9.9783 79.0268 10.4944 80.3462 11.2781C81.6656 12.0618 82.8177 13.0977 83.7368 14.3267C84.6558 15.5556 85.3238 16.9536 85.7026 18.4407C86.0814 19.9278 86.1636 21.4749 85.9444 22.9938C85.7253 24.5127 85.2091 25.9735 84.4254 27.2929C83.6417 28.6123 82.6059 29.7644 81.3769 30.6834L79.8138 31.8507C79.6381 31.9824 79.4244 32.0537 79.2048 32.0537ZM67.847 14.1491L79.4078 29.6177L80.1589 29.0594C82.2102 27.5263 83.5684 25.2412 83.9348 22.7067C84.3013 20.1722 83.6458 17.5959 82.1128 15.5447C80.5797 13.4934 78.2946 12.1352 75.7601 11.7688C73.2256 11.4023 70.6493 12.0577 68.598 13.5908L67.847 14.1491Z" fill="#093F68"/>
<path d="M72.2013 33.6167C78.0929 33.6167 82.8689 28.8406 82.8689 22.949C82.8689 17.0574 78.0929 12.2814 72.2013 12.2814C66.3097 12.2814 61.5336 17.0574 61.5336 22.949C61.5336 28.8406 66.3097 33.6167 72.2013 33.6167Z" fill="#FFBC0E"/>
<path d="M72.2216 34.6418C71.6544 34.6413 71.088 34.6006 70.5266 34.52C68.6263 34.2435 66.8235 33.5028 65.2777 32.3636C63.7319 31.2243 62.4908 29.7216 61.6642 27.9884C60.8375 26.2551 60.4509 24.3449 60.5384 22.4266C60.6259 20.5084 61.185 18.6412 62.166 16.9905C63.1471 15.3398 64.5199 13.9563 66.163 12.9626C67.8061 11.9688 69.6689 11.3954 71.5864 11.2931C73.5039 11.1908 75.4171 11.5627 77.1567 12.376C78.8962 13.1892 80.4085 14.4187 81.5596 15.9557V15.9557C83.4117 18.4386 84.2029 21.555 83.7595 24.6207C83.3161 27.6864 81.6744 30.4509 79.1947 32.3073C77.1867 33.8243 74.7382 34.6441 72.2216 34.6418V34.6418ZM72.2216 13.3268C70.0448 13.3182 67.929 14.0457 66.2177 15.3911C64.5064 16.7365 63.3001 18.6208 62.7946 20.7382C62.2892 22.8555 62.5143 25.0816 63.4334 27.0549C64.3525 29.0282 65.9116 30.6329 67.8576 31.6084C69.8036 32.584 72.0222 32.8732 74.1532 32.4289C76.2843 31.9847 78.2026 30.8333 79.5967 29.1614C80.9909 27.4896 81.779 25.3957 81.8332 23.2195C81.8873 21.0433 81.2043 18.9128 79.895 17.1737V17.1737C79.1391 16.1546 78.188 15.2959 77.0972 14.6477C76.0064 13.9995 74.7976 13.5747 73.5411 13.3979C73.0908 13.3308 72.6362 13.2968 72.181 13.2964L72.2216 13.3268Z" fill="#093F68"/>
<path d="M55.8801 71.8111C55.7368 71.8122 55.5948 71.7829 55.4636 71.7252C55.3324 71.6675 55.2149 71.5826 55.1188 71.4762C51.0588 66.9594 43.5885 68.0252 43.5174 68.0353C43.3841 68.0553 43.2482 68.0489 43.1174 68.0163C42.9866 67.9838 42.8635 67.9258 42.7551 67.8457C42.6467 67.7656 42.5552 67.6649 42.4857 67.5494C42.4162 67.4339 42.3701 67.3059 42.3501 67.1726C42.3302 67.0393 42.3366 66.9034 42.3691 66.7726C42.4017 66.6418 42.4597 66.5187 42.5398 66.4103C42.6199 66.3019 42.7206 66.2103 42.8361 66.1408C42.9516 66.0714 43.0796 66.0253 43.2129 66.0053C43.5682 66.0053 51.8709 64.7569 56.6312 70.0653C56.7594 70.2112 56.843 70.3908 56.8722 70.5828C56.9014 70.7748 56.8748 70.9712 56.7958 71.1485C56.7167 71.3259 56.5884 71.4769 56.4261 71.5835C56.2638 71.6902 56.0743 71.748 55.8801 71.7502V71.8111Z" fill="#093F68"/>
<path d="M119.815 71.8112C119.661 71.812 119.508 71.7777 119.37 71.7109C119.231 71.6441 119.109 71.5465 119.013 71.4255C118.848 71.2139 118.774 70.9457 118.806 70.6794C118.839 70.4132 118.975 70.1705 119.186 70.0045C126.829 63.9145 132.279 65.8633 132.502 65.9445C132.748 66.0414 132.947 66.2303 133.055 66.4711C133.164 66.7119 133.175 66.9856 133.085 67.2341C132.995 67.4825 132.812 67.6862 132.574 67.8017C132.336 67.9172 132.063 67.9355 131.812 67.8527C131.599 67.7816 127.113 66.3302 120.444 71.598C120.264 71.7377 120.043 71.8128 119.815 71.8112V71.8112Z" fill="#093F68"/>
<path d="M66.2737 128.093C66.2737 128.093 67.8571 135.908 75.8553 134.863Z" fill="#5183F2"/>
<path d="M74.4343 135.969C68.4661 135.969 65.8474 131.087 65.2993 128.296C65.2455 128.027 65.3008 127.747 65.453 127.519C65.6053 127.29 65.8421 127.132 66.1113 127.078C66.3805 127.024 66.66 127.079 66.8885 127.232C67.1169 127.384 67.2755 127.621 67.3293 127.89V127.89C67.3902 128.174 68.8213 134.762 75.7842 133.848C76.0534 133.813 76.3255 133.886 76.5406 134.052C76.7557 134.218 76.8962 134.462 76.9312 134.731C76.9662 135 76.8928 135.272 76.7272 135.487C76.5616 135.703 76.3174 135.843 76.0482 135.878C75.5129 135.944 74.9737 135.975 74.4343 135.969V135.969Z" fill="#093F68"/>
<path d="M66.6289 123.952C66.6289 123.952 68.1007 126.378 63.8986 128.945Z" fill="#68E1FD"/>
<path d="M63.8986 129.96C63.7261 129.961 63.5564 129.917 63.4054 129.834C63.2545 129.75 63.1273 129.63 63.0358 129.483C62.9654 129.37 62.9182 129.243 62.8969 129.111C62.8757 128.979 62.8807 128.844 62.9119 128.713C62.943 128.583 62.9996 128.46 63.0783 128.352C63.1571 128.244 63.2565 128.152 63.3708 128.083C66.5782 126.114 65.7865 124.52 65.7459 124.449C65.6184 124.214 65.5885 123.939 65.6626 123.683C65.7367 123.426 65.9088 123.209 66.1417 123.079C66.3693 122.95 66.6377 122.914 66.891 122.978C67.1444 123.043 67.3632 123.202 67.5018 123.424C67.5018 123.424 69.4303 126.753 64.4568 129.818C64.2884 129.919 64.0945 129.968 63.8986 129.96Z" fill="#093F68"/>
<path d="M164.779 164.004H142.409C141.389 164.004 140.562 164.831 140.562 165.851V170.449C140.562 171.469 141.389 172.296 142.409 172.296H164.779C165.8 172.296 166.627 171.469 166.627 170.449V165.851C166.627 164.831 165.8 164.004 164.779 164.004Z" fill="#FFBC0E"/>
<path d="M164.79 173.311H142.46C142.084 173.313 141.712 173.24 141.365 173.097C141.018 172.954 140.702 172.744 140.436 172.479C140.17 172.214 139.959 171.9 139.815 171.553C139.671 171.206 139.597 170.834 139.597 170.459V165.851C139.597 165.092 139.899 164.364 140.436 163.827C140.972 163.29 141.7 162.989 142.46 162.989H164.79C165.165 162.989 165.537 163.063 165.883 163.207C166.23 163.351 166.545 163.562 166.81 163.828C167.075 164.094 167.285 164.409 167.428 164.756C167.57 165.104 167.643 165.476 167.642 165.851V170.459C167.642 171.215 167.341 171.941 166.806 172.476C166.272 173.011 165.546 173.311 164.79 173.311ZM142.46 165.019C142.239 165.019 142.027 165.106 141.871 165.262C141.715 165.419 141.627 165.63 141.627 165.851V170.459C141.63 170.678 141.719 170.887 141.875 171.041C142.03 171.195 142.241 171.281 142.46 171.281H164.79C165.008 171.281 165.217 171.195 165.371 171.04C165.525 170.886 165.612 170.677 165.612 170.459V165.851C165.612 165.632 165.525 165.422 165.372 165.266C165.218 165.11 165.009 165.021 164.79 165.019H142.46Z" fill="#093F68"/>
<path d="M167.642 155.386H145.271C144.251 155.386 143.424 156.213 143.424 157.234V161.831C143.424 162.852 144.251 163.679 145.271 163.679H167.642C168.662 163.679 169.489 162.852 169.489 161.831V157.234C169.489 156.213 168.662 155.386 167.642 155.386Z" fill="#FFBC0E"/>
<path d="M167.652 164.694H145.322C144.563 164.694 143.835 164.392 143.298 163.855C142.761 163.319 142.46 162.591 142.46 161.831V157.223C142.462 156.466 142.765 155.741 143.302 155.206C143.838 154.671 144.565 154.371 145.322 154.371H167.652C168.408 154.371 169.134 154.672 169.669 155.207C170.204 155.741 170.504 156.467 170.504 157.223V161.831C170.505 162.207 170.433 162.579 170.29 162.926C170.147 163.273 169.937 163.589 169.672 163.855C169.407 164.121 169.092 164.332 168.746 164.476C168.399 164.62 168.027 164.694 167.652 164.694V164.694ZM145.322 156.401C145.103 156.401 144.893 156.488 144.737 156.641C144.581 156.795 144.492 157.004 144.49 157.223V161.831C144.49 162.052 144.577 162.264 144.733 162.42C144.889 162.576 145.101 162.664 145.322 162.664H167.652C167.871 162.661 168.08 162.572 168.234 162.416C168.388 162.261 168.474 162.05 168.474 161.831V157.223C168.474 157.005 168.387 156.796 168.233 156.642C168.079 156.488 167.87 156.401 167.652 156.401H145.322Z" fill="#093F68"/>
<path d="M161.623 147.094H139.252C138.232 147.094 137.405 147.921 137.405 148.941V153.539C137.405 154.559 138.232 155.386 139.252 155.386H161.623C162.643 155.386 163.47 154.559 163.47 153.539V148.941C163.47 147.921 162.643 147.094 161.623 147.094Z" fill="#FFBC0E"/>
<path d="M161.633 156.401H139.303C138.544 156.401 137.816 156.1 137.279 155.563C136.742 155.026 136.441 154.298 136.441 153.539V148.931C136.441 148.555 136.515 148.184 136.659 147.837C136.803 147.49 137.014 147.176 137.28 146.911C137.546 146.646 137.861 146.436 138.208 146.293C138.556 146.15 138.928 146.077 139.303 146.079H161.633C162.389 146.079 163.115 146.379 163.65 146.914C164.185 147.449 164.485 148.174 164.485 148.931V153.539C164.485 154.296 164.185 155.023 163.65 155.559C163.116 156.096 162.39 156.399 161.633 156.401V156.401ZM139.303 148.109C139.084 148.109 138.874 148.195 138.718 148.349C138.562 148.503 138.473 148.712 138.471 148.931V153.539C138.471 153.76 138.558 153.971 138.714 154.128C138.871 154.284 139.082 154.371 139.303 154.371H161.633C161.852 154.369 162.061 154.28 162.215 154.124C162.369 153.968 162.455 153.758 162.455 153.539V148.931C162.455 148.713 162.368 148.504 162.214 148.35C162.06 148.195 161.851 148.109 161.633 148.109H139.303Z" fill="#093F68"/>
<path d="M164.779 138.801H142.409C141.389 138.801 140.562 139.628 140.562 140.648V145.246C140.562 146.267 141.389 147.094 142.409 147.094H164.779C165.8 147.094 166.627 146.267 166.627 145.246V140.648C166.627 139.628 165.8 138.801 164.779 138.801Z" fill="#FFBC0E"/>
<path d="M164.79 148.109H142.46C141.7 148.109 140.972 147.807 140.436 147.27C139.899 146.734 139.597 146.006 139.597 145.246V140.638C139.597 140.263 139.671 139.891 139.815 139.544C139.959 139.198 140.17 138.883 140.436 138.618C140.702 138.353 141.018 138.143 141.365 138C141.712 137.858 142.084 137.785 142.46 137.786H164.79C165.546 137.786 166.272 138.087 166.806 138.622C167.341 139.156 167.642 139.882 167.642 140.638V145.246C167.642 146.004 167.342 146.73 166.807 147.267C166.272 147.803 165.547 148.106 164.79 148.109V148.109ZM142.46 139.816C142.241 139.816 142.03 139.902 141.875 140.056C141.719 140.21 141.63 140.419 141.627 140.638V145.246C141.627 145.467 141.715 145.679 141.871 145.835C142.027 145.991 142.239 146.079 142.46 146.079H164.79C165.009 146.076 165.218 145.987 165.372 145.831C165.525 145.676 165.612 145.465 165.612 145.246V140.638C165.612 140.42 165.525 140.211 165.371 140.057C165.217 139.903 165.008 139.816 164.79 139.816H142.46Z" fill="#093F68"/>
<path d="M167.642 130.712H145.271C144.251 130.712 143.424 131.539 143.424 132.559V137.157C143.424 138.177 144.251 139.004 145.271 139.004H167.642C168.662 139.004 169.489 138.177 169.489 137.157V132.559C169.489 131.539 168.662 130.712 167.642 130.712Z" fill="#FFBC0E"/>
<path d="M167.652 140.019H145.322C144.565 140.019 143.838 139.719 143.302 139.184C142.765 138.65 142.462 137.924 142.46 137.167V132.559C142.46 131.8 142.761 131.072 143.298 130.535C143.835 129.998 144.563 129.697 145.322 129.697H167.652C168.027 129.697 168.399 129.771 168.746 129.915C169.092 130.059 169.407 130.27 169.672 130.536C169.937 130.802 170.147 131.117 170.29 131.464C170.433 131.812 170.505 132.184 170.504 132.559V137.167C170.504 137.923 170.204 138.649 169.669 139.184C169.134 139.719 168.408 140.019 167.652 140.019V140.019ZM145.322 131.727C145.101 131.727 144.889 131.814 144.733 131.97C144.577 132.127 144.49 132.338 144.49 132.559V137.167C144.492 137.386 144.581 137.595 144.737 137.749C144.893 137.903 145.103 137.989 145.322 137.989H167.652C167.87 137.989 168.079 137.903 168.233 137.748C168.387 137.594 168.474 137.385 168.474 137.167V132.559C168.474 132.34 168.388 132.13 168.234 131.974C168.08 131.818 167.871 131.729 167.652 131.727H145.322Z" fill="#093F68"/>
<path d="M33.0731 164.004H10.7025C9.68223 164.004 8.85516 164.831 8.85516 165.851V170.449C8.85516 171.469 9.68223 172.296 10.7025 172.296H33.0731C34.0933 172.296 34.9204 171.469 34.9204 170.449V165.851C34.9204 164.831 34.0933 164.004 33.0731 164.004Z" fill="#FFBC0E"/>
<path d="M33.0832 173.311H10.7532C9.99583 173.311 9.26933 173.011 8.73283 172.476C8.19634 171.942 7.89359 171.216 7.8909 170.459V165.851C7.8909 165.092 8.19246 164.364 8.72925 163.827C9.26603 163.29 9.99407 162.989 10.7532 162.989H33.0832C33.8423 162.989 34.5704 163.29 35.1072 163.827C35.6439 164.364 35.9455 165.092 35.9455 165.851V170.459C35.9428 171.216 35.6401 171.942 35.1036 172.476C34.5671 173.011 33.8406 173.311 33.0832 173.311V173.311ZM10.7532 165.019C10.5325 165.019 10.3208 165.106 10.1647 165.262C10.0086 165.419 9.9209 165.63 9.9209 165.851V170.459C9.92357 170.678 10.0124 170.887 10.1682 171.041C10.324 171.195 10.5342 171.281 10.7532 171.281H33.0832C33.3022 171.281 33.5124 171.195 33.6682 171.041C33.824 170.887 33.9128 170.678 33.9155 170.459V165.851C33.9155 165.63 33.8278 165.419 33.6717 165.262C33.5156 165.106 33.3039 165.019 33.0832 165.019H10.7532Z" fill="#093F68"/>
<path d="M28.7288 155.386H6.35826C5.33802 155.386 4.51096 156.213 4.51096 157.234V161.831C4.51096 162.852 5.33802 163.679 6.35826 163.679H28.7288C29.7491 163.679 30.5762 162.852 30.5762 161.831V157.234C30.5762 156.213 29.7491 155.386 28.7288 155.386Z" fill="#FFBC0E"/>
<path d="M28.7289 164.694H6.39886C6.02345 164.694 5.65174 164.62 5.30504 164.476C4.95834 164.332 4.64347 164.121 4.37849 163.855C4.11351 163.589 3.90363 163.273 3.7609 162.926C3.61816 162.579 3.54537 162.207 3.54671 161.831V157.223C3.54671 156.467 3.8472 155.741 4.38208 155.207C4.91697 154.672 5.64242 154.371 6.39886 154.371H28.7289C29.4862 154.371 30.2127 154.671 30.7492 155.206C31.2857 155.741 31.5885 156.466 31.5912 157.223V161.831C31.5912 162.591 31.2896 163.319 30.7528 163.855C30.216 164.392 29.488 164.694 28.7289 164.694V164.694ZM6.39886 156.401C6.18081 156.401 5.9717 156.488 5.81751 156.642C5.66333 156.796 5.57671 157.005 5.57671 157.223V161.831C5.57669 162.05 5.66299 162.261 5.81689 162.416C5.97078 162.572 6.17988 162.661 6.39886 162.664H28.7289C28.9496 162.664 29.1613 162.576 29.3174 162.42C29.4735 162.264 29.5612 162.052 29.5612 161.831V157.223C29.5585 157.004 29.4696 156.795 29.3138 156.641C29.158 156.488 28.9478 156.401 28.7289 156.401H6.39886Z" fill="#093F68"/>
<path d="M35.1842 147.094H12.8136C11.7934 147.094 10.9663 147.921 10.9663 148.941V153.539C10.9663 154.559 11.7934 155.386 12.8136 155.386H35.1842C36.2045 155.386 37.0315 154.559 37.0315 153.539V148.941C37.0315 147.921 36.2045 147.094 35.1842 147.094Z" fill="#FFBC0E"/>
<path d="M35.235 156.401H12.905C12.1476 156.399 11.4222 156.096 10.8876 155.559C10.353 155.023 10.0529 154.296 10.0529 153.539V148.931C10.0529 148.174 10.3533 147.449 10.8882 146.914C11.4231 146.379 12.1486 146.079 12.905 146.079H35.235C35.6104 146.077 35.9824 146.15 36.3296 146.293C36.6768 146.436 36.9924 146.646 37.2583 146.911C37.5243 147.176 37.7353 147.49 37.8792 147.837C38.0232 148.184 38.0973 148.555 38.0973 148.931V153.539C38.0973 154.298 37.7957 155.026 37.2589 155.563C36.7222 156.1 35.9941 156.401 35.235 156.401V156.401ZM12.905 148.109C12.687 148.109 12.4778 148.195 12.3237 148.35C12.1695 148.504 12.0829 148.713 12.0829 148.931V153.539C12.0828 153.758 12.1691 153.968 12.323 154.124C12.4769 154.28 12.686 154.369 12.905 154.371H35.235C35.4557 154.371 35.6674 154.284 35.8235 154.128C35.9796 153.971 36.0673 153.76 36.0673 153.539V148.931C36.0646 148.712 35.9758 148.503 35.82 148.349C35.6642 148.195 35.454 148.109 35.235 148.109H12.905Z" fill="#093F68"/>
<path d="M16.5793 82.3265C16.3592 82.3388 16.1411 82.279 15.958 82.1563C15.7749 82.0336 15.6367 81.8547 15.5643 81.6465L13.7881 76.4192C13.7346 76.2908 13.7082 76.1528 13.7103 76.0137C13.7125 75.8747 13.7432 75.7376 13.8005 75.6109C13.8579 75.4842 13.9406 75.3706 14.0437 75.2772C14.1468 75.1838 14.2679 75.1126 14.3997 75.068C14.5314 75.0234 14.6709 75.0064 14.8095 75.0179C14.9481 75.0295 15.0828 75.0694 15.2053 75.1351C15.3279 75.2009 15.4356 75.2912 15.5218 75.4004C15.608 75.5095 15.6708 75.6352 15.7064 75.7696L17.4826 80.9867C17.5699 81.2411 17.5527 81.5198 17.4347 81.7615C17.3167 82.0032 17.1076 82.1881 16.8533 82.2758C16.765 82.3062 16.6727 82.3233 16.5793 82.3265V82.3265Z" fill="#DFEAEF"/>
<path d="M20.284 93.2175C20.0627 93.2291 19.8437 93.1679 19.6604 93.0432C19.4771 92.9186 19.3397 92.7374 19.269 92.5273L17.4928 87.3102C17.4165 87.0588 17.4407 86.7876 17.5603 86.5536C17.6799 86.3197 17.8855 86.1412 18.134 86.0558C18.3825 85.9703 18.6544 85.9846 18.8925 86.0955C19.1307 86.2064 19.3166 86.4053 19.4111 86.6505L21.1874 91.8676C21.2747 92.122 21.2575 92.4006 21.1395 92.6423C21.0215 92.884 20.8124 93.069 20.5581 93.1566C20.47 93.1895 20.3778 93.21 20.284 93.2175Z" fill="#DFEAEF"/>
<path d="M20.3754 84.1941C20.1385 84.1892 19.9107 84.1016 19.7316 83.9464C19.5525 83.7913 19.4334 83.5783 19.3948 83.3445C19.3563 83.1107 19.4007 82.8708 19.5205 82.6663C19.6403 82.4618 19.8278 82.3057 20.0506 82.225L25.2677 80.4488C25.5221 80.3615 25.8007 80.3787 26.0424 80.4967C26.2841 80.6147 26.4691 80.8238 26.5567 81.0781C26.5997 81.2047 26.6173 81.3385 26.6084 81.4719C26.5995 81.6053 26.5643 81.7357 26.5049 81.8555C26.4455 81.9753 26.363 82.0821 26.2621 82.1699C26.1613 82.2577 26.0441 82.3247 25.9173 82.3671L20.7002 84.1434C20.5957 84.1791 20.4858 84.1963 20.3754 84.1941V84.1941Z" fill="#DFEAEF"/>
<path d="M9.48445 87.8989C9.24754 87.894 9.0198 87.8064 8.8407 87.6512C8.66161 87.4961 8.54246 87.2831 8.50389 87.0493C8.46533 86.8155 8.50978 86.5756 8.62955 86.3711C8.74932 86.1666 8.93686 86.0105 9.15965 85.9298L14.3768 84.1536C14.6282 84.0773 14.8994 84.1015 15.1333 84.2211C15.3673 84.3407 15.5457 84.5463 15.6312 84.7948C15.7166 85.0432 15.7024 85.3151 15.5915 85.5533C15.4806 85.7915 15.2817 85.9774 15.0365 86.0719L9.86001 87.8482C9.73912 87.8885 9.61171 87.9057 9.48445 87.8989Z" fill="#DFEAEF"/>
<path d="M10.1543 118.42C10.0029 118.421 9.85326 118.386 9.71789 118.318C9.4761 118.202 9.29018 117.995 9.20079 117.742C9.1114 117.489 9.1258 117.211 9.24084 116.968L11.6261 111.995C11.753 111.772 11.9597 111.605 12.2046 111.528C12.4494 111.452 12.7143 111.47 12.9459 111.581C13.1775 111.692 13.3585 111.886 13.4527 112.125C13.5468 112.363 13.5469 112.629 13.4531 112.868L11.0678 117.841C10.9856 118.014 10.8562 118.16 10.6945 118.262C10.5329 118.365 10.3457 118.419 10.1543 118.42Z" fill="#DFEAEF"/>
<path d="M5.18086 128.803C5.02938 128.805 4.87977 128.77 4.74441 128.702C4.50262 128.586 4.3167 128.378 4.22731 128.125C4.13792 127.872 4.15232 127.594 4.26736 127.352L6.65261 122.378C6.76889 122.137 6.97618 121.951 7.22915 121.861C7.48211 121.772 7.76018 121.786 8.00256 121.901C8.12357 121.959 8.23199 122.04 8.32155 122.14C8.41112 122.239 8.48007 122.356 8.52442 122.482C8.56877 122.609 8.58764 122.742 8.57995 122.876C8.57226 123.01 8.53816 123.141 8.47961 123.262L6.09436 128.225C6.0121 128.398 5.88269 128.544 5.72106 128.646C5.55944 128.748 5.37218 128.803 5.18086 128.803Z" fill="#DFEAEF"/>
<path d="M16.5286 124.814C16.3771 124.816 16.2275 124.781 16.0921 124.713L11.1186 122.328C10.8955 122.201 10.7288 121.994 10.652 121.749C10.5752 121.504 10.594 121.239 10.7046 121.008C10.8153 120.776 11.0095 120.595 11.2483 120.501C11.4871 120.407 11.7526 120.407 11.9915 120.501L16.965 122.886C17.1713 122.986 17.3378 123.153 17.4372 123.359C17.5366 123.566 17.5632 123.8 17.5126 124.023C17.462 124.247 17.3372 124.447 17.1585 124.591C16.9798 124.734 16.7578 124.813 16.5286 124.814V124.814Z" fill="#DFEAEF"/>
<path d="M6.1654 119.841C6.01074 119.842 5.85799 119.807 5.7188 119.739L0.725 117.405C0.501919 117.278 0.335191 117.071 0.25838 116.826C0.181568 116.582 0.200374 116.317 0.311014 116.085C0.421655 115.854 0.615914 115.672 0.854686 115.578C1.09346 115.484 1.35902 115.484 1.5979 115.578L6.5714 117.963C6.77772 118.063 6.94414 118.23 7.04357 118.436C7.14299 118.643 7.16957 118.877 7.11897 119.101C7.06837 119.324 6.94357 119.524 6.7649 119.668C6.58622 119.811 6.36419 119.89 6.13495 119.892L6.1654 119.841Z" fill="#DFEAEF"/>
<path d="M164.708 95.3592C164.565 95.3585 164.423 95.3274 164.292 95.2678C164.171 95.2121 164.061 95.1329 163.971 95.0348C163.88 94.9367 163.809 94.8216 163.763 94.6962C163.717 94.5707 163.696 94.4374 163.701 94.3038C163.707 94.1703 163.739 94.0391 163.795 93.9179L166.079 88.9038C166.134 88.7825 166.213 88.6733 166.31 88.5824C166.408 88.4915 166.522 88.4207 166.647 88.374C166.772 88.3274 166.905 88.3058 167.038 88.3104C167.171 88.3151 167.302 88.346 167.424 88.4013C167.545 88.4567 167.654 88.5353 167.745 88.6328C167.836 88.7304 167.907 88.8448 167.953 88.9697C168 89.0946 168.022 89.2274 168.017 89.3607C168.012 89.4939 167.981 89.6249 167.926 89.7462L165.642 94.7603C165.561 94.94 165.43 95.0923 165.264 95.1986C165.099 95.3049 164.905 95.3607 164.708 95.3592Z" fill="#DFEAEF"/>
<path d="M159.948 105.814C159.801 105.818 159.655 105.786 159.522 105.722C159.279 105.61 159.09 105.406 158.997 105.155C158.904 104.904 158.914 104.626 159.024 104.382L161.308 99.3683C161.363 99.247 161.442 99.1378 161.54 99.0469C161.637 98.956 161.752 98.8853 161.877 98.8386C162.001 98.7919 162.134 98.7704 162.267 98.775C162.401 98.7797 162.532 98.8106 162.653 98.8659C162.774 98.9212 162.884 98.9999 162.974 99.0974C163.065 99.195 163.136 99.3094 163.183 99.4343C163.229 99.5592 163.251 99.692 163.246 99.8253C163.242 99.9585 163.211 100.09 163.155 100.211L160.872 105.225C160.79 105.401 160.66 105.55 160.496 105.655C160.332 105.759 160.142 105.814 159.948 105.814Z" fill="#DFEAEF"/>
<path d="M171.245 101.612C171.097 101.612 170.951 101.577 170.819 101.51L165.805 99.2263C165.683 99.171 165.574 99.0923 165.483 98.9948C165.392 98.8973 165.322 98.7828 165.275 98.6579C165.228 98.533 165.207 98.4002 165.211 98.267C165.216 98.1337 165.247 98.0027 165.302 97.8814C165.357 97.7601 165.436 97.6509 165.534 97.56C165.631 97.4691 165.746 97.3983 165.871 97.3517C165.995 97.305 166.128 97.2834 166.262 97.2881C166.395 97.2928 166.526 97.3237 166.647 97.379L171.661 99.6729C171.906 99.7837 172.097 99.9869 172.192 100.238C172.287 100.489 172.279 100.768 172.169 101.013C172.089 101.191 171.959 101.342 171.795 101.448C171.631 101.554 171.44 101.611 171.245 101.612V101.612Z" fill="#DFEAEF"/>
<path d="M160.75 96.841C160.606 96.8404 160.464 96.8092 160.334 96.7497L155.31 94.4558C155.065 94.3441 154.874 94.1396 154.78 93.8874C154.686 93.6352 154.695 93.3559 154.807 93.1109C154.919 92.8659 155.123 92.6754 155.375 92.5812C155.628 92.4869 155.907 92.4968 156.152 92.6085L161.176 94.9024C161.388 94.9987 161.56 95.1646 161.663 95.3723C161.767 95.5801 161.797 95.8172 161.747 96.044C161.697 96.2709 161.571 96.4738 161.389 96.6188C161.208 96.7638 160.982 96.8423 160.75 96.841V96.841Z" fill="#DFEAEF"/>
</svg>
