<svg width="244" height="180" viewBox="0 0 244 180" fill="none" xmlns="http://www.w3.org/2000/svg">
<path d="M14.8363 178.617H49.8741C51.0569 178.617 52.0157 177.658 52.0157 176.475V170.578C52.0157 169.395 51.0569 168.436 49.8741 168.436H14.8363C13.6535 168.436 12.6947 169.395 12.6947 170.578V176.475C12.6947 177.658 13.6535 178.617 14.8363 178.617Z" fill="#FFBC0E"/>
<path d="M49.8741 179.632H14.8363C13.9982 179.632 13.1942 179.299 12.6006 178.708C12.007 178.116 11.6722 177.313 11.6695 176.475V170.578C11.6722 169.74 12.007 168.937 12.6006 168.345C13.1942 167.753 13.9982 167.421 14.8363 167.421H49.8741C50.7105 167.424 51.5118 167.757 52.1032 168.349C52.6946 168.94 53.0281 169.741 53.0307 170.578V176.475C53.0307 176.889 52.9491 177.3 52.7905 177.683C52.6318 178.066 52.3993 178.414 52.1062 178.707C51.8131 179 51.4651 179.233 51.0821 179.391C50.6991 179.55 50.2886 179.632 49.8741 179.632ZM14.8363 169.482C14.5365 169.482 14.2489 169.6 14.036 169.811C13.8231 170.022 13.7022 170.309 13.6995 170.608V176.505C13.7022 176.805 13.8231 177.092 14.036 177.303C14.2489 177.514 14.5365 177.632 14.8363 177.632H49.8741C50.022 177.632 50.1685 177.603 50.3052 177.546C50.4419 177.49 50.5661 177.407 50.6707 177.302C50.7754 177.197 50.8584 177.073 50.915 176.937C50.9716 176.8 51.0007 176.653 51.0007 176.505V170.608C51.0007 170.46 50.9716 170.314 50.915 170.177C50.8584 170.04 50.7754 169.916 50.6707 169.812C50.5661 169.707 50.4419 169.624 50.3052 169.567C50.1685 169.511 50.022 169.482 49.8741 169.482H14.8363Z" fill="#093F68"/>
<path d="M19.0384 168.436H54.0762C55.259 168.436 56.2178 167.477 56.2178 166.295V160.397C56.2178 159.215 55.259 158.256 54.0762 158.256H19.0384C17.8556 158.256 16.8967 159.215 16.8967 160.397V166.295C16.8967 167.477 17.8556 168.436 19.0384 168.436Z" fill="#FFBC0E"/>
<path d="M54.0762 169.451H19.0384C18.2002 169.451 17.3963 169.119 16.8027 168.527C16.2091 167.936 15.8743 167.133 15.8716 166.295V160.397C15.8743 159.559 16.2091 158.756 16.8027 158.165C17.3963 157.573 18.2002 157.241 19.0384 157.241H54.0762C54.9126 157.243 55.7139 157.577 56.3053 158.168C56.8967 158.76 57.2302 159.561 57.2328 160.397V166.295C57.2302 167.131 56.8967 167.932 56.3053 168.524C55.7139 169.115 54.9126 169.448 54.0762 169.451V169.451ZM19.0384 159.301C18.7386 159.301 18.451 159.42 18.2381 159.631C18.0252 159.842 17.9043 160.128 17.9016 160.428V166.325C17.9043 166.625 18.0252 166.911 18.2381 167.122C18.451 167.333 18.7386 167.452 19.0384 167.452H54.0762C54.2241 167.452 54.3706 167.422 54.5073 167.366C54.644 167.309 54.7682 167.226 54.8728 167.122C54.9775 167.017 55.0604 166.893 55.1171 166.756C55.1737 166.619 55.2028 166.473 55.2028 166.325V160.428C55.2028 160.28 55.1737 160.133 55.1171 159.997C55.0604 159.86 54.9775 159.736 54.8728 159.631C54.7682 159.527 54.644 159.444 54.5073 159.387C54.3706 159.33 54.2241 159.301 54.0762 159.301H19.0384Z" fill="#093F68"/>
<path d="M23.3217 158.256H58.3595C59.5423 158.256 60.5011 157.297 60.5011 156.114V150.217C60.5011 149.034 59.5423 148.075 58.3595 148.075H23.3217C22.1389 148.075 21.18 149.034 21.18 150.217V156.114C21.18 157.297 22.1389 158.256 23.3217 158.256Z" fill="#FFBC0E"/>
<path d="M58.3493 159.271H23.3116C22.4752 159.268 21.6738 158.935 21.0824 158.343C20.491 157.752 20.1576 156.95 20.1549 156.114V150.217C20.1549 149.38 20.4875 148.577 21.0795 147.985C21.6715 147.393 22.4744 147.06 23.3116 147.06H58.3493C59.1875 147.06 59.9914 147.392 60.585 147.984C61.1786 148.576 61.5135 149.379 61.5162 150.217V156.114C61.5135 156.952 61.1786 157.755 60.585 158.347C59.9914 158.938 59.1875 159.271 58.3493 159.271ZM23.3116 149.121C23.0127 149.121 22.7262 149.239 22.5149 149.451C22.3036 149.662 22.1849 149.949 22.1849 150.247V156.144C22.1849 156.443 22.3036 156.73 22.5149 156.941C22.7262 157.152 23.0127 157.271 23.3116 157.271H58.3493C58.6491 157.271 58.9367 157.153 59.1496 156.942C59.3625 156.731 59.4835 156.444 59.4862 156.144V150.247C59.4835 149.948 59.3625 149.661 59.1496 149.45C58.9367 149.239 58.6491 149.121 58.3493 149.121H23.3116Z" fill="#093F68"/>
<path d="M9.71051 148.065H44.7483C45.9311 148.065 46.89 147.106 46.89 145.923V140.026C46.89 138.843 45.9311 137.885 44.7483 137.885H9.71051C8.52771 137.885 7.56886 138.843 7.56886 140.026V145.923C7.56886 147.106 8.52771 148.065 9.71051 148.065Z" fill="#FFBC0E"/>
<path d="M44.7381 149.09H9.70035C8.86398 149.088 8.06263 148.754 7.47122 148.163C6.87981 147.571 6.54638 146.77 6.5437 145.934V140.036C6.5437 139.622 6.62535 139.211 6.78398 138.828C6.94262 138.445 7.17514 138.097 7.46826 137.804C7.76138 137.511 8.10937 137.279 8.49235 137.12C8.87533 136.961 9.28581 136.88 9.70035 136.88H44.7381C45.5763 136.88 46.3802 137.212 46.9738 137.804C47.5674 138.395 47.9023 139.198 47.905 140.036V145.934C47.9023 146.772 47.5674 147.575 46.9738 148.166C46.3802 148.758 45.5763 149.09 44.7381 149.09V149.09ZM9.70035 138.94C9.40155 138.94 9.11498 139.059 8.90369 139.27C8.6924 139.481 8.5737 139.768 8.5737 140.067V145.964C8.5737 146.112 8.60284 146.258 8.65946 146.395C8.71608 146.532 8.79907 146.656 8.90369 146.761C9.00831 146.865 9.13251 146.948 9.2692 147.005C9.40589 147.062 9.5524 147.091 9.70035 147.091H44.7381C45.0379 147.091 45.3255 146.972 45.5384 146.761C45.7513 146.55 45.8723 146.264 45.875 145.964V140.067C45.875 139.918 45.8455 139.771 45.7882 139.633C45.731 139.496 45.6471 139.371 45.5414 139.267C45.4357 139.162 45.3103 139.079 45.1724 139.023C45.0346 138.967 44.887 138.939 44.7381 138.94H9.70035Z" fill="#093F68"/>
<path d="M14.8363 137.895H49.8741C51.0569 137.895 52.0157 136.936 52.0157 135.753V129.856C52.0157 128.673 51.0569 127.714 49.8741 127.714H14.8363C13.6535 127.714 12.6947 128.673 12.6947 129.856V135.753C12.6947 136.936 13.6535 137.895 14.8363 137.895Z" fill="#FFBC0E"/>
<path d="M49.8741 138.91H14.8363C13.9964 138.91 13.1909 138.576 12.597 137.982C12.0031 137.388 11.6695 136.583 11.6695 135.743V129.856C11.6695 129.44 11.7514 129.028 11.9106 128.644C12.0697 128.26 12.303 127.911 12.597 127.617C12.8911 127.323 13.2402 127.089 13.6244 126.93C14.0086 126.771 14.4204 126.689 14.8363 126.689H49.8741C50.7122 126.692 51.5151 127.027 52.1068 127.62C52.6985 128.214 53.0307 129.018 53.0307 129.856V135.743C53.0307 136.581 52.6985 137.385 52.1068 137.979C51.5151 138.572 50.7122 138.907 49.8741 138.91V138.91ZM14.8363 128.76C14.5348 128.76 14.2456 128.88 14.0325 129.093C13.8193 129.306 13.6995 129.595 13.6995 129.897V135.784C13.6995 136.085 13.8193 136.374 14.0325 136.587C14.2456 136.801 14.5348 136.92 14.8363 136.92H49.8741C50.1738 136.918 50.4604 136.797 50.6714 136.584C50.8824 136.371 51.0008 136.083 51.0007 135.784V129.897C51.0008 129.597 50.8824 129.309 50.6714 129.096C50.4604 128.883 50.1738 128.762 49.8741 128.76H14.8363Z" fill="#093F68"/>
<path d="M56.3396 94.808C52.036 94.808 45.4081 94.0265 40.7289 89.8853C40.0627 89.3028 39.4939 88.6174 39.044 87.8553C36.3543 87.5001 32.954 86.1095 29.2797 82.3033C29.0926 82.1094 28.9902 81.8492 28.995 81.5799C28.9997 81.3105 29.1113 81.0541 29.3051 80.867C29.4989 80.6799 29.7591 80.5775 30.0285 80.5823C30.2978 80.587 30.5542 80.6986 30.7413 80.8924C32.7179 83.1003 35.2583 84.7284 38.0899 85.602C37.5156 83.503 37.446 81.2979 37.8869 79.1669C38.567 75.8783 40.2925 73.4727 42.5052 72.7521C43.8145 72.3258 45.9054 72.2953 48.4125 74.5588C49.2527 75.3233 49.8652 76.3053 50.1822 77.3962C50.4993 78.4871 50.5086 79.6443 50.209 80.7401C49.7609 82.3912 48.8832 83.8941 47.6655 85.0957C46.4478 86.2974 44.9334 87.155 43.2766 87.5812C42.7183 87.735 42.1478 87.8402 41.5714 87.8959C41.7269 88.0717 41.8929 88.2378 42.0687 88.3933C48.6865 94.2498 60.2271 92.575 60.3387 92.5547C60.6079 92.5144 60.8821 92.5826 61.101 92.7444C61.3199 92.9062 61.4656 93.1483 61.506 93.4175C61.5464 93.6867 61.4781 93.9609 61.3163 94.1798C61.1545 94.3987 60.9124 94.5444 60.6432 94.5847C59.2152 94.7545 57.7775 94.8291 56.3396 94.808ZM40.3432 85.8963C41.1526 85.9179 41.9604 85.8152 42.7386 85.5918C44.0415 85.2544 45.2336 84.5823 46.1967 83.6423C47.1599 82.7023 47.8607 81.5269 48.2298 80.2326C48.4406 79.4918 48.4422 78.707 48.2344 77.9654C48.0265 77.2237 47.6174 76.554 47.0524 76.0306C45.6212 74.7415 44.3017 74.2746 43.1345 74.6502C41.6526 75.1374 40.394 77.0151 39.8763 79.5526C39.42 81.6682 39.5821 83.8704 40.3432 85.8963V85.8963Z" fill="#093F68"/>
<path d="M179.378 62.2164C179.378 62.2164 206.783 42.8705 205.961 51.5285C205.139 60.1864 199.089 77.9185 199.089 77.9185" fill="#5183F2"/>
<path d="M199.14 78.9436C199.026 78.9423 198.912 78.9217 198.805 78.8827C198.551 78.795 198.342 78.61 198.224 78.3683C198.106 78.1266 198.088 77.848 198.176 77.5936C198.237 77.4211 204.266 59.8717 205.007 51.4371C205.078 50.6454 204.824 50.5033 204.743 50.4221C202.347 49.0315 190.289 55.7407 180.007 63.0081C179.801 63.0859 179.575 63.0946 179.364 63.0329C179.153 62.9712 178.967 62.8423 178.835 62.6659C178.703 62.4894 178.633 62.2749 178.634 62.0546C178.634 61.8344 178.707 61.6204 178.84 61.445C182.504 58.8466 201.038 46.0474 205.758 48.7473C206.241 49.0452 206.622 49.484 206.849 50.0048C207.076 50.5256 207.138 51.1033 207.027 51.6604C206.255 60.3488 200.348 77.5733 200.094 78.3041C200.018 78.4946 199.887 78.6576 199.716 78.7718C199.546 78.8859 199.345 78.9458 199.14 78.9436Z" fill="#093F68"/>
<path d="M160.347 178.617H169.319C171.021 178.617 172.664 178 173.945 176.88C175.225 175.76 176.056 174.213 176.282 172.527L179.865 146.34H149.811L153.394 172.527C153.618 174.212 154.446 175.759 155.725 176.879C157.004 177.999 158.646 178.617 160.347 178.617V178.617Z" fill="#5183F2"/>
<path d="M169.319 179.632H160.347C158.407 179.626 156.534 178.921 155.072 177.645C153.611 176.37 152.658 174.61 152.389 172.689L148.806 146.502C148.787 146.359 148.799 146.213 148.841 146.075C148.883 145.936 148.954 145.809 149.05 145.7C149.144 145.59 149.261 145.501 149.392 145.44C149.523 145.379 149.666 145.346 149.811 145.345H179.855C180.002 145.345 180.146 145.377 180.28 145.438C180.413 145.499 180.531 145.589 180.626 145.7C180.722 145.809 180.793 145.936 180.835 146.075C180.877 146.213 180.889 146.359 180.87 146.502L177.287 172.689C177.006 174.607 176.048 176.361 174.587 177.634C173.126 178.907 171.257 179.616 169.319 179.632ZM150.978 147.375L154.399 172.405C154.599 173.842 155.311 175.158 156.403 176.113C157.496 177.067 158.896 177.596 160.347 177.602H169.319C170.772 177.598 172.174 177.071 173.269 176.116C174.364 175.161 175.077 173.843 175.277 172.405L178.698 147.375H150.978Z" fill="#093F68"/>
<path d="M89.3271 178.617H98.2997C100.001 178.617 101.645 178 102.925 176.88C104.206 175.76 105.036 174.213 105.263 172.527L108.835 146.34H78.7914L82.3744 172.527C82.5962 174.213 83.4241 175.761 84.7035 176.881C85.9829 178.002 87.6264 178.619 89.3271 178.617V178.617Z" fill="#5183F2"/>
<path d="M98.2997 179.632H89.3271C87.3961 179.606 85.5373 178.893 84.0845 177.621C82.6316 176.348 81.6799 174.6 81.4 172.689L77.8272 146.502C77.8084 146.359 77.8204 146.213 77.8624 146.075C77.9044 145.936 77.9754 145.809 78.0708 145.7C78.165 145.59 78.2816 145.501 78.4129 145.44C78.5443 145.379 78.6871 145.346 78.832 145.345H108.805C108.952 145.345 109.096 145.377 109.23 145.438C109.363 145.499 109.481 145.589 109.576 145.7C109.67 145.81 109.739 145.938 109.779 146.076C109.82 146.214 109.83 146.359 109.81 146.502L106.237 172.689C105.957 174.602 105.004 176.351 103.549 177.624C102.094 178.897 100.233 179.608 98.2997 179.632ZM79.9485 147.375L83.43 172.405C83.6282 173.843 84.3393 175.16 85.4323 176.115C86.5253 177.07 87.9265 177.598 89.3779 177.602H98.3505C99.803 177.598 101.206 177.071 102.3 176.116C103.395 175.161 104.108 173.843 104.309 172.405L107.729 147.375H79.9485Z" fill="#093F68"/>
<path d="M104.877 50.28H152.176C166.57 50.28 180.374 55.9979 190.552 66.1759C200.73 76.3539 206.448 90.1582 206.448 104.552V108.216C206.445 119.686 202.809 130.861 196.062 140.136C189.316 149.412 179.804 156.313 168.893 159.849L167.157 172.547C166.931 174.233 166.101 175.78 164.82 176.9C163.539 178.02 161.896 178.637 160.194 178.637H151.222C149.52 178.637 147.877 178.02 146.596 176.9C145.316 175.78 144.485 174.233 144.259 172.547L142.889 162.488H104.877C102.395 162.486 99.9157 162.313 97.4573 161.971L96.0058 172.547C95.7799 174.231 94.9508 175.777 93.6723 176.897C92.3938 178.016 90.7526 178.635 89.0531 178.637H80.0805C78.3791 178.637 76.7355 178.02 75.4549 176.9C74.1743 175.78 73.3437 174.233 73.1176 172.547L70.0117 149.801C63.9249 144.71 59.0315 138.344 55.6779 131.153C52.3243 123.961 50.5924 116.121 50.6049 108.186V104.522C50.6129 90.133 56.3344 76.3365 66.5115 66.1651C76.6886 55.9937 90.4883 50.28 104.877 50.28V50.28Z" fill="#5183F2"/>
<path d="M160.225 179.632H151.252C149.319 179.609 147.458 178.897 146.003 177.624C144.548 176.351 143.595 174.602 143.315 172.689L142.067 163.554H104.877C102.685 163.551 100.496 163.419 98.3201 163.158L97.0107 172.74C96.742 174.661 95.7893 176.421 94.3275 177.696C92.8657 178.971 90.993 179.677 89.0531 179.682H80.0805C78.1424 179.667 76.2739 178.958 74.8126 177.685C73.3514 176.411 72.3937 174.657 72.1128 172.74L69.0678 150.41C62.9607 145.226 58.0557 138.775 54.6937 131.504C51.3318 124.234 49.5937 116.318 49.6001 108.308V104.643C49.592 89.9712 55.4099 75.8962 65.7752 65.5119C76.1405 55.1276 90.2048 49.2838 104.877 49.265H152.176C166.834 49.2811 180.887 55.1112 191.252 65.476C201.617 75.8409 207.447 89.894 207.463 104.552V108.216C207.487 119.794 203.865 131.086 197.112 140.49C190.358 149.894 180.816 156.934 169.837 160.611L168.193 172.689C167.912 174.607 166.954 176.361 165.493 177.634C164.032 178.907 162.163 179.616 160.225 179.632ZM97.4573 160.915H97.64C100.055 161.247 102.49 161.417 104.928 161.423H142.97C143.218 161.42 143.458 161.509 143.645 161.672C143.832 161.834 143.953 162.06 143.985 162.306L145.365 172.354C145.564 173.792 146.275 175.11 147.368 176.065C148.461 177.019 149.862 177.547 151.313 177.551H160.286C161.738 177.548 163.141 177.02 164.236 176.065C165.33 175.111 166.043 173.793 166.244 172.354L167.98 159.656C168.006 159.469 168.085 159.292 168.207 159.147C168.329 159.001 168.489 158.893 168.67 158.834C179.385 155.38 188.725 148.611 195.344 139.504C201.962 130.397 205.516 119.423 205.494 108.165V104.501C205.464 90.3799 199.834 76.8469 189.838 66.872C179.842 56.8971 166.297 51.295 152.176 51.295H104.877C90.7573 51.3111 77.2205 56.9273 67.2363 66.9114C57.2522 76.8956 51.636 90.4324 51.6199 104.552V108.216C51.6157 115.996 53.3186 123.682 56.6087 130.733C59.8988 137.783 64.6958 144.025 70.6613 149.019C70.8515 149.184 70.9773 149.41 71.0166 149.659L74.1225 172.405C74.323 173.843 75.0361 175.161 76.1308 176.116C77.2254 177.071 78.628 177.598 80.0805 177.602H89.0531C90.5039 177.596 91.904 177.067 92.9965 176.113C94.0891 175.158 94.8007 173.842 95.001 172.405L96.4423 161.839C96.461 161.706 96.5056 161.579 96.5735 161.464C96.6414 161.349 96.7314 161.249 96.8382 161.169C97.0099 161.017 97.2282 160.927 97.4573 160.915V160.915Z" fill="#093F68"/>
<path d="M177.439 132.434H200.317C207.924 132.434 214.091 126.267 214.091 118.661V116.905C214.091 109.298 207.924 103.131 200.317 103.131H177.439C169.832 103.131 163.666 109.298 163.666 116.905V118.661C163.666 126.267 169.832 132.434 177.439 132.434Z" fill="#5183F2"/>
<path d="M200.317 133.449H177.439C173.519 133.444 169.76 131.884 166.988 129.112C164.216 126.339 162.656 122.581 162.651 118.661V116.905C162.656 112.984 164.216 109.226 166.988 106.453C169.76 103.681 173.519 102.121 177.439 102.116H200.317C204.238 102.121 207.996 103.681 210.769 106.453C213.541 109.226 215.101 112.984 215.106 116.905V118.661C215.101 122.581 213.541 126.339 210.769 129.112C207.996 131.884 204.238 133.444 200.317 133.449V133.449ZM177.439 104.146C174.057 104.151 170.815 105.497 168.424 107.889C166.032 110.28 164.686 113.522 164.681 116.905V118.661C164.686 122.043 166.032 125.285 168.424 127.676C170.815 130.068 174.057 131.414 177.439 131.419H200.317C203.7 131.414 206.942 130.068 209.333 127.676C211.725 125.285 213.071 122.043 213.076 118.661V116.905C213.071 113.522 211.725 110.28 209.333 107.889C206.942 105.497 203.7 104.151 200.317 104.146H177.439Z" fill="#093F68"/>
<path d="M169.015 64.1754C169.015 64.1754 159.88 40.2315 155.16 40.2315C150.44 40.2315 143.315 70.7932 143.315 70.7932" fill="#5183F2"/>
<path d="M143.315 71.8082H143.082C142.949 71.7806 142.823 71.7267 142.711 71.6496C142.599 71.5725 142.504 71.4737 142.431 71.3592C142.358 71.2447 142.309 71.1168 142.287 70.9829C142.264 70.8491 142.269 70.7121 142.3 70.58C142.3 70.509 144.117 62.8254 146.472 55.2332C150.877 41.0232 153.424 39.2368 155.15 39.2368C160.225 39.2368 167.756 58.0651 169.959 63.8303C170.006 63.9549 170.028 64.0876 170.024 64.2209C170.02 64.3541 169.99 64.4853 169.936 64.6069C169.881 64.7285 169.803 64.8381 169.706 64.9295C169.609 65.0209 169.495 65.0923 169.37 65.1396C169.245 65.1869 169.113 65.2093 168.979 65.2053C168.846 65.2013 168.715 65.1712 168.593 65.1165C168.472 65.0618 168.362 64.9837 168.271 64.8867C168.179 64.7896 168.108 64.6755 168.061 64.5509C163.788 53.3859 157.637 41.2668 155.15 41.2668C153.252 41.2668 148.431 53.2337 144.279 71.0469C144.224 71.2617 144.099 71.4525 143.925 71.59C143.751 71.7275 143.537 71.8041 143.315 71.8082V71.8082Z" fill="#093F68"/>
<path d="M196.897 122.01C199.229 122.01 201.119 120.12 201.119 117.788C201.119 115.456 199.229 113.565 196.897 113.565C194.565 113.565 192.674 115.456 192.674 117.788C192.674 120.12 194.565 122.01 196.897 122.01Z" fill="#5183F2"/>
<path d="M196.897 123.025C195.859 123.025 194.844 122.717 193.98 122.14C193.117 121.563 192.445 120.743 192.048 119.783C191.651 118.824 191.548 117.768 191.751 116.75C191.954 115.732 192.455 114.797 193.19 114.063C193.925 113.33 194.861 112.831 195.879 112.63C196.898 112.428 197.953 112.534 198.912 112.932C199.871 113.331 200.69 114.005 201.265 114.869C201.84 115.734 202.146 116.749 202.144 117.788C202.142 119.178 201.588 120.51 200.604 121.492C199.62 122.474 198.287 123.025 196.897 123.025ZM196.897 114.57C196.26 114.57 195.638 114.759 195.109 115.112C194.58 115.466 194.168 115.968 193.924 116.556C193.681 117.144 193.617 117.791 193.741 118.415C193.865 119.039 194.172 119.613 194.622 120.063C195.072 120.513 195.645 120.819 196.269 120.943C196.893 121.067 197.54 121.004 198.128 120.76C198.716 120.517 199.219 120.104 199.572 119.575C199.926 119.046 200.114 118.424 200.114 117.788C200.114 117.365 200.031 116.947 199.869 116.556C199.708 116.166 199.471 115.811 199.172 115.512C198.873 115.214 198.519 114.977 198.128 114.815C197.738 114.653 197.319 114.57 196.897 114.57Z" fill="#093F68"/>
<path d="M180.86 122.01C183.192 122.01 185.082 120.12 185.082 117.788C185.082 115.456 183.192 113.565 180.86 113.565C178.528 113.565 176.637 115.456 176.637 117.788C176.637 120.12 178.528 122.01 180.86 122.01Z" fill="#5183F2"/>
<path d="M180.87 123.025C179.831 123.027 178.815 122.721 177.951 122.145C177.086 121.569 176.412 120.75 176.014 119.79C175.615 118.831 175.51 117.775 175.713 116.756C175.915 115.737 176.415 114.801 177.149 114.067C177.884 113.332 178.82 112.832 179.839 112.63C180.857 112.428 181.913 112.533 182.873 112.931C183.832 113.33 184.651 114.004 185.227 114.868C185.803 115.733 186.109 116.749 186.107 117.788C186.105 119.176 185.552 120.506 184.57 121.488C183.589 122.47 182.258 123.022 180.87 123.025V123.025ZM180.87 114.57C180.233 114.568 179.61 114.755 179.08 115.107C178.549 115.46 178.135 115.961 177.89 116.549C177.645 117.137 177.58 117.784 177.703 118.409C177.826 119.034 178.131 119.608 178.581 120.059C179.031 120.51 179.604 120.818 180.228 120.943C180.853 121.068 181.5 121.004 182.089 120.761C182.677 120.518 183.18 120.106 183.534 119.576C183.888 119.047 184.077 118.424 184.077 117.788C184.077 116.936 183.74 116.119 183.139 115.516C182.537 114.913 181.722 114.573 180.87 114.57Z" fill="#093F68"/>
<path d="M92.4026 58.1564C92.4026 58.859 92.6817 59.5328 93.1785 60.0296C93.6753 60.5264 94.3491 60.8055 95.0517 60.8055H135.256C135.603 60.8055 135.947 60.7369 136.268 60.6037C136.589 60.4704 136.88 60.2751 137.126 60.029C137.371 59.7829 137.565 59.4907 137.697 59.1694C137.829 58.848 137.896 58.5038 137.895 58.1564C137.896 57.8111 137.828 57.4692 137.695 57.1503C137.563 56.8315 137.369 56.5421 137.123 56.2989C136.674 55.8466 136.075 55.5725 135.439 55.5275H94.8386C94.1762 55.5786 93.5574 55.8777 93.1059 56.365C92.6543 56.8523 92.4032 57.492 92.4026 58.1564V58.1564Z" fill="#093F68"/>
<path d="M135.256 61.8205H95.0517C94.0826 61.8542 93.1399 61.5015 92.4308 60.84C91.7218 60.1785 91.3045 59.2625 91.2709 58.2934C91.2372 57.3243 91.5899 56.3815 92.2514 55.6725C92.9129 54.9634 93.8289 54.5462 94.798 54.5125H135.256H135.581C136.43 54.5648 137.232 54.9258 137.834 55.5275C138.176 55.864 138.447 56.2653 138.632 56.7081C138.817 57.1508 138.911 57.6259 138.91 58.1056C138.917 58.5902 138.827 59.0713 138.647 59.5211C138.466 59.9708 138.198 60.3803 137.858 60.7258C137.519 61.0713 137.114 61.346 136.667 61.5339C136.22 61.7218 135.741 61.8192 135.256 61.8205V61.8205ZM95.0517 56.5324H94.93C94.4992 56.5485 94.0926 56.7351 93.7994 57.0511C93.5063 57.3671 93.3507 57.7866 93.3668 58.2173C93.383 58.648 93.5696 59.0546 93.8856 59.3478C94.2016 59.6409 94.621 59.7965 95.0517 59.7804H135.256C135.687 59.7952 136.106 59.6383 136.421 59.3442C136.736 59.0501 136.921 58.6429 136.936 58.2122C136.951 57.7815 136.794 57.3625 136.5 57.0475C136.205 56.7325 135.798 56.5472 135.368 56.5324H95.0517Z" fill="#093F68"/>
<path d="M194.786 95.7723C195.952 95.7723 196.897 93.7955 196.897 91.357C196.897 88.9186 195.952 86.9418 194.786 86.9418C193.62 86.9418 192.674 88.9186 192.674 91.357C192.674 93.7955 193.62 95.7723 194.786 95.7723Z" fill="#093F68"/>
<path d="M176.637 95.7723C177.803 95.7723 178.749 93.7955 178.749 91.357C178.749 88.9186 177.803 86.9418 176.637 86.9418C175.471 86.9418 174.526 88.9186 174.526 91.357C174.526 93.7955 175.471 95.7723 176.637 95.7723Z" fill="#093F68"/>
<path d="M57.9839 115.463C57.745 115.468 57.5123 115.388 57.3266 115.237C57.141 115.087 57.0143 114.876 56.9689 114.641C51.5082 85.5614 73.8078 70.103 74.0412 69.9812C74.2638 69.8333 74.5357 69.7791 74.7979 69.8304C75.0601 69.8817 75.2915 70.0344 75.4419 70.2552C75.594 70.4773 75.6516 70.7507 75.6021 71.0153C75.5527 71.2799 75.4001 71.514 75.178 71.6661C74.9649 71.8082 53.7514 86.5561 58.938 114.296C58.9855 114.56 58.9268 114.832 58.7746 115.052C58.6225 115.273 58.3894 115.424 58.126 115.473L57.9839 115.463Z" fill="white"/>
<path d="M140.199 37.8868C150.295 37.8868 158.479 29.7025 158.479 19.6067C158.479 9.51084 150.295 1.32654 140.199 1.32654C130.103 1.32654 121.919 9.51084 121.919 19.6067C121.919 29.7025 130.103 37.8868 140.199 37.8868Z" fill="#FFBC0E"/>
<path d="M140.189 38.912C135.379 38.9235 130.738 37.1439 127.169 33.9202C123.599 30.6964 121.358 26.2593 120.882 21.4734C120.405 16.6875 121.728 11.8957 124.591 8.0315C127.455 4.16735 131.655 1.5077 136.372 0.570769C141.089 -0.366161 145.987 0.486743 150.11 2.9633C154.232 5.43986 157.286 9.36266 158.674 13.9674C160.063 18.5721 159.688 23.5289 157.621 27.8719C155.555 32.215 151.946 35.6332 147.497 37.4605C145.178 38.4148 142.696 38.9078 140.189 38.912V38.912ZM140.189 2.37198C136.794 2.37985 133.476 3.38437 130.647 5.26091C127.817 7.13745 125.601 9.8034 124.274 12.928V12.928C122.844 16.3452 122.552 20.1316 123.441 23.7274C124.33 27.3232 126.353 30.5376 129.21 32.8951C132.067 35.2527 135.606 36.6283 139.306 36.8186C143.005 37.0089 146.667 36.0038 149.751 33.9519C152.835 31.8999 155.176 28.9101 156.429 25.4245C157.683 21.9389 157.781 18.1425 156.71 14.5967C155.639 11.0509 153.455 7.94385 150.482 5.73503C147.508 3.52621 143.903 2.33284 140.199 2.33138L140.189 2.37198Z" fill="#093F68"/>
<path d="M136.078 5.84326C136.443 6.72631 136.819 7.59921 137.174 8.48226C137.245 8.65481 137.326 8.68526 137.509 8.65481C138.902 8.35811 140.346 8.41394 141.711 8.81721C143.152 9.24303 144.385 10.1866 145.172 11.4664C145.386 11.8115 145.578 12.1769 145.792 12.5524L141.732 14.2576C141.469 13.6468 141.007 13.1425 140.422 12.8265C139.935 12.6304 139.437 12.4643 138.93 12.3291V12.4205L141.062 17.4955L141.539 17.4143C142.733 17.1674 143.953 17.0618 145.172 17.0996C146.07 17.1312 146.944 17.4007 147.703 17.8804C148.463 18.3601 149.082 19.0328 149.496 19.83C150.297 21.1571 150.607 22.7234 150.372 24.2556C150.136 25.7878 149.37 27.1887 148.207 28.2139C147.568 28.7924 146.847 29.2898 146.177 29.848L147.01 31.878L143.254 33.4513L142.401 31.4213C141.559 31.5329 140.767 31.6852 139.965 31.7359C138.418 31.8731 136.869 31.4833 135.571 30.6296C134.48 29.8757 133.636 28.8164 133.145 27.5846L137.205 25.8997C137.52 26.5859 138.053 27.1488 138.721 27.5012C139.389 27.8535 140.155 27.9756 140.899 27.8485C140.141 26.0215 139.38 24.2046 138.616 22.3979C137.763 22.4994 136.91 22.6111 136.058 22.6923C135.031 22.8336 133.985 22.7185 133.013 22.3573C132.033 21.9472 131.208 21.2364 130.658 20.3273C129.934 19.2622 129.513 18.0202 129.44 16.7342C129.393 15.8071 129.551 14.881 129.902 14.0216C130.252 13.1621 130.788 12.3903 131.47 11.7607C132.043 11.2672 132.647 10.8096 133.277 10.3905C133.348 10.335 133.422 10.2842 133.5 10.2382L132.353 7.49771L136.078 5.84326ZM144.614 26.1433C145.207 25.8097 145.687 25.3082 145.995 24.702C146.256 24.1791 146.313 23.5778 146.155 23.0151C145.998 22.4523 145.637 21.9682 145.142 21.657C144.35 21.3546 143.489 21.2773 142.655 21.4337L144.614 26.1433ZM134.931 13.6385C134.517 14.0543 134.137 14.5023 133.794 14.9783C133.629 15.2458 133.524 15.5459 133.486 15.858C133.449 16.1701 133.479 16.4866 133.576 16.7858C133.672 17.0849 133.832 17.3596 134.045 17.5908C134.258 17.822 134.519 18.0041 134.809 18.1248C135.474 18.2897 136.167 18.3071 136.839 18.1755L134.931 13.6385Z" fill="white"/>
<path d="M131.927 58.6943C132.225 58.033 132.486 57.3552 132.708 56.6643C132.985 55.7881 133.195 54.8924 133.338 53.9847C133.489 53.0382 133.564 52.081 133.561 51.1224C133.561 46.2769 131.636 41.6299 128.21 38.2036C124.783 34.7773 120.136 32.8524 115.291 32.8524C110.445 32.8524 105.798 34.7773 102.372 38.2036C98.9457 41.6299 97.0208 46.2769 97.0208 51.1224C97.0196 52.0805 97.0909 53.0374 97.234 53.9847C97.3798 54.8926 97.5936 55.7884 97.8734 56.6643C98.0873 57.3566 98.345 58.0347 98.6448 58.6943" fill="#FFBC0E"/>
<path d="M131.927 59.7094C131.787 59.7105 131.649 59.6828 131.521 59.6282C131.399 59.5742 131.288 59.4968 131.196 59.4003C131.104 59.3037 131.032 59.19 130.984 59.0656C130.936 58.9411 130.913 58.8084 130.916 58.6751C130.919 58.5417 130.949 58.4103 131.003 58.2884C131.283 57.6667 131.527 57.0296 131.734 56.3802C132.003 55.5523 132.203 54.7035 132.333 53.8427C132.476 52.9498 132.547 52.047 132.546 51.1428C132.526 48.7743 132.02 46.4352 131.057 44.2711C130.094 42.1071 128.696 40.1643 126.95 38.5639C125.204 36.9635 123.148 35.7398 120.908 34.9688C118.668 34.1978 116.294 33.8962 113.933 34.0826C111.572 34.2691 109.274 34.9397 107.184 36.0526C105.093 37.1656 103.254 38.697 101.78 40.5516C100.307 42.4063 99.2315 44.5443 98.6205 46.8327C98.0094 49.121 97.8761 51.5107 98.2287 53.8528C98.369 54.7082 98.5691 55.5527 98.8275 56.3802C99.0375 57.0286 99.2814 57.6656 99.5583 58.2884C99.6268 58.4115 99.6689 58.5475 99.682 58.6878C99.695 58.8281 99.6787 58.9695 99.6341 59.1032C99.5895 59.2368 99.5175 59.3597 99.4228 59.464C99.3281 59.5683 99.2127 59.6518 99.084 59.709C98.9553 59.7663 98.8161 59.7962 98.6752 59.7967C98.5343 59.7973 98.3949 59.7685 98.2657 59.7122C98.1366 59.6559 98.0205 59.5733 97.9251 59.4697C97.8296 59.3661 97.7567 59.2438 97.711 59.1105C97.3952 58.4203 97.1206 57.712 96.8889 56.9892C96.6009 56.0651 96.377 55.1223 96.219 54.1675C96.0664 53.1597 95.9918 52.1417 95.9957 51.1225C95.9957 46.0078 98.0275 41.1025 101.644 37.4859C105.261 33.8693 110.166 31.8375 115.281 31.8375C120.395 31.8375 125.301 33.8693 128.917 37.4859C132.534 41.1025 134.566 46.0078 134.566 51.1225C134.567 52.142 134.489 53.1601 134.332 54.1675C134.18 55.1269 133.956 56.0735 133.662 56.9993C133.43 57.7204 133.159 58.4286 132.85 59.1207C132.769 59.2968 132.638 59.446 132.475 59.5503C132.311 59.6546 132.121 59.7098 131.927 59.7094Z" fill="#093F68"/>
<path d="M124.284 55.1317C124.242 54.7453 124.16 54.3644 124.04 53.9949C123.825 53.3193 123.467 52.6978 122.99 52.1725C122.514 51.6472 121.931 51.2302 121.279 50.9499C120.17 50.4462 119.004 50.0749 117.808 49.8435L117.331 49.7319V44.19L117.412 44.1291C117.825 44.4432 118.218 44.7822 118.59 45.1441C119.013 45.6592 119.246 46.3044 119.249 46.9711H123.675C123.614 46.5448 123.583 46.1388 123.522 45.7328C123.291 44.2457 122.517 42.8971 121.35 41.9468C120.246 41.053 118.939 40.4432 117.544 40.1706C117.361 40.1706 117.311 40.0792 117.311 39.8864V37.085H113.251V40.0488H112.987C112.242 40.1997 111.507 40.3929 110.784 40.6273C109.908 40.935 109.112 41.4333 108.452 42.0863C107.792 42.7392 107.285 43.5305 106.968 44.4031C106.528 45.6189 106.433 46.9328 106.694 48.1992C106.866 49.2357 107.355 50.1932 108.094 50.9397C108.852 51.641 109.768 52.1493 110.764 52.4216C111.576 52.6754 112.408 52.8987 113.23 53.1321V58.6537H117.29V54.0355C118.117 54.2163 118.879 54.6199 119.493 55.2027C119.811 55.6124 119.959 56.1281 119.909 56.644C119.895 56.9603 119.818 57.2707 119.682 57.5566C119.546 57.8426 119.354 58.0983 119.117 58.3086C118.961 58.4421 118.791 58.5578 118.61 58.6537H123.817C124.097 58.011 124.262 57.3238 124.304 56.6237C124.349 56.127 124.342 55.627 124.284 55.1317V55.1317ZM111.424 47.9252C111.197 47.7033 111.021 47.4345 110.909 47.1376C110.798 46.8406 110.752 46.5228 110.776 46.2064C110.801 45.8901 110.894 45.5828 111.049 45.3064C111.205 45.0299 111.419 44.7909 111.677 44.6061C112.175 44.3073 112.694 44.046 113.23 43.8246V48.7372C112.577 48.5973 111.962 48.3206 111.424 47.9252V47.9252ZM110.723 56.6846C110.646 56.4157 110.592 56.1406 110.561 55.8625H106.217C106.201 56.1363 106.201 56.4108 106.217 56.6846C106.274 57.3833 106.442 58.0684 106.714 58.7146H112.215C111.841 58.4959 111.516 58.2029 111.26 57.8538C111.003 57.5047 110.82 57.1068 110.723 56.6846V56.6846Z" fill="white"/>
<path d="M191.03 178.617H226.068C227.251 178.617 228.21 177.658 228.21 176.475V170.578C228.21 169.395 227.251 168.436 226.068 168.436H191.03C189.847 168.436 188.888 169.395 188.888 170.578V176.475C188.888 177.658 189.847 178.617 191.03 178.617Z" fill="#FFBC0E"/>
<path d="M226.058 179.632H191.02C190.183 179.632 189.38 179.299 188.788 178.707C188.196 178.115 187.863 177.312 187.863 176.475V170.578C187.866 169.741 188.199 168.94 188.791 168.349C189.382 167.757 190.184 167.424 191.02 167.421H226.058C226.896 167.421 227.7 167.753 228.293 168.345C228.887 168.937 229.222 169.74 229.225 170.578V176.475C229.222 177.313 228.887 178.116 228.293 178.708C227.7 179.299 226.896 179.632 226.058 179.632V179.632ZM191.02 169.482C190.872 169.482 190.726 169.511 190.589 169.567C190.452 169.624 190.328 169.707 190.223 169.812C190.119 169.916 190.036 170.04 189.979 170.177C189.922 170.314 189.893 170.46 189.893 170.608V176.505C189.893 176.804 190.012 177.091 190.223 177.302C190.435 177.513 190.721 177.632 191.02 177.632H226.058C226.358 177.632 226.645 177.514 226.858 177.303C227.071 177.092 227.192 176.805 227.195 176.505V170.608C227.192 170.309 227.071 170.022 226.858 169.811C226.645 169.6 226.358 169.482 226.058 169.482H191.02Z" fill="#093F68"/>
<path d="M196.511 168.436H231.549C232.732 168.436 233.691 167.477 233.691 166.295V160.397C233.691 159.215 232.732 158.256 231.549 158.256H196.511C195.328 158.256 194.369 159.215 194.369 160.397V166.295C194.369 167.477 195.328 168.436 196.511 168.436Z" fill="#FFBC0E"/>
<path d="M231.549 169.451H196.511C195.673 169.451 194.869 169.119 194.275 168.527C193.682 167.936 193.347 167.133 193.344 166.295V160.397C193.347 159.559 193.682 158.756 194.275 158.165C194.869 157.573 195.673 157.241 196.511 157.241H231.549C232.385 157.243 233.187 157.577 233.778 158.168C234.369 158.76 234.703 159.561 234.706 160.397V166.295C234.703 167.131 234.369 167.932 233.778 168.524C233.187 169.115 232.385 169.448 231.549 169.451V169.451ZM196.511 159.301C196.211 159.301 195.924 159.42 195.711 159.631C195.498 159.842 195.377 160.128 195.374 160.428V166.325C195.377 166.625 195.498 166.911 195.711 167.122C195.924 167.333 196.211 167.452 196.511 167.452H231.549C231.846 167.441 232.127 167.313 232.33 167.097C232.534 166.88 232.643 166.592 232.635 166.295V160.397C232.635 160.099 232.516 159.812 232.305 159.601C232.094 159.389 231.807 159.271 231.508 159.271L196.511 159.301Z" fill="#093F68"/>
<path d="M242.217 179.632H1.78337C1.51418 179.632 1.25601 179.525 1.06566 179.334C0.875308 179.144 0.768372 178.886 0.768372 178.617C0.768372 178.347 0.875308 178.089 1.06566 177.899C1.25601 177.708 1.51418 177.602 1.78337 177.602H242.217C242.486 177.602 242.744 177.708 242.934 177.899C243.125 178.089 243.232 178.347 243.232 178.617C243.232 178.886 243.125 179.144 242.934 179.334C242.744 179.525 242.486 179.632 242.217 179.632Z" fill="#093F68"/>
</svg>
