<svg width="23" height="23" viewBox="0 0 23 23" fill="none" xmlns="http://www.w3.org/2000/svg">
<path d="M14.95 6.89995C14.95 7.81495 14.5865 8.69247 13.9395 9.33947C13.2925 9.98647 12.415 10.35 11.5 10.35C10.585 10.35 9.70749 9.98647 9.06048 9.33947C8.41348 8.69247 8.05 7.81495 8.05 6.89995C8.05 5.98495 8.41348 5.10743 9.06048 4.46043C9.70749 3.81343 10.585 3.44995 11.5 3.44995C12.415 3.44995 13.2925 3.81343 13.9395 4.46043C14.5865 5.10743 14.95 5.98495 14.95 6.89995Z" fill="#007236"/>
<path d="M20.7 9.1999C20.7 9.8099 20.4577 10.3949 20.0263 10.8262C19.595 11.2576 19.01 11.4999 18.4 11.4999C17.79 11.4999 17.205 11.2576 16.7737 10.8262C16.3423 10.3949 16.1 9.8099 16.1 9.1999C16.1 8.5899 16.3423 8.00489 16.7737 7.57356C17.205 7.14222 17.79 6.8999 18.4 6.8999C19.01 6.8999 19.595 7.14222 20.0263 7.57356C20.4577 8.00489 20.7 8.5899 20.7 9.1999Z" fill="#007236"/>
<path d="M16.1 17.2499C16.1 16.0299 15.6154 14.8599 14.7527 13.9972C13.89 13.1345 12.72 12.6499 11.5 12.6499C10.28 12.6499 9.10998 13.1345 8.24731 13.9972C7.38464 14.8599 6.9 16.0299 6.9 17.2499V20.6999H16.1V17.2499Z" fill="#007236"/>
<path d="M6.9 9.1999C6.9 9.8099 6.65768 10.3949 6.22635 10.8262C5.79502 11.2576 5.21 11.4999 4.6 11.4999C3.99001 11.4999 3.40499 11.2576 2.97366 10.8262C2.54232 10.3949 2.3 9.8099 2.3 9.1999C2.3 8.5899 2.54232 8.00489 2.97366 7.57356C3.40499 7.14222 3.99001 6.8999 4.6 6.8999C5.21 6.8999 5.79502 7.14222 6.22635 7.57356C6.65768 8.00489 6.9 8.5899 6.9 9.1999Z" fill="#007236"/>
<path d="M18.4 20.7001V17.2501C18.4017 16.0809 18.1048 14.9306 17.5375 13.9082C18.0474 13.7777 18.5803 13.7654 19.0956 13.8722C19.6109 13.979 20.095 14.2021 20.511 14.5245C20.927 14.8468 21.2639 15.26 21.4959 15.7323C21.728 16.2047 21.8491 16.7238 21.85 17.2501V20.7001H18.4Z" fill="#007236"/>
<path d="M5.4625 13.9081C4.89526 14.9305 4.59839 16.0808 4.6 17.25V20.7H1.15V17.25C1.14978 16.7234 1.27013 16.2037 1.50184 15.7307C1.73355 15.2578 2.07045 14.8442 2.48674 14.5216C2.90303 14.199 3.38765 13.976 3.90346 13.8696C4.41927 13.7633 4.95257 13.7765 5.4625 13.9081Z" fill="#007236"/>
</svg>
