<svg width="23" height="23" viewBox="0 0 23 23" fill="none" xmlns="http://www.w3.org/2000/svg">
<path d="M13.2569 6.38894C14.6683 6.38894 15.8125 5.24478 15.8125 3.83339C15.8125 2.42199 14.6683 1.27783 13.2569 1.27783C11.8456 1.27783 10.7014 2.42199 10.7014 3.83339C10.7014 5.24478 11.8456 6.38894 13.2569 6.38894Z" fill="#007236"/>
<path d="M15.87 16.758C15.7994 16.7105 15.72 16.6776 15.6365 16.6612C15.5531 16.6448 15.4671 16.6453 15.3838 16.6625C15.3005 16.6798 15.2215 16.7135 15.1514 16.7617C15.0813 16.8099 15.0215 16.8717 14.9756 16.9433C14.3579 17.858 13.6013 18.6706 12.7331 19.3519C12.5222 19.5116 11.7364 20.1186 11.4042 19.9908C11.1742 19.9205 11.3083 19.4669 11.3531 19.2753L11.6917 18.2722C11.8322 17.8633 14.2792 10.6055 14.5475 9.77497C14.9436 8.56108 14.7711 7.36636 12.9631 7.65386C12.4711 7.70497 7.48139 8.35025 7.39195 8.35664C7.30804 8.36209 7.22604 8.38402 7.15061 8.42116C7.07519 8.45831 7.00782 8.50995 6.95235 8.57313C6.89688 8.63631 6.85439 8.7098 6.82732 8.7894C6.80026 8.869 6.78913 8.95316 6.79458 9.03706C6.80004 9.12096 6.82196 9.20296 6.85911 9.27839C6.89625 9.35381 6.94789 9.42118 7.01107 9.47666C7.07426 9.53213 7.14775 9.57461 7.22735 9.60168C7.30695 9.62875 7.3911 9.63987 7.475 9.63442C7.475 9.63442 9.39167 9.38525 9.6025 9.36608C9.71049 9.35554 9.81923 9.37647 9.91559 9.42635C10.012 9.47623 10.0918 9.55293 10.1456 9.64719C10.2613 10.0051 10.2455 10.3925 10.1008 10.7397C9.93472 11.3786 7.30889 18.7769 7.22583 19.205C7.13675 19.5632 7.16149 19.9402 7.2966 20.2837C7.4317 20.6272 7.67048 20.9201 7.97972 21.1216C8.56016 21.5085 9.25127 21.6947 9.9475 21.6519C10.6244 21.6436 11.2939 21.5093 11.9217 21.2558C13.5125 20.6169 15.1736 18.9175 16.0489 17.5822C16.1243 17.4465 16.1477 17.2881 16.1148 17.1364C16.0818 16.9847 15.9948 16.8502 15.87 16.758Z" fill="#007236"/>
</svg>
