<svg width="469" height="469" viewBox="0 0 469 469" fill="none" xmlns="http://www.w3.org/2000/svg">
<g clip-path="url(#clip0)">
<path d="M372.02 449.022H96.273C82.479 449.022 71.297 437.84 71.297 424.046V24.976C71.297 11.182 82.479 0 96.273 0H372.02C385.814 0 396.996 11.182 396.996 24.976V424.047C396.996 437.84 385.814 449.022 372.02 449.022Z" fill="#093F68"/>
<path d="M114.951 380.393V68.632C114.951 54.838 126.133 43.656 139.927 43.656H328.363C342.157 43.656 353.339 54.838 353.339 68.632V380.393C353.339 394.187 342.157 405.369 328.363 405.369H139.927C126.133 405.368 114.951 394.186 114.951 380.393Z" fill="#416CCC"/>
<path d="M130.354 468.293H107.13C103.682 468.293 100.886 465.497 100.886 462.049V448.039H136.598V462.049C136.598 465.497 133.803 468.293 130.354 468.293Z" fill="#093F68"/>
<path d="M361.162 468.293H337.938C334.49 468.293 331.694 465.497 331.694 462.049V448.039H367.406V462.049C367.406 465.497 364.611 468.293 361.162 468.293Z" fill="#093F68"/>
<path d="M123.174 118.02H106.727C103.279 118.02 100.483 115.225 100.483 111.776V87.636C100.483 84.188 103.278 81.392 106.727 81.392H123.174C126.622 81.392 129.418 84.187 129.418 87.636V111.776C129.418 115.224 126.623 118.02 123.174 118.02Z" fill="#FFBC0E"/>
<path d="M123.174 173.357H106.727C103.279 173.357 100.483 170.562 100.483 167.113V142.973C100.483 139.525 103.278 136.729 106.727 136.729H123.174C126.622 136.729 129.418 139.525 129.418 142.973V167.113C129.418 170.562 126.623 173.357 123.174 173.357Z" fill="#FFBC0E"/>
<path d="M123.174 312.295H106.727C103.279 312.295 100.483 309.499 100.483 306.051V281.911C100.483 278.463 103.278 275.667 106.727 275.667H123.174C126.622 275.667 129.418 278.462 129.418 281.911V306.051C129.418 309.499 126.623 312.295 123.174 312.295Z" fill="#FFBC0E"/>
<path d="M123.174 367.632H106.727C103.279 367.632 100.483 364.836 100.483 361.388V337.248C100.483 333.8 103.278 331.004 106.727 331.004H123.174C126.622 331.004 129.418 333.8 129.418 337.248V361.388C129.418 364.837 126.623 367.632 123.174 367.632Z" fill="#FFBC0E"/>
<path d="M212.819 191.581L201.214 203.185L174.107 176.078C170.945 172.916 170.945 167.79 174.107 164.628L174.262 164.473C177.424 161.311 182.55 161.311 185.712 164.473L212.819 191.581Z" fill="#FFBC0E"/>
<path d="M267.076 245.838L255.471 257.442L282.578 284.549C285.74 287.711 290.866 287.711 294.028 284.549L294.183 284.394C297.345 281.232 297.345 276.106 294.183 272.944L267.076 245.838Z" fill="#FFBC0E"/>
<path d="M267.075 203.187L255.471 191.582L282.578 164.475C285.74 161.313 290.866 161.313 294.028 164.475L294.183 164.63C297.345 167.792 297.345 172.918 294.183 176.08L267.075 203.187Z" fill="#FFBC0E"/>
<path d="M212.818 257.443L201.214 245.838L174.107 272.945C170.945 276.107 170.945 281.233 174.107 284.395L174.262 284.55C177.424 287.712 182.55 287.712 185.712 284.55L212.818 257.443Z" fill="#FFBC0E"/>
<path d="M234.146 267.67C257.982 267.67 277.304 248.347 277.304 224.512C277.304 200.676 257.982 181.354 234.146 181.354C210.311 181.354 190.988 200.676 190.988 224.512C190.988 248.347 210.311 267.67 234.146 267.67Z" fill="#FFBC0E"/>
<path d="M234.146 252.859C249.802 252.859 262.493 240.168 262.493 224.512C262.493 208.856 249.802 196.165 234.146 196.165C218.49 196.165 205.799 208.856 205.799 224.512C205.799 240.168 218.49 252.859 234.146 252.859Z" fill="#C89613"/>
</g>
<defs>
<clipPath id="clip0">
<rect width="468.293" height="468.293" fill="white"/>
</clipPath>
</defs>
</svg>
