<svg width="31" height="31" viewBox="0 0 31 31" fill="none" xmlns="http://www.w3.org/2000/svg">
<path d="M25.7437 19.5084C25.0344 19.0825 24.1153 19.2881 23.6553 19.9761L21.3581 23.4241V16.6694C21.3581 15.8083 20.6604 15.1105 19.7993 15.1105C18.9385 15.1105 18.2407 15.8083 18.2407 16.6694C18.2407 15.8083 17.5427 15.1105 16.6818 15.1105C15.8208 15.1105 15.123 15.8083 15.123 16.6694C15.123 15.8083 14.425 15.1105 13.5642 15.1105C12.7031 15.1105 12.0054 15.8083 12.0054 16.6694C12.0054 15.8083 11.3076 15.1105 10.4465 15.1105C9.58568 15.1105 8.8877 15.8083 8.8877 16.6694V27.581C8.8877 29.3031 10.2835 30.6986 12.0054 30.6986H18.4849C19.9449 30.6986 21.2979 29.9326 22.0494 28.6805L26.2758 21.6362C26.7163 20.9016 26.4779 19.9491 25.7437 19.5084Z" fill="#FFB782"/>
<path d="M15.6432 27.581H14.604C14.607 24.9996 16.6989 22.9076 19.2805 22.9047H21.3587V23.9437H19.2805C17.2726 23.9459 15.6452 25.5733 15.6432 27.581Z" fill="#F2A46F"/>
<path d="M8.8877 19.2674H21.3581V20.3066H8.8877V19.2674Z" fill="#F5AB76"/>
<path d="M11.4858 16.6694H12.5251V21.8655H11.4858V16.6694Z" fill="#F2A46F"/>
<path d="M14.604 16.6694H15.6432V21.8655H14.604V16.6694Z" fill="#F2A46F"/>
<path d="M17.7207 16.6694H18.7599V21.8655H17.7207V16.6694Z" fill="#F2A46F"/>
<path d="M0.0546875 0.561646H30.1917V7.83619H0.0546875V0.561646Z" fill="#2D9CDB"/>
<path d="M26.5541 2.64008H3.69164C2.8306 2.64008 2.13281 3.33786 2.13281 4.19891C2.13281 5.05975 2.8306 5.75774 3.69164 5.75774H26.5541C27.4151 5.75774 28.1129 5.05975 28.1129 4.19891C28.1129 3.33786 27.4151 2.64008 26.5541 2.64008Z" fill="#208CC9"/>
<path d="M4.21143 6.797H26.0347V19.2674H4.21143V6.797Z" fill="#628A27"/>
<path d="M4.21143 4.71857H26.0347V17.189H4.21143V4.71857Z" fill="#6B962A"/>
<path d="M4.21143 2.64008H26.0347V15.1105H4.21143V2.64008Z" fill="#88B337"/>
<path d="M22.3973 13.0321H7.84838C7.84838 12.1713 7.1506 11.4733 6.28955 11.4733V6.2774C7.1506 6.2774 7.84838 5.57941 7.84838 4.71857H22.3973C22.3973 5.57941 23.0952 6.2774 23.9561 6.2774V11.4733C23.0952 11.4733 22.3973 12.1713 22.3973 13.0321Z" fill="#6B962A"/>
<path d="M8.36865 8.35559H9.40787V9.39481H8.36865V8.35559Z" fill="#88B337"/>
<path d="M20.8389 8.35559H21.8781V9.39481H20.8389V8.35559Z" fill="#88B337"/>
<path d="M4.21198 22.9047C2.20413 22.9025 0.576696 21.275 0.574707 19.2674H1.61393C1.61552 20.7015 2.77783 21.8639 4.21198 21.8654V22.9047Z" fill="#DADDDF"/>
<path d="M18.7604 8.87525C18.7604 6.57966 17.132 4.71857 15.1231 4.71857C13.1143 4.71857 11.4858 6.57966 11.4858 8.87525C11.4858 11.171 13.1143 13.0321 15.1231 13.0321C17.132 13.0321 18.7604 11.171 18.7604 8.87525Z" fill="#88B337"/>
<path d="M4.21143 2.64008H26.0347V4.71852H4.21143V2.64008Z" fill="#80A834"/>
</svg>
